<svg width="64" height="64" viewBox="0 0 64 64" fill="none" xmlns="http://www.w3.org/2000/svg">
<g id="Group 1">
<circle id="Ellipse 2" cx="32" cy="32" r="32" fill="#FFFBF7"/>
<mask id="mask0_585_763" style="mask-type:alpha" maskUnits="userSpaceOnUse" x="0" y="0" width="64" height="64">
<circle id="Ellipse 1" cx="32" cy="32" r="32" fill="#FFFBF7"/>
</mask>
<g mask="url(#mask0_585_763)">
<g id="Group">
<path id="Vector" d="M9.20853 19.728C7.97733 19.728 6.98181 20.7244 6.98181 21.9547V47.2278C6.98181 48.4564 7.97733 49.4545 9.20853 49.4545H54.3173C55.5467 49.4545 56.5449 48.4564 56.5449 47.2278V21.9547C56.5449 20.7244 55.5467 19.728 54.3173 19.728H36.3241V21.9855H27.2017V19.728H9.20853ZM53.5495 23.3134V45.8946H9.97628V23.3134H53.5495Z" fill="#616E7D"/>
<path id="Vector_2" d="M9.97626 45.8946H53.5495V23.3134H9.97626V45.8946ZM31.5487 28.0878H50.5014V31.3206H31.5487V28.0878ZM31.5487 33.2536H50.5014V34.5376H31.5487V33.2536ZM31.5487 36.5453H50.5014V37.8293H31.5487V36.5453ZM31.5487 39.8362H50.5014V41.1202H31.5487V39.8362ZM21.1618 25.2394C24.1202 25.2394 26.5201 27.6376 26.5201 30.5977C26.5201 33.5562 24.1202 35.9561 21.1618 35.9561C18.2033 35.9561 15.8034 33.5562 15.8034 30.5977C15.8034 27.6376 18.2033 25.2394 21.1618 25.2394ZM13.0235 41.4983C13.0235 38.7167 15.2792 36.4609 18.06 36.4609H24.2618C27.0434 36.4609 29.2991 38.7167 29.2991 41.4983V43.9422H13.0235V41.4983Z" fill="white"/>
<path id="Vector_3" d="M15.8034 30.5978C15.8034 33.5562 18.2034 35.9562 21.1618 35.9562C24.1202 35.9562 26.5202 33.5562 26.5202 30.5978C26.5202 27.6376 24.1202 25.2394 21.1618 25.2394C18.2034 25.2394 15.8034 27.6376 15.8034 30.5978Z" fill="#616E7D"/>
<path id="Vector_4" d="M24.2618 36.4609H18.0601C15.2793 36.4609 13.0236 38.7166 13.0236 41.4982V43.9422H29.3001V41.4982C29.3001 38.7166 27.0443 36.4609 24.2618 36.4609ZM22.9497 43.2844H22.2066H19.702H18.958L17.8033 37.218C17.9176 37.2101 18.0293 37.2013 18.1454 37.2013H23.7641C23.8802 37.2013 23.9927 37.2093 24.107 37.218L22.9497 43.2844Z" fill="#616E7D"/>
<path id="Vector_5" d="M20.3218 39.2065L19.7018 43.2844L20.3218 39.2065Z" fill="#616E7D"/>
<path id="Vector_6" d="M21.5849 39.2065L22.2058 43.2844H22.9489L24.1045 37.2181C23.991 37.2102 23.8776 37.2014 23.7615 37.2014H18.1428C18.0276 37.2014 17.915 37.2093 17.8007 37.2181L18.9554 43.2844H19.6994L20.3203 39.2065H20.3423L19.7337 38.0852H22.1706H22.1715L21.5621 39.2065H21.5849Z" fill="white"/>
<path id="Vector_7" d="M19.7018 43.2844H22.2065L21.5847 39.2065H21.5636L22.1722 38.0861H19.7353L20.3438 39.2065H20.3218L19.7018 43.2844Z" fill="#AAD4C8"/>
<path id="Vector_8" d="M50.5014 28.0878H31.5487V31.3206H50.5014V28.0878Z" fill="#616E7D"/>
<path id="Vector_9" d="M50.5014 33.2536H31.5487V34.5376H50.5014V33.2536Z" fill="#82BFAB"/>
<path id="Vector_10" d="M50.5014 36.5453H31.5487V37.8293H50.5014V36.5453Z" fill="#82BFAB"/>
<path id="Vector_11" d="M50.5014 39.8361H31.5487V41.1201H50.5014V39.8361Z" fill="#82BFAB"/>
<path id="Vector_12" d="M27.2017 19.7279V21.9846H36.3241V19.7279V14.5454H27.2017V19.7279Z" fill="#AAD4C8"/>
</g>
</g>
</g>
</svg>
