<svg width="64" height="64" viewBox="0 0 64 64" fill="none" xmlns="http://www.w3.org/2000/svg">
<g id="Group 1">
<circle id="Ellipse 2" cx="32" cy="32" r="32" fill="#FFFBF7"/>
<mask id="mask0_585_1503" style="mask-type:alpha" maskUnits="userSpaceOnUse" x="0" y="0" width="64" height="64">
<circle id="Ellipse 1" cx="32" cy="32" r="32" fill="#FFFBF7"/>
</mask>
<g mask="url(#mask0_585_1503)">
<g id="Group 2">
<g id="Group">
<g id="Group_2">
<path id="Vector" d="M-2.49426 10.3919C-2.49426 11.3492 -1.62934 12.1269 -0.561666 12.1269H24.7417C25.8094 12.1269 26.6743 11.3492 26.6743 10.3919V9.29859C26.6743 8.3387 25.8094 7.56361 24.7417 7.56361H-0.561666C-1.62934 7.56361 -2.49426 8.3387 -2.49426 9.29859V10.3919Z" fill="#95D8E9"/>
</g>
<g id="Group_3">
<path id="Vector_2" d="M-3.46423 12.6968C-3.46423 13.6541 -2.68658 14.4343 -1.7267 14.4343H25.9071C26.8644 14.4343 27.6421 13.6566 27.6421 12.6968V10.9105C27.6421 9.95057 26.8644 9.17292 25.9071 9.17292H-1.7267C-2.68401 9.17292 -3.46423 9.95057 -3.46423 10.9105V12.6968Z" fill="#4DBFD9"/>
</g>
<g id="Group_4">
<path id="Vector_3" d="M-4.79626 15.004C-4.79626 15.9639 -3.93134 16.739 -2.86367 16.739H27.0415C28.1092 16.739 28.9741 15.9614 28.9741 15.004V13.8619C28.9741 12.9046 28.1092 12.127 27.0415 12.127H-2.86367C-3.93134 12.127 -4.79626 12.9046 -4.79626 13.8619V15.004Z" fill="#333333"/>
</g>
<g id="Group_5">
<g id="Group_6">
<g id="Group_7">
<g id="Group_8">
<path id="Vector_4" d="M1.47864 8.4746C1.47864 8.88268 1.80715 9.21376 2.21523 9.21376C2.62074 9.21376 2.95183 8.88268 2.95183 8.4746C2.95183 8.06653 2.62074 7.73544 2.21523 7.73544C1.80715 7.73544 1.47864 8.06653 1.47864 8.4746Z" fill="#333333"/>
</g>
<g id="Group_9">
<path id="Vector_5" d="M1.30408 8.47471C1.30408 7.97167 1.71472 7.56359 2.21519 7.56359C2.71823 7.56359 3.12631 7.97167 3.12631 8.47471C3.12631 8.97775 2.71823 9.38582 2.21519 9.38582C1.71215 9.38582 1.30408 8.97775 1.30408 8.47471ZM1.65056 8.47471C1.65056 8.78526 1.90464 9.03935 2.21519 9.03935C2.52574 9.03935 2.77983 8.78526 2.77983 8.47471C2.77983 8.16416 2.52831 7.91007 2.21519 7.91007C1.90464 7.91007 1.65056 8.16416 1.65056 8.47471Z" fill="#1C90BF"/>
</g>
</g>
<g id="Group_10">
<g id="Group_11">
<path id="Vector_6" d="M-0.50293 8.47463C-0.50293 8.88271 -0.174413 9.21379 0.236232 9.21379C0.641744 9.21379 0.972825 8.88271 0.972825 8.47463C0.972825 8.06655 0.641744 7.73547 0.236232 7.73547C-0.174413 7.73547 -0.50293 8.06655 -0.50293 8.47463Z" fill="#333333"/>
</g>
<g id="Group_12">
<path id="Vector_7" d="M-0.677246 8.47473C-0.677246 7.97169 -0.269171 7.56361 0.233869 7.56361C0.734342 7.56361 1.14499 7.97169 1.14499 8.47473C1.14499 8.97777 0.734342 9.38585 0.233869 9.38585C-0.266605 9.38585 -0.677246 8.97777 -0.677246 8.47473ZM-0.330767 8.47473C-0.330767 8.78528 -0.0792478 9.03937 0.233869 9.03937C0.544419 9.03937 0.798508 8.78528 0.798508 8.47473C0.798508 8.16418 0.544419 7.91009 0.233869 7.91009C-0.0766813 7.91009 -0.330767 8.16418 -0.330767 8.47473Z" fill="#1C90BF"/>
</g>
</g>
</g>
<g id="Group_13">
<g id="Group_14">
<g id="Group_15">
<path id="Vector_8" d="M23.2045 8.47458C23.2045 8.88266 23.5355 9.21374 23.9411 9.21374C24.3491 9.21374 24.6802 8.88266 24.6802 8.47458C24.6802 8.0665 24.3517 7.73542 23.9411 7.73542C23.5355 7.73542 23.2045 8.0665 23.2045 8.47458Z" fill="#333333"/>
</g>
<g id="Group_16">
<path id="Vector_9" d="M23.0297 8.47469C23.0297 7.97165 23.4377 7.56357 23.9408 7.56357C24.4438 7.56357 24.8545 7.97165 24.8545 8.47469C24.8545 8.97773 24.4438 9.3858 23.9408 9.3858C23.4403 9.3858 23.0297 8.97773 23.0297 8.47469ZM23.3787 8.47469C23.3787 8.78524 23.6328 9.03932 23.9433 9.03932C24.2565 9.03932 24.508 8.78524 24.508 8.47469C24.508 8.16414 24.2565 7.91005 23.9433 7.91005C23.6302 7.91005 23.3787 8.16414 23.3787 8.47469Z" fill="#1C90BF"/>
</g>
</g>
<g id="Group_17">
<g id="Group_18">
<path id="Vector_10" d="M21.2229 8.4746C21.2229 8.88268 21.554 9.21376 21.9621 9.21376C22.3676 9.21376 22.6987 8.88268 22.6987 8.4746C22.6987 8.06653 22.3676 7.73544 21.9621 7.73544C21.554 7.73544 21.2229 8.06653 21.2229 8.4746Z" fill="#333333"/>
</g>
<g id="Group_19">
<path id="Vector_11" d="M21.051 8.47471C21.051 7.97167 21.4591 7.56359 21.9621 7.56359C22.4626 7.56359 22.8733 7.97167 22.8733 8.47471C22.8733 8.97775 22.4626 9.38582 21.9621 9.38582C21.4591 9.38582 21.051 8.97775 21.051 8.47471ZM21.3975 8.47471C21.3975 8.78526 21.6516 9.03935 21.9621 9.03935C22.2727 9.03935 22.5268 8.78526 22.5268 8.47471C22.5268 8.16416 22.2727 7.91007 21.9621 7.91007C21.6516 7.91007 21.3975 8.16416 21.3975 8.47471Z" fill="#1C90BF"/>
</g>
</g>
</g>
</g>
<g id="Group_20">
<g id="Group_21">
<path id="Vector_12" d="M30.0163 25.3162C29.9649 25.696 30.2293 26.0476 30.6091 26.1015L32.2414 26.33C32.6213 26.3838 32.9729 26.1169 33.0242 25.7396L33.5555 21.9592C33.6094 21.5793 33.345 21.2277 32.9652 21.1738L31.3329 20.9454C30.953 20.8915 30.6014 21.1558 30.5475 21.5357L30.0163 25.3162Z" fill="#4D4D4D"/>
</g>
<g id="Group_22">
<g id="Group_23">
<path id="Vector_13" d="M29.4155 29.3869C29.8312 29.3869 30.2342 29.2509 30.5704 28.9942C30.9759 28.6837 31.2351 28.2345 31.3044 27.7289L32.2848 20.4169C32.426 19.3749 31.6894 18.4124 30.6448 18.2712L27.7678 17.8863L27.7216 18.2302L30.5986 18.6152C31.4533 18.7307 32.0539 19.516 31.9409 20.3707L30.9605 27.6853C30.9066 28.0985 30.6936 28.4655 30.36 28.7196C30.0289 28.9737 29.6208 29.0815 29.205 29.0276L29.1588 29.3715C29.2435 29.3818 29.3282 29.3869 29.4155 29.3869Z" fill="#333333"/>
</g>
</g>
<g id="Group_24">
<path id="Vector_14" d="M31.1684 23.7403C31.1299 23.9867 31.2993 24.2177 31.5457 24.2562C31.7947 24.2921 32.0231 24.1228 32.0616 23.8764L32.2002 22.9678C32.2387 22.7214 32.0693 22.4904 31.8203 22.4545C31.5739 22.416 31.3429 22.5854 31.3044 22.8318L31.1684 23.7403Z" fill="#1A1A1A"/>
</g>
</g>
<g id="Group_25">
<path id="Vector_15" d="M-4.2804 36.9504C-4.2804 37.9103 -3.41548 38.688 -2.3478 38.688H26.5282C27.5959 38.688 28.4608 37.9103 28.4608 36.9504C28.4608 35.9931 27.5959 35.2155 26.5282 35.2155H-2.35036C-3.41547 35.2155 -4.2804 35.9931 -4.2804 36.9504Z" fill="#333333"/>
</g>
<g id="Group_26">
<path id="Vector_16" d="M8.81128 37.2326C8.81128 38.0334 9.46318 38.6878 10.2665 38.6878H13.911C14.7143 38.6878 15.3636 38.0359 15.3636 37.2326C15.3636 36.4293 14.7143 35.7799 13.911 35.7799H10.2665C9.46318 35.7799 8.81128 36.4293 8.81128 37.2326Z" fill="#34495E"/>
</g>
<g id="Group_27">
<path id="Vector_17" d="M8.81128 37.2326C8.81128 38.0334 9.46318 38.6878 10.2665 38.6878H13.911C14.7143 38.6878 15.3636 38.0359 15.3636 37.2326C15.3636 36.4293 14.7143 35.7799 13.911 35.7799H10.2665C9.46318 35.7799 8.81128 36.4293 8.81128 37.2326Z" fill="#34495E"/>
</g>
<g id="Group_28">
<g id="Group_29">
<path id="Vector_18" d="M-3.15906 52.3135C-3.15906 53.2708 -2.3814 54.0485 -1.42409 54.0485H2.22039C3.18027 54.0485 3.95536 53.2708 3.95536 52.3135V48.5818C3.95536 47.6219 3.1777 46.8442 2.22039 46.8442H-1.42409C-2.38397 46.8442 -3.15906 47.6219 -3.15906 48.5818V52.3135Z" fill="#333333"/>
</g>
<g id="Group_30">
<path id="Vector_19" d="M20.2195 52.3135C20.2195 53.2708 20.9971 54.0485 21.9545 54.0485H25.5989C26.5588 54.0485 27.3365 53.2708 27.3365 52.3135V48.5818C27.3365 47.6219 26.5588 46.8442 25.5989 46.8442H21.9545C20.9971 46.8442 20.2195 47.6219 20.2195 48.5818V52.3135Z" fill="#333333"/>
</g>
</g>
<g id="Group_31">
<path id="Vector_20" d="M-5.4895 38.5134V48.4099C-5.4895 48.7924 -5.14046 49.1029 -4.71441 49.1029H28.8892C29.3152 49.1029 29.6617 48.7924 29.6617 48.4099V38.5134C29.6617 38.131 29.3152 37.8204 28.8892 37.8204H-4.71441C-5.14046 37.8179 -5.4895 38.131 -5.4895 38.5134Z" fill="#00A0C9"/>
</g>
<g id="Group_32">
<path id="Vector_21" d="M-4.17554 26.9974C-4.17554 27.6365 -3.6571 28.1575 -3.01803 28.1575H27.1952C27.8368 28.1575 28.3527 27.639 28.3527 26.9974C28.3527 26.3583 27.8342 25.8399 27.1952 25.8399H-3.01803C-3.6571 25.8399 -4.17554 26.3583 -4.17554 26.9974Z" fill="#1C90BF"/>
</g>
<g id="Group_33">
<path id="Vector_22" d="M-5.4895 27.6621V35.7364C-5.4895 36.1188 -5.14046 36.4294 -4.71441 36.4294H28.8892C29.3152 36.4294 29.6617 36.1163 29.6617 35.7364V27.6621C29.6617 27.2797 29.3152 26.9692 28.8892 26.9692H-4.71441C-5.14046 26.9692 -5.4895 27.2823 -5.4895 27.6621Z" fill="#00A0C9"/>
</g>
<g id="Group_34">
<path id="Vector_23" d="M-0.402588 37.8179V37.8589L-0.0124744 39.2064L0.390469 40.5949L0.641991 41.4623C0.688189 41.5804 0.73182 41.6959 0.778017 41.8088C0.824215 41.9269 0.872977 42.045 0.916608 42.1579C1.08343 42.5685 1.24256 42.9432 1.40682 43.2871C1.46585 43.4103 1.52488 43.5233 1.58391 43.6336C1.78923 44.0289 2.00225 44.3779 2.23324 44.6756C2.33077 44.8014 2.42829 44.9169 2.53352 45.0221C3.19825 45.7202 4.03237 46.0641 5.24378 46.0641H18.9413C20.258 46.0641 21.1563 45.7844 21.8621 45.0221C21.9647 44.9143 22.0597 44.8014 22.1495 44.6756C22.3651 44.3856 22.5627 44.0417 22.7501 43.6336C22.8014 43.5233 22.8527 43.4103 22.9041 43.2871C23.0452 42.9509 23.1838 42.5762 23.3224 42.1579C23.3583 42.0475 23.3943 41.9269 23.4328 41.8088C23.4687 41.6959 23.5072 41.5804 23.5406 41.4623L23.7921 40.5949L24.195 39.2064L24.5851 37.8589V37.8179H-0.402588Z" fill="#333333"/>
</g>
<g id="Group_35">
<path id="Vector_24" d="M1.4762 37.8179V37.8538L1.80728 38.9985L2.14863 40.1765L2.36165 40.9131C2.40015 41.0132 2.43864 41.1107 2.47714 41.2083C2.51564 41.3084 2.55671 41.4084 2.5952 41.5034C2.73636 41.8525 2.87239 42.1707 3.00841 42.4607C3.05975 42.566 3.10851 42.6635 3.15984 42.7559C3.33436 43.0921 3.51402 43.3872 3.71164 43.6413C3.79377 43.7466 3.8759 43.8441 3.96573 43.9365C4.53037 44.5293 5.23873 44.8219 6.26791 44.8219H17.9046C19.0236 44.8219 19.7858 44.5858 20.3838 43.9365C20.4736 43.8441 20.5532 43.7466 20.6276 43.6413C20.8099 43.3924 20.9793 43.1024 21.1384 42.7559C21.182 42.6635 21.2256 42.5634 21.2667 42.4607C21.3873 42.1758 21.508 41.8576 21.6235 41.5034C21.6517 41.4084 21.6851 41.3084 21.7184 41.2083C21.7492 41.1107 21.78 41.0132 21.8108 40.9131L22.0213 40.1765L22.3626 38.9985L22.6937 37.8538V37.8179H1.4762Z" fill="#1A1A1A"/>
</g>
<g id="Group_36">
<path id="Vector_25" d="M-4.6886 33.8321C-4.6886 34.7996 -3.90581 35.5824 -2.93822 35.5824H27.1158C28.0834 35.5824 28.8662 34.7996 28.8662 33.8321V32.169C28.8662 31.2039 28.0834 30.4186 27.1158 30.4186H-2.93822C-3.90581 30.4186 -4.6886 31.2014 -4.6886 32.169V33.8321Z" fill="#4D4D4D"/>
</g>
<g id="Group_37">
<path id="Vector_26" d="M-0.402588 37.8179V37.8615L-0.0124743 39.2064H24.1899L24.5774 37.8615V37.8179H-0.402588Z" fill="#4D4D4D"/>
</g>
<g id="Group_38">
<path id="Vector_27" d="M3.87073 33.5292C3.87073 34.4865 4.64838 35.2642 5.6057 35.2642H18.5667C19.524 35.2642 20.3016 34.4865 20.3016 33.5292V32.4718C20.3016 31.5145 19.524 30.7368 18.5667 30.7368H5.6057C4.64838 30.7368 3.87073 31.5145 3.87073 32.4718V33.5292Z" fill="#1A1A1A"/>
</g>
<g id="Group_39">
<path id="Vector_28" d="M-4.06494 32.0458C-4.06494 32.2306 -3.91608 32.3794 -3.73129 32.3794H27.9114C28.0962 32.3794 28.2425 32.2306 28.2425 32.0458C28.2425 31.861 28.0937 31.7121 27.9114 31.7121H-3.73386C-3.91608 31.7147 -4.06494 31.8635 -4.06494 32.0458Z" fill="#00A0C9"/>
</g>
<g id="Group_40">
<path id="Vector_29" d="M-4.06494 33.986C-4.06494 34.1683 -3.91608 34.3171 -3.73129 34.3171H27.9114C28.0962 34.3171 28.2425 34.1683 28.2425 33.986C28.2425 33.8013 28.0937 33.6524 27.9114 33.6524H-3.73386C-3.91608 33.6524 -4.06494 33.8013 -4.06494 33.986Z" fill="#00A0C9"/>
</g>
<g id="Group_41">
<path id="Vector_30" d="M27.1335 35.0409C27.1335 35.8083 27.7572 36.4294 28.522 36.4294C29.2894 36.4294 29.9105 35.8057 29.9105 35.0409V28.3576C29.9105 27.5903 29.2894 26.9692 28.522 26.9692C27.7546 26.9692 27.1335 27.5903 27.1335 28.3576V35.0409Z" fill="#1C90BF"/>
</g>
<g id="Group_42">
<g id="Group_43">
<path id="Vector_31" d="M0.290405 40.2483L0.387935 40.5974H23.787L23.8896 40.2483H0.290405Z" fill="#4D4D4D"/>
</g>
<g id="Group_44">
<path id="Vector_32" d="M0.775513 41.7241C0.82171 41.8422 0.870476 41.9602 0.914108 42.0706H23.3173C23.3533 41.9602 23.3892 41.8422 23.4277 41.7241H0.775513Z" fill="#4D4D4D"/>
</g>
<g id="Group_45">
<path id="Vector_33" d="M1.40405 43.1999C1.46308 43.3205 1.52211 43.436 1.58114 43.5464H22.7473C22.7986 43.436 22.85 43.3205 22.9013 43.1999H1.40405Z" fill="#4D4D4D"/>
</g>
<g id="Group_46">
<path id="Vector_34" d="M2.22815 44.6755C2.32568 44.8013 2.42321 44.9168 2.52843 45.022H21.857C21.9596 44.9142 22.0546 44.8013 22.1444 44.6755H2.22815Z" fill="#4D4D4D"/>
</g>
<g id="Group_47">
<path id="Vector_35" d="M18.3821 45.7613C18.3821 45.9281 18.5181 46.0642 18.6849 46.0642C18.8518 46.0642 18.9878 45.9281 18.9878 45.7613V39.5118C18.9878 39.345 18.8518 39.209 18.6849 39.209C18.5155 39.209 18.3821 39.345 18.3821 39.5118V45.7613Z" fill="#4D4D4D"/>
</g>
<g id="Group_48">
<path id="Vector_36" d="M14.1573 45.7613C14.1573 45.9281 14.2934 46.0642 14.4602 46.0642C14.6296 46.0642 14.7656 45.9281 14.7656 45.7613V39.5118C14.7656 39.345 14.6296 39.209 14.4602 39.209C14.2934 39.209 14.1573 39.345 14.1573 39.5118V45.7613Z" fill="#4D4D4D"/>
</g>
<g id="Group_49">
<path id="Vector_37" d="M9.93298 45.7613C9.93298 45.9281 10.069 46.0642 10.2384 46.0642C10.4052 46.0642 10.5412 45.9281 10.5412 45.7613V39.5118C10.5412 39.345 10.4052 39.209 10.2384 39.209C10.069 39.209 9.93298 39.345 9.93298 39.5118V45.7613Z" fill="#4D4D4D"/>
</g>
<g id="Group_50">
<path id="Vector_38" d="M5.70837 45.7613C5.70837 45.9281 5.8444 46.0642 6.01123 46.0642C6.17805 46.0642 6.31664 45.9281 6.31664 45.7613V39.5118C6.31664 39.345 6.18062 39.209 6.01123 39.209C5.8444 39.209 5.70837 39.345 5.70837 39.5118V45.7613Z" fill="#4D4D4D"/>
</g>
</g>
<g id="Group_51">
<g id="Group_52">
<g id="Group_53">
<path id="Vector_39" d="M24.2571 44.3292C24.2571 45.2865 25.0347 46.0642 25.9921 46.0642H28.5381C29.4979 46.0642 30.273 45.2865 30.273 44.3292V40.9439C30.273 39.9866 29.4954 39.209 28.5381 39.209H25.9921C25.0322 39.209 24.2571 39.9866 24.2571 40.9439V44.3292Z" fill="#4DBFD9"/>
</g>
<g id="Group_54">
<g id="Group_55">
<path id="Vector_40" d="M24.5807 42.3323V42.9405C24.5807 43.8979 25.3583 44.6755 26.3157 44.6755H29.6675V40.5973H26.3157C25.3583 40.5973 24.5807 41.375 24.5807 42.3323Z" fill="#E49306"/>
</g>
<g id="Group_56">
<path id="Vector_41" d="M24.5807 42.3323V42.9405C24.5807 43.8979 25.3583 44.6755 26.3157 44.6755H28.0455V40.5973H26.3157C25.3583 40.5973 24.5807 41.375 24.5807 42.3323Z" fill="#999999"/>
</g>
<g id="Group_57">
<path id="Vector_42" d="M24.8579 43.0074C24.8579 43.8082 25.5072 44.4575 26.308 44.4575C27.1088 44.4575 27.7581 43.8082 27.7581 43.0074V42.276C27.7581 41.4752 27.1088 40.8233 26.308 40.8233C25.5072 40.8233 24.8579 41.4726 24.8579 42.276V43.0074Z" fill="#CCCCCC"/>
</g>
<g id="Group_58">
<path id="Vector_43" d="M25.8588 41.3237C25.4507 41.3237 25.1196 41.6547 25.1196 42.0628V42.8815C25.1196 43.2896 25.4507 43.6207 25.8588 43.6207C26.2643 43.6207 26.5954 43.2896 26.5954 42.8815V42.0628C26.598 41.6547 26.2669 41.3237 25.8588 41.3237Z" fill="#E6E6E6"/>
</g>
<g id="Group_59">
<path id="Vector_44" d="M28.1918 43.9596C28.1918 44.2343 28.4151 44.4576 28.6897 44.4576H28.9309C29.2081 44.4576 29.4314 44.2343 29.4314 43.9596C29.4314 43.685 29.2081 43.4617 28.9309 43.4617H28.6897C28.4151 43.4617 28.1918 43.6825 28.1918 43.9596Z" fill="#FBCB43"/>
</g>
<g id="Group_60">
<path id="Vector_45" d="M28.1918 42.6378C28.1918 42.9124 28.4151 43.1357 28.6897 43.1357H28.9309C29.2081 43.1357 29.4314 42.9124 29.4314 42.6378C29.4314 42.3606 29.2081 42.1399 28.9309 42.1399H28.6897C28.4151 42.1373 28.1918 42.3606 28.1918 42.6378Z" fill="#F5B400"/>
</g>
<g id="Group_61">
<path id="Vector_46" d="M28.1918 41.3236C28.1918 41.5982 28.4151 41.8215 28.6897 41.8215H28.9309C29.2081 41.8215 29.4314 41.5982 29.4314 41.3236C29.4314 41.049 29.2081 40.8257 28.9309 40.8257H28.6897C28.4151 40.8231 28.1918 41.049 28.1918 41.3236Z" fill="#FBCB43"/>
</g>
<g id="Group_62">
<path id="Vector_47" d="M25.1504 42.0474C25.1504 42.4478 25.4738 42.7712 25.8741 42.7712C26.2745 42.7712 26.5979 42.4478 26.5979 42.0474C26.5979 41.647 26.2745 41.3237 25.8741 41.3237C25.4738 41.3237 25.1504 41.647 25.1504 42.0474Z" fill="white"/>
</g>
</g>
</g>
</g>
<g id="Group_63">
<g id="Group_64">
<path id="Vector_48" d="M6.27283 47.8299C6.27283 48.7872 7.05048 49.5674 8.0078 49.5674H16.1668C17.1241 49.5674 17.9018 48.7898 17.9018 47.8299V47.8016C17.9018 46.8443 17.1241 46.0667 16.1668 46.0667H8.0078C7.04792 46.0667 6.27283 46.8443 6.27283 47.8016V47.8299Z" fill="#4DBFD9"/>
</g>
<g id="Group_65">
<path id="Vector_49" d="M8.00793 48.0608C8.00793 48.5151 8.37751 48.8847 8.83179 48.8847H15.3431C15.7974 48.8847 16.1695 48.5151 16.1695 48.0608C16.1695 47.6065 15.7999 47.237 15.3431 47.237H8.83179C8.37751 47.237 8.00793 47.6065 8.00793 48.0608Z" fill="#333333"/>
</g>
</g>
<g id="Group_66">
<g id="Group_67">
<g id="Group_68">
<path id="Vector_50" d="M24.1027 47.3088C24.1027 47.7246 24.4389 48.0608 24.8547 48.0608H27.3981C27.8139 48.0608 28.1501 47.7246 28.1501 47.3088C28.1501 46.893 27.8139 46.5568 27.3981 46.5568H24.8547C24.4389 46.5568 24.1027 46.893 24.1027 47.3088Z" fill="#B2B2B2"/>
</g>
<g id="Group_69">
<path id="Vector_51" d="M24.5389 47.3293C24.5389 47.5962 24.7545 47.8144 25.0214 47.8144H27.2287C27.4956 47.8144 27.7112 47.5962 27.7112 47.3293C27.7112 47.0624 27.4956 46.8442 27.2287 46.8442H25.0214C24.7545 46.8468 24.5389 47.0624 24.5389 47.3293Z" fill="#E6E6E6"/>
</g>
<g id="Group_70">
<path id="Vector_52" d="M24.5389 47.3293C24.5389 47.5962 24.7545 47.8144 25.0214 47.8144H25.912C26.1815 47.8144 26.3971 47.5962 26.3971 47.3293C26.3971 47.0624 26.1815 46.8442 25.912 46.8442H25.0214C24.7545 46.8468 24.5389 47.0624 24.5389 47.3293Z" fill="white"/>
</g>
</g>
<g id="Group_71">
<g id="Group_72">
<path id="Vector_53" d="M-3.97241 47.3088C-3.97241 47.7246 -3.63619 48.0608 -3.22042 48.0608H-0.676985C-0.261207 48.0608 0.075006 47.7246 0.075006 47.3088C0.075006 46.893 -0.263774 46.5568 -0.676985 46.5568H-3.22042C-3.63619 46.5568 -3.97241 46.893 -3.97241 47.3088Z" fill="#B2B2B2"/>
</g>
</g>
</g>
<g id="Group_73">
<g id="Group_74">
<path id="Vector_54" d="M-5.4895 25.6679C-5.4895 26.0503 -5.14046 26.3634 -4.71441 26.3634H28.8892C29.3152 26.3634 29.6617 26.0503 29.6617 25.6679V25.655L28.8892 15.9459C28.8892 15.9253 28.8892 15.9048 28.8866 15.8868C28.8532 15.5326 28.5221 15.2529 28.1192 15.2529H-3.94188C-4.36793 15.2529 -4.71184 15.566 -4.71184 15.9459L-5.4895 25.6679Z" fill="#4D4D4D"/>
</g>
<g id="Group_75">
<path id="Vector_55" d="M1.54004 24.7978C1.54004 25.1828 1.85059 25.4933 2.23557 25.4933H21.9414C22.3264 25.4933 22.6369 25.1828 22.6369 24.7978V19.0693C22.6369 18.6869 22.3264 18.3738 21.9414 18.3738H2.23557C1.85059 18.3738 1.54004 18.6869 1.54004 19.0693V24.7978Z" fill="#34495E"/>
</g>
<g id="Group_76">
<path id="Vector_56" d="M23.7302 24.6259C23.7302 25.3728 25.0391 26.0067 26.0735 26.2531H28.8607C28.8633 26.2531 28.8633 26.2531 28.8684 26.2531C29.1918 26.1351 29.4664 25.9246 29.664 25.6525L29.6101 24.9391L28.8915 15.9434C28.8915 15.9228 28.8915 15.9023 28.8889 15.8843C28.699 15.8125 28.4886 15.7714 28.2704 15.7714H26.8563C25.8989 15.7714 25.1213 16.5491 25.1213 17.5064L23.7533 24.5181L23.7302 24.6259Z" fill="#666666"/>
</g>
<g id="Group_77">
<path id="Vector_57" d="M-5.4895 25.6525C-5.29188 25.9246 -5.01726 26.1351 -4.69388 26.2531H-1.89893C-0.864618 26.0067 0.444314 25.3702 0.444314 24.6259L0.423781 24.5181L-0.94418 17.5064C-0.94418 16.5491 -1.72184 15.7714 -2.67915 15.7714H-4.09331C-4.31146 15.7714 -4.51935 15.8125 -4.71184 15.8843C-4.71441 15.9023 -4.71441 15.9254 -4.71441 15.9434L-5.39968 24.5335L-5.4895 25.6525Z" fill="#666666"/>
</g>
</g>
<g id="Group_78">
<path id="Vector_58" d="M-5.82812 25.3856C-5.82812 25.863 -5.44058 26.2531 -4.96064 26.2531H29.1383C29.1408 26.2531 29.1408 26.2531 29.146 26.2531C29.6208 26.2506 30.0058 25.8604 30.0058 25.3856C30.0058 25.2214 29.9621 25.0725 29.8851 24.9416C29.8466 24.8775 29.8004 24.8236 29.7542 24.7722C29.5951 24.6157 29.3795 24.5207 29.1383 24.5207H-4.96064C-5.01453 24.5207 -5.071 24.5284 -5.12233 24.5361C-5.52527 24.6105 -5.82812 24.9622 -5.82812 25.3856Z" fill="#333333"/>
</g>
<g id="Group_79">
<g id="Group_80">
<path id="Vector_59" d="M21.6567 25.0596C21.6567 25.2983 21.8518 25.4934 22.0905 25.4934H26.1687C26.41 25.4934 26.6024 25.2983 26.6024 25.0596C26.6024 24.8184 26.41 24.6259 26.1687 24.6259H22.0905C21.8518 24.6259 21.6567 24.8184 21.6567 25.0596Z" fill="#1A1A1A"/>
</g>
<g id="Group_81">
<path id="Vector_60" d="M10.7053 25.0596C10.7053 25.2983 10.9004 25.4934 11.1391 25.4934H15.2173C15.456 25.4934 15.651 25.2983 15.651 25.0596C15.651 24.8184 15.456 24.6259 15.2173 24.6259H11.1391C10.9004 24.6259 10.7053 24.8184 10.7053 25.0596Z" fill="#1A1A1A"/>
</g>
<g id="Group_82">
<path id="Vector_61" d="M-0.245972 25.0596C-0.245972 25.2983 -0.0509148 25.4934 0.187772 25.4934H4.26599C4.50467 25.4934 4.69973 25.2983 4.69973 25.0596C4.69973 24.8184 4.50467 24.6259 4.26599 24.6259H0.187772C-0.0509148 24.6259 -0.245972 24.8184 -0.245972 25.0596Z" fill="#1A1A1A"/>
</g>
<g id="Group_83">
<g id="Group_84">
<path id="Vector_62" d="M21.1356 22.4547C21.1356 22.5984 21.2511 22.7139 21.3948 22.7139H27.0592C27.2029 22.7139 27.3184 22.5984 27.3184 22.4547C27.3184 22.3109 27.2029 22.1929 27.0592 22.1929H21.3948C21.2511 22.1954 21.1356 22.3109 21.1356 22.4547Z" fill="#1A1A1A"/>
</g>
<g id="Group_85">
<path id="Vector_63" d="M18.5075 25.2777C18.6255 25.3958 18.7924 25.4215 18.8822 25.3316L21.5565 22.6547C21.6438 22.5675 21.6207 22.4006 21.5026 22.2826C21.3845 22.162 21.2152 22.1389 21.1279 22.2261L18.451 24.903C18.3637 24.9928 18.3868 25.1597 18.5075 25.2777Z" fill="#1A1A1A"/>
</g>
</g>
<g id="Group_86">
<g id="Group_87">
<path id="Vector_64" d="M10.3638 22.4547C10.3638 22.5984 10.4793 22.7139 10.623 22.7139H16.2873C16.431 22.7139 16.5491 22.5984 16.5491 22.4547C16.5491 22.3109 16.4336 22.1929 16.2873 22.1929H10.623C10.4818 22.1954 10.3638 22.3109 10.3638 22.4547Z" fill="#1A1A1A"/>
</g>
<g id="Group_88">
<path id="Vector_65" d="M7.73579 25.2777C7.85385 25.3958 8.02324 25.4215 8.11051 25.3316L10.7874 22.6547C10.8747 22.5675 10.8516 22.4006 10.7309 22.2826C10.6129 22.162 10.446 22.1389 10.3562 22.2261L7.6819 24.903C7.59207 24.9928 7.61773 25.1597 7.73579 25.2777Z" fill="#1A1A1A"/>
</g>
</g>
<g id="Group_89">
<g id="Group_90">
<path id="Vector_66" d="M-0.407837 22.4547C-0.407837 22.5984 -0.292342 22.7139 -0.14605 22.7139H5.51571C5.66201 22.7139 5.7775 22.5984 5.7775 22.4547C5.7775 22.3109 5.66201 22.1929 5.51571 22.1929H-0.14605C-0.289775 22.1954 -0.407837 22.3109 -0.407837 22.4547Z" fill="#1A1A1A"/>
</g>
<g id="Group_91">
<path id="Vector_67" d="M-3.03593 25.2777C-2.91787 25.3958 -2.75105 25.4215 -2.66122 25.3316L0.0156696 22.6547C0.102931 22.5675 0.077266 22.4006 -0.0407944 22.2826C-0.158855 22.162 -0.325681 22.1389 -0.415509 22.2261L-3.08983 24.903C-3.17966 24.9928 -3.15399 25.1597 -3.03593 25.2777Z" fill="#1A1A1A"/>
</g>
</g>
</g>
<g id="Group_92">
<path id="Vector_68" d="M5.60559 27.8366C5.60559 28.219 5.91614 28.5322 6.29855 28.5322H17.8736C18.256 28.5322 18.5666 28.2216 18.5666 27.8366V27.6621C18.5666 27.2797 18.256 26.9692 17.8736 26.9692H6.29855C5.91614 26.9692 5.60559 27.2797 5.60559 27.6621V27.8366Z" fill="#A0C2FF"/>
</g>
<g id="Group_93">
<path id="Vector_69" d="M1.56616 38.9344C1.56616 39.1679 1.75609 39.3553 1.98707 39.3553H11.0315C11.2625 39.3553 11.4524 39.1679 11.4524 38.9344C11.4524 38.7034 11.2625 38.5135 11.0315 38.5135H1.98707C1.75609 38.5135 1.56616 38.7034 1.56616 38.9344Z" fill="white"/>
</g>
<g id="Group_94">
<path id="Vector_70" d="M-2.78162 19.5057C-2.78162 19.8881 -2.4685 20.1987 -2.08608 20.1987H9.18355C9.56596 20.1987 9.87907 19.8881 9.87907 19.5057V16.467C9.87907 16.082 9.56596 15.7714 9.18355 15.7714H-2.08608C-2.47106 15.7714 -2.78162 16.082 -2.78162 16.467V19.5057Z" fill="white"/>
</g>
<g id="Group_95">
<g id="Group_96">
<path id="Vector_71" d="M3.87354 11.996C3.87354 12.5478 4.32011 12.9944 4.86935 12.9944H18.6721C19.2239 12.9944 19.6705 12.5478 19.6705 11.996C19.6705 11.4442 19.2214 10.9976 18.6721 10.9976H4.86935C4.32011 10.9976 3.87354 11.4442 3.87354 11.996Z" fill="#95D8E9"/>
</g>
<g id="Group_97">
<path id="Vector_72" d="M4.31238 11.4006C4.31238 11.6213 4.4946 11.8035 4.71532 11.8035H10.413C10.6363 11.8035 10.816 11.6213 10.816 11.4006C10.816 11.1773 10.6363 10.9976 10.413 10.9976H4.71532C4.4946 10.9976 4.31238 11.1798 4.31238 11.4006Z" fill="white"/>
</g>
</g>
<g id="Group_98">
<path id="Vector_73" d="M29.4539 35.6953C29.4539 35.9083 29.2794 36.0829 29.0664 36.0829C28.8534 36.0829 28.6788 35.9083 28.6788 35.6953V27.7031C28.6788 27.4901 28.8534 27.3156 29.0664 27.3156C29.2794 27.3156 29.4539 27.4901 29.4539 27.7031V35.6953Z" fill="#4DBFD9"/>
</g>
</g>
<g id="Group_99">
<g id="Group_100">
<g id="Group_101">
<path id="Vector_74" d="M34.499 38.4236C34.499 38.4236 33.9411 37.8604 33.7816 41.2669C33.6308 44.4821 33.4096 49.1172 34.1817 51.1064C34.2654 51.3215 34.4135 51.5065 34.61 51.6273C34.7696 51.726 34.9917 51.8247 35.2799 51.8697C35.9524 51.9745 38.6097 51.9155 38.6097 51.9155C38.6097 51.9155 40.1177 51.9155 40.1406 50.6737C40.1591 49.6522 40.1406 47.4302 40.1406 47.4302L34.499 38.4236Z" fill="#263238"/>
</g>
<g id="Group_102" opacity="0.3">
<path id="Vector_75" d="M34.499 38.4236C34.499 38.4236 33.9411 37.8604 33.7816 41.2669C33.6308 44.4821 33.4096 49.1172 34.1817 51.1064C34.2654 51.3215 34.4135 51.5065 34.61 51.6273C34.7696 51.726 34.9917 51.8247 35.2799 51.8697C35.9524 51.9745 38.6097 51.9155 38.6097 51.9155C38.6097 51.9155 40.1177 51.9155 40.1406 50.6737C40.1591 49.6522 40.1406 47.4302 40.1406 47.4302L34.499 38.4236Z" fill="black"/>
</g>
</g>
<g id="Group_103">
<path id="Vector_76" d="M31.9944 40.731C31.9944 40.731 31.4365 40.1678 31.2769 43.5742C31.1262 46.7895 30.905 51.4246 31.6771 53.4138C31.7608 53.6288 31.9089 53.8139 32.1054 53.9347C32.2649 54.0334 32.487 54.1321 32.7744 54.1771C33.4468 54.2819 36.1042 54.2229 36.1042 54.2229C36.1042 54.2229 37.6122 54.2229 37.6351 52.981C37.6536 51.9595 37.6351 49.7376 37.6351 49.7376L31.9944 40.731Z" fill="#263238"/>
</g>
<g id="Group_104">
<path id="Vector_77" d="M73.3012 37.796L72.0665 36.9852C71.7862 35.7239 69.4964 33.1072 69.4964 33.1072C69.4964 33.1072 67.1132 27.3598 65.057 26.0043C63.0007 24.6487 52.9585 24.8197 52.9585 24.8197L52.427 24.8276C52.427 24.8276 41.7854 24.6496 39.7292 26.0043C37.673 27.3598 35.2898 33.1072 35.2898 33.1072C35.2898 33.1072 33 35.7239 32.7197 36.9852L31.4849 37.796C31.2355 37.96 31.0892 38.242 31.0998 38.5408C31.1747 40.6693 31.5845 49.1207 32.2984 50.069C32.9824 50.9768 39.4437 50.4956 41.2002 50.4929C43.72 50.4885 51.5659 50.3863 51.5659 50.3863L63.0968 50.3581C64.4056 50.218 71.5984 51.0976 72.486 50.0699C73.2616 49.1718 73.6097 40.6701 73.6846 38.5417C73.6961 38.242 73.5507 37.96 73.3012 37.796Z" fill="#FF725E"/>
</g>
<g id="Group_105">
<path id="Vector_78" d="M64.499 26.3894C64.447 26.2986 64.3518 26.2413 64.2478 26.2361L52.5724 25.7354L52.4807 25.7319L52.4789 25.7398L40.5294 26.2369C40.4245 26.2413 40.3302 26.2995 40.2782 26.3903L37.234 31.7014C37.1309 31.8803 37.2569 32.1051 37.4631 32.1103C37.7972 32.12 38.2934 32.1253 38.8689 32.1015C39.8049 32.0628 47.2524 32.0804 51.1833 32.0936L51.1816 32.1015C51.1816 32.1015 51.6372 32.0998 52.3882 32.0971C53.1391 32.0998 53.5947 32.1015 53.5947 32.1015L53.593 32.0936C57.5239 32.0813 64.9714 32.0636 65.9074 32.1015C66.5138 32.1262 67.0302 32.12 67.3643 32.1095C67.5476 32.1033 67.6587 31.9041 67.5679 31.7446L64.499 26.3894Z" fill="#455A64"/>
</g>
<g id="Group_106">
<path id="Vector_79" d="M31.3746 32.5308C31.3746 32.5308 31.5439 33.1063 31.8911 33.1662C32.2393 33.2262 34.9812 33.3099 34.9812 33.3099L35.2491 33.8616H35.7656L36.141 31.6485L35.8211 31.7146C35.7118 31.7376 35.6202 31.8116 35.5761 31.9147C35.5276 32.0284 35.421 32.1068 35.2985 32.1192L31.3746 32.5308Z" fill="#263238"/>
</g>
<g id="Group_107">
<path id="Vector_80" d="M38.3675 31.1012L66.4478 31.0254L66.6761 31.5833L53.1075 31.6723L38.104 31.5745L38.3675 31.1012Z" fill="#FF725E"/>
</g>
<g id="Group_108" opacity="0.5">
<path id="Vector_81" d="M38.3675 31.1012L66.3676 31.0254L66.6761 31.5833L53.1075 31.6723L38.104 31.5745L38.3675 31.1012Z" fill="black"/>
</g>
<g id="Group_109">
<g id="Group_110">
<path id="Vector_82" d="M48.89 31.229C48.89 30.9223 48.7719 30.0559 48.4881 29.825C48.2686 29.6469 47.7495 29.5932 47.493 29.5782C47.4851 29.5773 47.4772 29.5773 47.4684 29.5773C47.3326 29.5791 46.4248 29.6029 46.1534 29.8241C45.8696 30.055 45.7506 30.9214 45.7515 31.2281C45.7515 31.2307 45.7515 31.2343 45.7515 31.2369C45.7515 31.4273 45.9057 31.5815 46.097 31.5815H47.2427H47.3996H48.5454C48.7358 31.5815 48.8909 31.4273 48.8909 31.2369C48.89 31.2351 48.89 31.2316 48.89 31.229Z" fill="#263238"/>
</g>
<g id="Group_111" opacity="0.3">
<path id="Vector_83" d="M48.89 31.229C48.89 30.9223 48.7719 30.0559 48.4881 29.825C48.2686 29.6469 47.7495 29.5932 47.493 29.5782C47.4851 29.5773 47.4772 29.5773 47.4684 29.5773C47.3326 29.5791 46.4248 29.6029 46.1534 29.8241C45.8696 30.055 45.7506 30.9214 45.7515 31.2281C45.7515 31.2307 45.7515 31.2343 45.7515 31.2369C45.7515 31.4273 45.9057 31.5815 46.097 31.5815H47.2427H47.3996H48.5454C48.7358 31.5815 48.8909 31.4273 48.8909 31.2369C48.89 31.2351 48.89 31.2316 48.89 31.229Z" fill="black"/>
</g>
</g>
<g id="Group_112">
<path id="Vector_84" d="M47.6534 31.0033C47.6534 30.5018 47.4603 29.0837 46.995 28.7056C46.6354 28.4138 45.7858 28.3266 45.3662 28.3019C45.353 28.301 45.3398 28.301 45.3266 28.301C45.1045 28.3037 43.6185 28.3433 43.1734 28.7056C42.708 29.0837 42.515 30.5027 42.515 31.0033C42.515 31.0086 42.515 31.013 42.515 31.0183C42.515 31.3303 42.768 31.5832 43.08 31.5832H44.9555H45.212H47.0875C47.3995 31.5832 47.6525 31.3303 47.6525 31.0183C47.6534 31.013 47.6534 31.0086 47.6534 31.0033Z" fill="#263238"/>
</g>
<g id="Group_113" opacity="0.3">
<path id="Vector_85" d="M42.7443 45.6675C42.7443 45.6675 33.7544 44.4855 33.3887 44.4415C32.8334 44.3745 32.5355 44.7341 32.5355 45.1624C32.5355 45.4639 32.495 46.6158 32.4712 47.2707C32.4571 47.6567 32.6519 48.0225 32.985 48.219C33.1771 48.3318 33.4345 48.449 33.7765 48.5495C34.5327 48.7716 39.0893 48.9823 40.0333 49.0237C40.1434 49.029 40.2519 48.9902 40.3347 48.917C40.6749 48.6174 41.5854 47.7995 41.8718 47.394C42.8105 46.0685 42.7443 45.6675 42.7443 45.6675ZM38.0775 48.1247L33.7315 47.4205L33.9025 45.0399L39.8068 45.5758L38.0775 48.1247Z" fill="black"/>
</g>
<g id="Group_114" opacity="0.3">
<path id="Vector_86" d="M32.6705 39.556C32.6705 39.556 32.2254 40.9081 35.0546 41.5373C37.919 42.1746 42.1575 43.3292 42.1575 43.3292L39.881 41.7066C39.881 41.7066 33.3324 40.6146 33.1694 39.6125C32.9825 38.4667 33.1685 37.179 33.1685 37.179L32.6705 39.556Z" fill="black"/>
</g>
<g id="Group_115">
<g id="Group_116">
<path id="Vector_87" d="M43.7217 45.627C43.7217 45.6278 43.7112 45.6261 43.6909 45.6208C43.668 45.6155 43.6389 45.6085 43.601 45.5996C43.5199 45.5794 43.4045 45.5503 43.2573 45.5133C42.9585 45.4401 42.5266 45.3326 41.989 45.2145C40.9155 44.9739 39.4233 44.6795 37.7664 44.4098C36.9379 44.2758 36.1473 44.1516 35.4255 44.0573C35.065 44.0079 34.723 43.9612 34.4022 43.9171C34.0823 43.8722 33.7826 43.829 33.5094 43.836C33.237 43.8422 32.9894 43.9057 32.814 44.0343C32.6368 44.1586 32.5134 44.3049 32.4315 44.4336C32.2675 44.6954 32.2693 44.8778 32.2605 44.8734C32.2605 44.8734 32.2605 44.8302 32.279 44.7509C32.2966 44.6716 32.3354 44.5561 32.4165 44.4239C32.4967 44.2917 32.6192 44.1419 32.799 44.0132C32.977 43.8783 33.2318 43.8105 33.5076 43.8034C33.7853 43.7946 34.0858 43.836 34.4057 43.8792C34.7266 43.9215 35.0694 43.9674 35.4299 44.0158C36.1517 44.1075 36.9432 44.23 37.7725 44.3649C39.4304 44.6345 40.9225 44.9333 41.9943 45.1828C42.531 45.3053 42.962 45.4181 43.2599 45.4965C43.4062 45.5371 43.5208 45.5688 43.6019 45.5917C43.6389 45.6023 43.668 45.6111 43.69 45.6173C43.7121 45.6226 43.7217 45.6261 43.7217 45.627Z" fill="#263238"/>
</g>
</g>
<g id="Group_117">
<g id="Group_118">
<path id="Vector_88" d="M32.3109 42.1313C32.3091 42.1313 32.3073 42.1137 32.3064 42.0811C32.3056 42.0432 32.3038 41.9956 32.302 41.9365C32.2994 41.8114 32.2985 41.6298 32.3012 41.4051C32.3064 40.9565 32.3311 40.3369 32.3911 39.6547C32.4519 38.9725 32.5374 38.3582 32.6105 37.9158C32.6475 37.6945 32.6801 37.5156 32.7048 37.3931C32.7172 37.3358 32.7269 37.2891 32.7348 37.2521C32.7418 37.2195 32.7462 37.2027 32.748 37.2036C32.7498 37.2036 32.748 37.2212 32.7436 37.2538C32.7383 37.2917 32.7313 37.3385 32.7224 37.3966C32.7022 37.5271 32.6757 37.7042 32.6422 37.921C32.577 38.3644 32.4968 38.9778 32.436 39.6591C32.3761 40.3395 32.3461 40.9582 32.3329 41.406C32.3276 41.6254 32.3223 41.8052 32.3188 41.9365C32.317 41.9947 32.3153 42.0432 32.3144 42.0811C32.3144 42.1137 32.3126 42.1313 32.3109 42.1313Z" fill="#263238"/>
</g>
</g>
<g id="Group_119">
<g id="Group_120">
<path id="Vector_89" d="M34.2787 36.0412C34.2752 36.0412 34.2743 36.0024 34.2752 35.9328C34.2743 35.8975 34.2761 35.8552 34.2832 35.8059C34.2893 35.7565 34.292 35.7001 34.3034 35.6384C34.3404 35.3916 34.4233 35.0567 34.5379 34.6945C34.6516 34.3322 34.7741 34.0105 34.8666 33.7796C34.9133 33.6642 34.953 33.5716 34.9812 33.5082C35.0103 33.4447 35.0279 33.4103 35.0305 33.4121C35.0332 33.413 35.0217 33.45 34.9979 33.5152C34.9706 33.5892 34.9371 33.6818 34.8966 33.7911C34.8111 34.0246 34.6947 34.3472 34.5811 34.7077C34.4674 35.0682 34.3792 35.4005 34.3352 35.6437C34.2893 35.887 34.2876 36.0412 34.2787 36.0412Z" fill="#263238"/>
</g>
</g>
<g id="Group_121">
<path id="Vector_90" d="M34.813 36.6581C34.813 36.6581 33.3385 36.1205 33.1499 37.2636C32.9613 38.4067 32.9807 39.5446 33.2283 39.9438C33.476 40.3439 35.7525 40.8886 35.7525 40.8886L39.6896 41.7541C39.6896 41.7541 39.9725 41.8132 39.8024 41.4924C39.6112 41.1336 38.5685 38.8333 37.9657 38.2745C36.8534 37.2433 34.813 36.6581 34.813 36.6581Z" fill="#F5F5F5"/>
</g>
<g id="Group_122" opacity="0.3">
<path id="Vector_91" d="M36.2656 41.0024C36.2656 41.0024 36.2718 38.3081 36.0743 38.0093C35.8769 37.7105 33.5563 36.6361 33.5563 36.6361C33.5563 36.6361 33.7819 36.444 34.2455 36.5321C34.7091 36.6202 35.4803 36.83 36.1202 37.1588C36.7609 37.4875 37.7859 37.9582 38.1685 38.5028C38.335 38.739 38.6832 39.3049 39.0154 39.9183C39.4473 40.7159 39.8563 41.5691 39.8563 41.6158C39.8563 41.7136 39.8792 41.8027 39.4967 41.7216C38.6109 41.5312 36.2656 41.0024 36.2656 41.0024Z" fill="black"/>
</g>
<g id="Group_123">
<g id="Group_124">
<g id="Group_125">
<path id="Vector_92" d="M37.5485 40.759C38.0762 40.759 38.5039 40.3313 38.5039 39.8036C38.5039 39.276 38.0762 38.8482 37.5485 38.8482C37.0209 38.8482 36.5931 39.276 36.5931 39.8036C36.5931 40.3313 37.0209 40.759 37.5485 40.759Z" fill="#F5F5F5"/>
</g>
<g id="Group_126">
<g id="Group_127">
<path id="Vector_93" d="M38.504 39.8037C38.4978 39.8046 38.5031 39.7182 38.4652 39.5728C38.4282 39.43 38.3321 39.2193 38.1171 39.0572C38.0104 38.9779 37.8765 38.9109 37.7222 38.8844C37.5689 38.8589 37.3961 38.8642 37.2313 38.9267C37.1485 38.9558 37.0683 38.999 36.9951 39.0545C36.9211 39.1083 36.8532 39.1753 36.7986 39.2528C36.684 39.4053 36.6196 39.6019 36.6179 39.8037C36.6196 40.0055 36.684 40.2021 36.7986 40.3545C36.8541 40.4321 36.9211 40.4991 36.996 40.5528C37.0691 40.6075 37.1493 40.6516 37.2322 40.6806C37.397 40.7432 37.5698 40.7485 37.7231 40.723C37.8773 40.6965 38.0113 40.6286 38.118 40.5493C38.333 40.3872 38.4291 40.1774 38.4661 40.0337C38.5031 39.8883 38.4978 39.8028 38.504 39.8037C38.504 39.8037 38.5155 39.8892 38.4828 40.039C38.4502 40.1862 38.3568 40.4048 38.1365 40.5758C38.0272 40.6595 37.8888 40.7309 37.7284 40.7609C37.5689 40.7891 37.3882 40.7855 37.2163 40.7212C37.13 40.6912 37.0453 40.6463 36.9687 40.589C36.8911 40.5326 36.8197 40.4629 36.7615 40.3819C36.6408 40.2223 36.5729 40.0161 36.5712 39.8037C36.5729 39.5913 36.6417 39.3859 36.7615 39.2264C36.8197 39.1453 36.8911 39.0757 36.9687 39.0193C37.0453 38.962 37.1291 38.917 37.2163 38.8871C37.3891 38.8227 37.5689 38.8183 37.7284 38.8474C37.8888 38.8774 38.0272 38.9488 38.1365 39.0325C38.3568 39.2035 38.4502 39.4221 38.4828 39.5692C38.5155 39.7182 38.504 39.8037 38.504 39.8037Z" fill="#263238"/>
</g>
</g>
</g>
<g id="Group_128">
<path id="Vector_94" d="M37.5486 39.7623C37.8994 39.7623 38.2043 39.9571 38.3621 40.2435C38.4353 40.1104 38.4767 39.9588 38.4767 39.7967C38.4767 39.2837 38.0607 38.8677 37.5477 38.8677C37.0348 38.8677 36.6188 39.2837 36.6188 39.7967C36.6188 39.9588 36.6602 40.1113 36.7334 40.2435C36.8929 39.9571 37.1978 39.7623 37.5486 39.7623Z" fill="#E0E0E0"/>
</g>
<g id="Group_129">
<g id="Group_130">
<path id="Vector_95" d="M37.9603 39.7719C37.9603 39.9993 37.7761 40.1835 37.5487 40.1835C37.3213 40.1835 37.1371 39.9993 37.1371 39.7719C37.1371 39.5445 37.3213 39.3603 37.5487 39.3603C37.7761 39.3603 37.9603 39.5445 37.9603 39.7719Z" fill="white"/>
</g>
<g id="Group_131">
<g id="Group_132">
<path id="Vector_96" d="M37.9605 39.772C37.9561 39.772 37.957 39.735 37.9394 39.6733C37.9217 39.6125 37.8803 39.5244 37.7886 39.4574C37.7005 39.3895 37.556 39.3525 37.4167 39.4054C37.2783 39.4539 37.1593 39.6002 37.1611 39.772C37.1593 39.9439 37.2783 40.0911 37.4167 40.1387C37.556 40.1907 37.7005 40.1537 37.7886 40.0858C37.8803 40.0188 37.9217 39.9307 37.9394 39.8699C37.9561 39.809 37.9561 39.772 37.9605 39.772C37.9623 39.772 37.9632 39.7808 37.964 39.7985C37.9649 39.8161 37.9632 39.8417 37.9561 39.8743C37.9438 39.9386 37.9041 40.0356 37.808 40.1114C37.7155 40.188 37.5568 40.2339 37.4017 40.1775C37.2475 40.1263 37.1126 39.9633 37.1144 39.7711C37.1126 39.579 37.2475 39.4151 37.4017 39.3648C37.5568 39.3093 37.7155 39.3551 37.808 39.4309C37.9041 39.5076 37.9438 39.6037 37.957 39.668C37.964 39.7006 37.9658 39.7271 37.9649 39.7438C37.9631 39.7632 37.9623 39.772 37.9605 39.772Z" fill="#263238"/>
</g>
</g>
</g>
<g id="Group_133">
<g id="Group_134">
<path id="Vector_97" d="M37.909 39.1258C37.8922 39.1549 37.8059 39.1293 37.6754 39.1214C37.5459 39.1117 37.3661 39.1258 37.2012 39.2131C37.0373 39.3012 36.9245 39.4422 36.8602 39.555C36.7941 39.6679 36.7667 39.7534 36.7332 39.7516C36.7042 39.7516 36.6715 39.6538 36.7086 39.496C36.7438 39.3426 36.8654 39.132 37.0928 39.0104C37.3202 38.8896 37.5635 38.9064 37.7107 38.9628C37.8623 39.0192 37.9248 39.1011 37.909 39.1258Z" fill="white"/>
</g>
</g>
<g id="Group_135">
<g id="Group_136">
<path id="Vector_98" d="M38.1478 39.2775C38.0958 39.3137 38.0474 39.3348 38.0386 39.3269C38.0297 39.3181 38.05 39.2696 38.0844 39.2167C38.1188 39.1638 38.1716 39.1365 38.1981 39.1621C38.2254 39.1876 38.1998 39.2414 38.1478 39.2775Z" fill="white"/>
</g>
</g>
</g>
<g id="Group_137">
<g id="Group_138">
<path id="Vector_99" d="M52.5856 36.7992C52.5856 36.8001 52.5732 36.801 52.5477 36.8019C52.5203 36.8027 52.4842 36.8027 52.4366 36.8036C52.337 36.8045 52.1942 36.8054 52.0109 36.8071C51.639 36.808 51.104 36.8107 50.4447 36.8124C49.12 36.8124 47.2947 36.8133 45.2782 36.8133C44.269 36.8116 43.3083 36.8098 42.4331 36.808C41.996 36.8071 41.5808 36.8054 41.1922 36.8045C40.9974 36.8036 40.8105 36.8027 40.6299 36.8027C40.4509 36.7913 40.2808 36.8415 40.153 36.9411C39.9001 37.1535 39.6718 37.3457 39.4709 37.5149C39.3704 37.5995 39.2761 37.6779 39.1897 37.7502C39.0989 37.8198 39.0011 37.8621 38.9103 37.8842C38.8195 37.9062 38.7349 37.908 38.6644 37.9027C38.5939 37.8992 38.534 37.8956 38.4846 37.893C38.4379 37.8903 38.4009 37.8877 38.3744 37.8859C38.3498 37.8842 38.3365 37.8833 38.3365 37.8824C38.3365 37.8815 38.3498 37.8815 38.3744 37.8815C38.4018 37.8824 38.4379 37.8824 38.4855 37.8833C38.5349 37.8851 38.5948 37.8859 38.6653 37.8886C38.7367 37.893 38.8178 37.8895 38.9068 37.8665C38.9949 37.8436 39.0892 37.8013 39.1765 37.7326C39.262 37.6594 39.3545 37.5801 39.4541 37.4955C39.6542 37.3245 39.8816 37.1306 40.1336 36.9156C40.2659 36.8098 40.4492 36.756 40.6307 36.7675C40.8114 36.7675 40.9991 36.7666 41.193 36.7666C41.5817 36.7666 41.9969 36.7657 42.434 36.7657C43.3083 36.7666 44.2699 36.7666 45.2791 36.7675C47.2956 36.7728 49.1209 36.7772 50.4456 36.7798C51.1049 36.7834 51.6399 36.7869 52.0118 36.7886C52.1951 36.7904 52.3379 36.7922 52.4375 36.793C52.4842 36.7939 52.5212 36.7948 52.5485 36.7957C52.5723 36.7975 52.5856 36.7983 52.5856 36.7992Z" fill="#263238"/>
</g>
</g>
<g id="Group_139">
<path id="Vector_100" d="M71.059 49.3621C71.0115 49.2625 70.911 49.1911 70.7127 49.2132C70.1618 49.2757 64.3871 49.4044 63.5921 49.2132C62.7963 49.0219 60.1451 46.0129 59.0231 45.8084C58.0818 45.6366 53.5049 45.5449 52.0542 45.5863C50.6026 45.544 46.0257 45.6366 45.0853 45.8084C43.9633 46.0138 41.3518 49.3163 40.5559 49.5075C39.7601 49.6988 33.9457 49.2757 33.3948 49.2132C33.1957 49.1902 33.0952 49.2616 33.0485 49.3621C32.9506 49.5692 33.1093 49.8081 33.3393 49.8151C34.5688 49.8495 39.3185 49.9041 40.2069 49.8883C41.1394 49.8715 50.674 49.697 52.2719 49.6679C54.6807 49.6829 62.9108 49.7358 63.7825 49.7481C64.8102 49.7622 69.5413 49.8495 70.7717 49.8151C70.9982 49.8081 71.1569 49.5692 71.059 49.3621Z" fill="#263238"/>
</g>
<g id="Group_140">
<path id="Vector_101" d="M50.4343 26.1303C50.4819 26.1303 50.6247 26.9596 51.2937 26.9438C51.9626 26.9279 53.5958 26.9438 53.5958 26.9438V25.9073L50.4343 26.1303Z" fill="#263238"/>
</g>
<g id="Group_141">
<path id="Vector_102" d="M31.4893 32.6161C31.2857 32.6003 31.1368 32.4161 31.1659 32.2133C31.2558 31.5814 31.5872 30.3528 32.8078 30.1712C33.8884 30.0099 34.6728 30.0593 35.0871 30.1131C35.2765 30.1377 35.3709 30.3096 35.3929 30.5C35.4969 31.369 35.4132 32.4469 35.162 32.5791C34.9002 32.7166 32.3804 32.6858 31.4893 32.6161Z" fill="#FF725E"/>
</g>
<g id="Group_142">
<g id="Group_143">
<path id="Vector_103" d="M39.9372 25.9073C39.9381 25.9073 39.9346 25.9143 39.9284 25.9284C39.9205 25.9443 39.9108 25.9637 39.8985 25.9866C39.8694 26.0412 39.8297 26.1153 39.7795 26.2096C39.6728 26.4061 39.5212 26.6838 39.3344 27.0266C38.9536 27.7167 38.4301 28.6651 37.8519 29.7121C37.3778 30.5635 36.9397 31.3488 36.5916 31.9746L36.5898 31.9781L36.5872 31.9808C36.1668 32.3042 35.8213 32.5695 35.5763 32.7572C35.4573 32.8471 35.363 32.9185 35.296 32.9688C35.2651 32.9908 35.2413 33.0093 35.2219 33.0234C35.2052 33.0357 35.1964 33.041 35.1955 33.0401C35.1946 33.0393 35.2026 33.0322 35.2184 33.019C35.2369 33.004 35.2598 32.9846 35.2889 32.9608C35.355 32.9079 35.4467 32.8339 35.563 32.7414C35.8045 32.551 36.1474 32.2804 36.5634 31.9525L36.559 31.9578C36.9053 31.3312 37.3407 30.5441 37.8114 29.691C38.394 28.6466 38.9219 27.7 39.3062 27.0116C39.4983 26.6723 39.6534 26.3964 39.7636 26.2025C39.8174 26.11 39.8597 26.0368 39.8896 25.984C39.9037 25.961 39.9143 25.9425 39.9231 25.9275C39.9319 25.9134 39.9364 25.9073 39.9372 25.9073Z" fill="#263238"/>
</g>
</g>
<g id="Group_144">
<g id="Group_145">
<path id="Vector_104" d="M41.5632 25.4102C41.565 25.4172 41.4795 25.4446 41.3447 25.4957C41.2107 25.5477 41.0256 25.6252 40.8511 25.7557C40.6766 25.887 40.5506 26.043 40.4633 26.1567C40.3769 26.2722 40.3267 26.3462 40.3205 26.3427C40.3161 26.34 40.3567 26.2598 40.4369 26.1382C40.5179 26.0183 40.6431 25.8553 40.8238 25.7195C41.0045 25.5847 41.1966 25.5098 41.3341 25.4657C41.4733 25.4216 41.5615 25.4058 41.5632 25.4102Z" fill="#263238"/>
</g>
</g>
<g id="Group_146" opacity="0.3">
<g id="Group_147">
<path id="Vector_105" d="M36.5817 31.972L36.4971 32.0301C36.4628 31.9878 38.5331 36.3268 39.507 37.4717L40.1477 36.9288C38.7666 35.5909 37.7346 33.5117 36.5817 31.972Z" fill="black"/>
</g>
</g>
<g id="Group_148">
<g id="Group_149">
<path id="Vector_106" d="M40.689 49.0316C40.689 49.0298 40.7075 49.0281 40.7374 49.0087C40.7683 48.9902 40.8115 48.9602 40.867 48.9161C40.9772 48.8297 41.1332 48.6949 41.3306 48.5151C41.7237 48.1564 42.2807 47.624 42.9505 46.948C43.118 46.7788 43.2916 46.6008 43.4714 46.4122C43.653 46.2271 43.824 46.0156 44.0434 45.8366C44.2629 45.6604 44.5194 45.5132 44.8014 45.4109C45.0834 45.3078 45.3893 45.247 45.7048 45.2232C45.8626 45.2117 46.023 45.2117 46.1834 45.21C46.3447 45.2082 46.5077 45.2065 46.6725 45.2056C47.0022 45.2021 47.338 45.1994 47.6808 45.1959C48.3656 45.1897 49.0743 45.1827 49.8005 45.1756C52.7055 45.1518 55.3346 45.1298 57.2401 45.1139C58.1911 45.1086 58.9605 45.1033 59.4946 45.1007C59.7599 45.0998 59.9662 45.0998 60.1072 45.0998C60.1759 45.0998 60.2288 45.1007 60.2667 45.1007C60.3028 45.1016 60.3213 45.1025 60.3213 45.1025C60.3213 45.1025 60.3028 45.1042 60.2667 45.1051C60.2288 45.106 60.1759 45.1069 60.1072 45.1086C59.9653 45.1113 59.759 45.1139 59.4946 45.1183C58.9605 45.1254 58.1911 45.1342 57.2401 45.1465C55.3346 45.1659 52.7055 45.1924 49.8005 45.2214C49.0743 45.2276 48.3656 45.2347 47.6808 45.2408C47.3389 45.2435 47.0022 45.247 46.6725 45.2496C46.5077 45.2514 46.3447 45.2523 46.1834 45.2541C46.0221 45.2558 45.8635 45.2558 45.7075 45.2664C45.3954 45.2902 45.0931 45.3492 44.8155 45.4497C44.537 45.5502 44.284 45.6939 44.0672 45.8675C43.8513 46.042 43.6794 46.2526 43.4961 46.4377C43.3163 46.6255 43.1409 46.8026 42.9735 46.9718C42.301 47.6461 41.7404 48.1749 41.3429 48.5301C41.1437 48.7072 40.986 48.8403 40.8732 48.9249C40.8176 48.9672 40.7727 48.9972 40.741 49.0139C40.7084 49.0307 40.689 49.0316 40.689 49.0316Z" fill="#263238"/>
</g>
</g>
<g id="Group_150" opacity="0.3">
<g id="Group_151">
<path id="Vector_107" d="M35.9411 43.776C35.6687 43.5064 35.3938 43.2349 35.0703 43.0304C34.7468 42.8259 34.2815 42.5862 33.988 42.7766C33.839 42.9388 33.7192 43.1265 33.6337 43.3283C33.6046 43.3971 33.5799 43.4781 33.6125 43.5451C33.6539 43.6289 33.7606 43.65 33.8531 43.6615C34.5274 43.7461 35.2016 43.8307 35.8767 43.9162C35.9155 43.9215 35.9649 43.9215 35.9834 43.8871C36.0045 43.8492 35.971 43.806 35.9411 43.776Z" fill="white"/>
</g>
</g>
<g id="Group_152">
<g id="Group_153" opacity="0.3">
<g id="Group_154">
<path id="Vector_108" d="M43.8257 42.4955C48.9887 43.8705 54.4435 43.525 59.751 42.9124C60.5707 42.8181 61.4618 42.6815 62.0206 42.0751" fill="black"/>
</g>
</g>
<g id="Group_155">
<path id="Vector_109" d="M63.0686 37.7353C61.0521 37.4506 56.8127 37.3087 52.6042 37.3114C48.3957 37.3087 44.1554 37.4506 42.1398 37.7353C41.5078 37.8243 41.0962 38.4519 41.2769 39.0644C41.2787 39.0715 41.2813 39.0785 41.2831 39.0864C41.5034 39.8109 42.3733 42.1227 43.7579 42.4691C44.4004 42.6295 48.0211 42.7838 51.885 42.8155V42.8208C52.1247 42.8208 52.3645 42.8208 52.6042 42.819C52.8439 42.8199 53.0836 42.8208 53.3234 42.8208V42.8155C57.1864 42.7846 60.8079 42.6295 61.4504 42.4691C62.8359 42.1227 63.705 39.8109 63.9253 39.0864C63.9271 39.0794 63.9297 39.0723 63.9315 39.0644C64.1113 38.4527 63.7006 37.8252 63.0686 37.7353Z" fill="#263238"/>
</g>
<g id="Group_156">
<g id="Group_157">
<path id="Vector_110" d="M63.5787 42.1631C63.5787 42.1631 63.5611 42.1737 63.5259 42.1922C63.4888 42.2116 63.436 42.238 63.3681 42.2742C63.2976 42.3103 63.2121 42.3535 63.1098 42.4055C63.0587 42.4311 63.0041 42.4602 62.9442 42.4875C62.8842 42.5139 62.8199 42.543 62.752 42.573C62.2135 42.8242 61.4071 43.1353 60.3794 43.4085C59.35 43.6747 58.1002 43.9021 56.6988 44.021C55.2983 44.1506 53.7515 44.1788 52.1307 44.1726C50.509 44.1647 48.9622 44.0916 47.567 43.9065C46.1727 43.7258 44.9344 43.4341 43.9261 43.0956C42.916 42.7616 42.1369 42.387 41.6143 42.1041C41.4821 42.0353 41.3693 41.9675 41.2697 41.9102C41.1701 41.8538 41.0881 41.8027 41.022 41.7612C40.9568 41.7198 40.9065 41.689 40.8713 41.6669C40.8378 41.6458 40.821 41.6334 40.821 41.6334C40.821 41.6334 40.8396 41.6431 40.8739 41.6634C40.9101 41.6845 40.9603 41.7145 41.0273 41.7542C41.0943 41.7947 41.1771 41.8441 41.2776 41.8996C41.3772 41.9551 41.4909 42.0221 41.624 42.0891C42.1484 42.3667 42.9275 42.736 43.9375 43.0656C44.9449 43.3988 46.1815 43.687 47.5741 43.865C48.9666 44.0475 50.5116 44.1198 52.1325 44.1268C53.7524 44.1339 55.2983 44.1065 56.6962 43.9796C58.0949 43.8624 59.3438 43.6394 60.3723 43.3776C61.4 43.1088 62.2056 42.803 62.7458 42.5571C62.8137 42.528 62.8781 42.4998 62.9389 42.4743C62.9988 42.4478 63.0534 42.4187 63.1046 42.394C63.2068 42.3438 63.2941 42.3015 63.3646 42.2671C63.4342 42.2336 63.4871 42.2081 63.525 42.1896C63.5593 42.1702 63.5787 42.1631 63.5787 42.1631Z" fill="#263238"/>
</g>
</g>
<g id="Group_158">
<g id="Group_159">
<path id="Vector_111" d="M63.8274 38.8617C63.8274 38.874 58.7931 38.8846 52.583 38.8846C46.3711 38.8846 41.3376 38.874 41.3376 38.8617C41.3376 38.8493 46.3711 38.8388 52.583 38.8388C58.7922 38.8388 63.8274 38.8493 63.8274 38.8617Z" fill="#455A64"/>
</g>
</g>
<g id="Group_160">
<g id="Group_161">
<path id="Vector_112" d="M63.8274 38.1768C63.8274 38.1891 58.7931 38.1997 52.583 38.1997C46.3711 38.1997 41.3376 38.1891 41.3376 38.1768C41.3376 38.1645 46.3711 38.1539 52.583 38.1539C58.7922 38.1539 63.8274 38.1636 63.8274 38.1768Z" fill="#455A64"/>
</g>
</g>
<g id="Group_162">
<g id="Group_163">
<path id="Vector_113" d="M60.6449 37.4911C60.6449 37.5035 57.041 37.5141 52.5962 37.5141C48.1506 37.5141 44.5468 37.5035 44.5468 37.4911C44.5468 37.4788 48.1498 37.4682 52.5962 37.4682C57.041 37.4682 60.6449 37.4788 60.6449 37.4911Z" fill="#455A64"/>
</g>
</g>
<g id="Group_164">
<g id="Group_165">
<path id="Vector_114" d="M63.8274 39.5561C63.8274 39.5685 58.7931 39.579 52.583 39.579C46.3711 39.579 41.3376 39.5685 41.3376 39.5561C41.3376 39.5438 46.3711 39.5332 52.583 39.5332C58.7922 39.5332 63.8274 39.5429 63.8274 39.5561Z" fill="#455A64"/>
</g>
</g>
<g id="Group_166">
<g id="Group_167">
<path id="Vector_115" d="M63.3276 40.2507C63.3276 40.263 58.4933 40.2736 52.5309 40.2736C46.5667 40.2736 41.7333 40.263 41.7333 40.2507C41.7333 40.2383 46.5667 40.2277 52.5309 40.2277C58.4933 40.2277 63.3276 40.2374 63.3276 40.2507Z" fill="#455A64"/>
</g>
</g>
<g id="Group_168">
<g id="Group_169">
<path id="Vector_116" d="M63.1089 40.9451C63.1089 40.9574 58.405 40.968 52.6039 40.968C46.801 40.968 42.098 40.9574 42.098 40.9451C42.098 40.9327 46.801 40.9221 52.6039 40.9221C58.405 40.9221 63.1089 40.9318 63.1089 40.9451Z" fill="#455A64"/>
</g>
</g>
<g id="Group_170">
<g id="Group_171">
<path id="Vector_117" d="M62.5662 41.6387C62.5662 41.6511 58.1047 41.6616 52.6032 41.6616C47.0991 41.6616 42.6394 41.6511 42.6394 41.6387C42.6394 41.6264 47.1 41.6158 52.6032 41.6158C58.1047 41.6158 62.5662 41.6264 62.5662 41.6387Z" fill="#455A64"/>
</g>
</g>
<g id="Group_172">
<g id="Group_173">
<path id="Vector_118" d="M61.8909 42.3333C61.8909 42.3457 57.7573 42.3562 52.6595 42.3562C47.56 42.3562 43.4272 42.3457 43.4272 42.3333C43.4272 42.321 47.56 42.3104 52.6595 42.3104C57.7573 42.3104 61.8909 42.321 61.8909 42.3333Z" fill="#455A64"/>
</g>
</g>
</g>
<g id="Group_174">
<path id="Vector_119" d="M35.4255 49.5295C35.4264 49.5313 35.4264 49.5339 35.4273 49.5357C35.4705 49.6855 35.3577 49.853 35.2017 49.8485L33.7368 49.8239C33.6223 49.8212 33.5271 49.7075 33.513 49.5938L33.5033 49.5127C33.4856 49.3682 33.6196 49.236 33.7642 49.2466L35.2175 49.3532C35.3136 49.3603 35.3982 49.4352 35.4255 49.5295Z" fill="white"/>
</g>
<g id="Group_175">
<g id="Group_176">
<path id="Vector_120" d="M62.7567 48.6756C62.7567 48.6879 58.0326 48.6985 52.2068 48.6985C46.3792 48.6985 41.656 48.6879 41.656 48.6756C41.656 48.6632 46.3792 48.6527 52.2068 48.6527C58.0326 48.6527 62.7567 48.6632 62.7567 48.6756Z" fill="#455A64"/>
</g>
</g>
<g id="Group_177">
<path id="Vector_121" d="M46.3068 49.4451H45.6881L45.644 48.6757H46.3535L46.3068 49.4451Z" fill="#455A64"/>
</g>
<g id="Group_178">
<path id="Vector_122" d="M52.0949 49.4451H51.4762L51.4321 48.6757H52.1416L52.0949 49.4451Z" fill="#455A64"/>
</g>
<g id="Group_179">
<path id="Vector_123" d="M57.8818 49.4451H57.263L57.2198 48.6757H57.9285L57.8818 49.4451Z" fill="#455A64"/>
</g>
<g id="Group_180">
<path id="Vector_124" d="M62.4296 48.3979C61.3102 47.4337 59.8022 45.9503 59.0266 45.8084C58.0853 45.6366 53.5084 45.5449 52.0577 45.5863C50.6061 45.544 46.0292 45.6366 45.0887 45.8084C44.3669 45.9407 43.0281 47.3552 41.9537 48.3979C48.7781 48.3979 55.6034 48.3979 62.4296 48.3979Z" fill="#455A64"/>
</g>
<g id="Group_181">
<g id="Group_182">
<path id="Vector_125" d="M32.643 47.8929C32.6421 47.892 32.6588 47.877 32.6915 47.8488C32.7276 47.8188 32.7761 47.7783 32.8378 47.7272C32.97 47.6205 33.1568 47.468 33.3904 47.2786L33.3948 47.275L33.4009 47.2759C34.1272 47.3649 35.221 47.4998 36.4443 47.6496C37.0392 47.7254 37.6042 47.7968 38.1074 47.8603L38.1118 47.8611L38.1154 47.8629C38.7235 48.1969 39.2391 48.4807 39.6058 48.6826C39.7838 48.7822 39.9266 48.8624 40.0279 48.9188C40.0738 48.9452 40.1108 48.9664 40.139 48.9831C40.1637 48.9981 40.1769 49.006 40.176 49.0069C40.1751 49.0078 40.1619 49.0016 40.1354 48.9884C40.1064 48.9734 40.0685 48.954 40.0209 48.9302C39.9178 48.8756 39.7741 48.7998 39.5934 48.7046C39.2241 48.5063 38.7059 48.2278 38.0951 47.899L38.1021 47.9017C37.5989 47.8391 37.0339 47.7686 36.439 47.6954C35.2166 47.5386 34.1228 47.3984 33.3974 47.3059L33.4089 47.3023C33.1718 47.4874 32.9823 47.6355 32.8483 47.7404C32.7849 47.7889 32.7346 47.8268 32.6976 47.8558C32.6624 47.8805 32.6439 47.8937 32.643 47.8929Z" fill="#263238"/>
</g>
</g>
<g id="Group_183">
<path id="Vector_126" d="M40.1759 46.2095C40.1759 46.2095 40.4756 45.7036 40.1759 45.5758C39.8322 45.4295 34.0928 44.7412 33.8592 44.72C33.3938 44.6786 33.2246 44.8892 33.1153 45.4357C33.006 45.9821 32.7654 47.3377 33.2246 47.7316C33.6838 48.1256 34.4057 48.3001 35.8264 48.3874C37.2481 48.4746 37.9954 48.5231 38.6953 48.1291C39.3951 47.7369 40.1759 46.2095 40.1759 46.2095Z" fill="#263238"/>
</g>
<g id="Group_184">
<g id="Group_185">
<path id="Vector_127" d="M39.8816 41.7058C39.8666 41.7119 39.7864 41.5639 39.6472 41.2933C39.5079 41.0227 39.3105 40.6296 39.054 40.1519C38.9236 39.914 38.7817 39.6531 38.6168 39.3816C38.452 39.111 38.2713 38.822 38.0528 38.547C37.9408 38.4104 37.8271 38.2817 37.6852 38.1653C37.5451 38.0481 37.3926 37.9441 37.2269 37.8489C37.0612 37.7537 36.8841 37.6621 36.706 37.5669C36.528 37.4726 36.3464 37.3783 36.1622 37.2875C35.7929 37.1051 35.4254 36.9473 35.0588 36.8309C34.8754 36.7728 34.693 36.7252 34.5123 36.6873C34.3316 36.6476 34.1571 36.6212 33.9906 36.6265C33.8257 36.6326 33.6706 36.6741 33.5516 36.7596C33.4335 36.8451 33.3507 36.972 33.2952 37.1112C33.2379 37.2496 33.2035 37.3968 33.1709 37.5396C33.14 37.6832 33.1083 37.8251 33.0766 37.9573C32.9506 38.4844 32.8483 38.9118 32.7769 39.2106C32.7064 39.5068 32.6668 39.6698 32.65 39.6681C32.635 39.6654 32.6447 39.4962 32.6888 39.1939C32.732 38.8916 32.8113 38.4571 32.9179 37.923C32.9435 37.789 32.9699 37.6497 32.9973 37.5043C33.0263 37.3571 33.0572 37.2011 33.118 37.0407C33.1771 36.8821 33.2749 36.7164 33.4318 36.5965C33.5895 36.4784 33.7878 36.4246 33.9809 36.4149C34.1748 36.4053 34.3687 36.4335 34.5555 36.4722C34.7441 36.5101 34.9345 36.5577 35.1249 36.6168C35.5065 36.7349 35.8864 36.8971 36.2618 37.0821C36.4496 37.1747 36.6329 37.2699 36.8118 37.3659C36.9898 37.462 37.1661 37.5537 37.3397 37.655C37.5125 37.7564 37.6782 37.871 37.8254 37.9979C37.9743 38.1221 38.1048 38.2729 38.2176 38.4156C38.4423 38.7083 38.6186 39.0053 38.779 39.2847C38.9394 39.5649 39.0734 39.832 39.1959 40.077C39.4356 40.5679 39.6119 40.9734 39.7265 41.2563C39.8428 41.5392 39.8957 41.6996 39.8816 41.7058Z" fill="#263238"/>
</g>
</g>
<g id="Group_186">
<g id="Group_187">
<path id="Vector_128" d="M34.7024 38.8175C35.1493 38.8175 35.538 39.0651 35.7389 39.4309C35.8324 39.2617 35.8852 39.0678 35.8852 38.8615C35.8852 38.2084 35.3555 37.6787 34.7024 37.6787C34.0494 37.6787 33.5197 38.2084 33.5197 38.8615C33.5197 39.0678 33.5725 39.2617 33.666 39.4309C33.8669 39.0651 34.2556 38.8175 34.7024 38.8175Z" fill="#E0E0E0"/>
</g>
<g id="Group_188">
<g id="Group_189">
<path id="Vector_129" d="M34.7027 39.3322C34.984 39.3322 35.2121 39.1041 35.2121 38.8228C35.2121 38.5414 34.984 38.3134 34.7027 38.3134C34.4213 38.3134 34.1932 38.5414 34.1932 38.8228C34.1932 39.1041 34.4213 39.3322 34.7027 39.3322Z" fill="white"/>
</g>
<g id="Group_190">
<g id="Group_191">
<path id="Vector_130" d="M35.212 38.8227C35.2076 38.8227 35.2084 38.7769 35.1873 38.7002C35.1661 38.6244 35.1141 38.5142 35.0004 38.4305C34.8903 38.3459 34.7096 38.2983 34.5351 38.3635C34.3623 38.4235 34.2125 38.6077 34.2151 38.8227C34.2134 39.0378 34.3623 39.222 34.5351 39.2819C34.7096 39.3471 34.8903 39.3004 35.0004 39.2149C35.1141 39.1303 35.1661 39.0201 35.1873 38.9452C35.2084 38.8677 35.2076 38.8227 35.212 38.8227C35.2137 38.8227 35.2146 38.8342 35.2146 38.8553C35.2155 38.8765 35.2128 38.9091 35.204 38.9487C35.1873 39.0281 35.1388 39.147 35.0198 39.2405C34.9053 39.3339 34.7114 39.3894 34.521 39.3207C34.4267 39.2881 34.3377 39.2246 34.2733 39.1365C34.2072 39.0492 34.1702 38.9373 34.1693 38.8218C34.1702 38.7064 34.2072 38.5944 34.2733 38.5072C34.3377 38.419 34.4276 38.3556 34.521 38.323C34.7114 38.2542 34.9053 38.3098 35.0198 38.4032C35.1388 38.4966 35.1873 38.6156 35.204 38.6949C35.2128 38.7355 35.2155 38.7672 35.2146 38.7883C35.2146 38.8112 35.2137 38.8227 35.212 38.8227Z" fill="#263238"/>
</g>
</g>
</g>
<g id="Group_192">
<g id="Group_193">
<path id="Vector_131" d="M35.8845 38.8615C35.8774 38.8624 35.8853 38.7558 35.8386 38.5751C35.7928 38.3979 35.6747 38.1362 35.4076 37.9344C35.2754 37.8356 35.1089 37.7519 34.9167 37.7184C34.7264 37.6858 34.5113 37.6929 34.3059 37.7704C34.2028 37.8066 34.1032 37.8603 34.0125 37.9291C33.9199 37.996 33.8362 38.0789 33.7674 38.1758C33.6247 38.3662 33.5444 38.6095 33.5418 38.8615C33.5444 39.1127 33.6247 39.3578 33.7674 39.5472C33.8362 39.6433 33.9199 39.727 34.0125 39.794C34.1041 39.8628 34.2028 39.9165 34.3059 39.9527C34.5104 40.0311 34.7255 40.0373 34.9167 40.0047C35.1089 39.9712 35.2754 39.8875 35.4076 39.7887C35.6747 39.5869 35.7937 39.326 35.8386 39.148C35.8853 38.9673 35.8783 38.8607 35.8845 38.8615C35.8862 38.8615 35.8862 38.8871 35.8853 38.9373C35.8853 38.962 35.8845 38.9929 35.8783 39.029C35.8739 39.0651 35.8695 39.1066 35.8563 39.1524C35.8157 39.334 35.6994 39.6037 35.427 39.8143C35.2922 39.9174 35.1212 40.0056 34.9238 40.0417C34.7272 40.0769 34.5043 40.0717 34.2918 39.9923C34.1852 39.9553 34.0812 39.8998 33.9869 39.8293C33.8908 39.7597 33.8036 39.6742 33.7313 39.5737C33.5823 39.3771 33.4986 39.1224 33.496 38.8615C33.4986 38.5998 33.5823 38.3459 33.7313 38.1494C33.8036 38.0498 33.8908 37.9634 33.9869 37.8938C34.0821 37.8233 34.1852 37.7678 34.2918 37.7308C34.5043 37.6514 34.7272 37.6461 34.9238 37.6814C35.1221 37.7175 35.2931 37.8057 35.427 37.9088C35.6994 38.1194 35.8148 38.3891 35.8563 38.5707C35.8695 38.6165 35.8739 38.658 35.8783 38.6941C35.8845 38.7302 35.8853 38.7611 35.8853 38.7857C35.8871 38.836 35.8862 38.8615 35.8845 38.8615Z" fill="#263238"/>
</g>
</g>
<g id="Group_194">
<g id="Group_195">
<path id="Vector_132" d="M35.1485 38.0225C35.1308 38.0516 35.0268 38.0137 34.8629 37.9978C34.7007 37.9802 34.4698 37.9943 34.2592 38.1062C34.0485 38.219 33.9084 38.4024 33.8326 38.5469C33.7541 38.6923 33.7277 38.7999 33.6942 38.7972C33.666 38.7972 33.6316 38.6774 33.6819 38.4879C33.7286 38.3028 33.8784 38.0498 34.1525 37.9035C34.4266 37.7581 34.7201 37.7748 34.8999 37.8392C35.0832 37.9035 35.1643 37.9987 35.1485 38.0225Z" fill="white"/>
</g>
</g>
<g id="Group_196">
<g id="Group_197">
<path id="Vector_133" d="M35.4446 38.2094C35.3926 38.2455 35.3414 38.2631 35.3291 38.2508C35.3168 38.2385 35.3326 38.1873 35.367 38.1336C35.4014 38.0807 35.4587 38.056 35.4895 38.086C35.5195 38.1159 35.4966 38.1741 35.4446 38.2094Z" fill="white"/>
</g>
</g>
</g>
<g id="Group_198">
<g id="Group_199">
<path id="Vector_134" d="M42.1583 43.3292C42.1424 43.3908 40.5612 43.0436 38.6258 42.5553C36.6903 42.0662 35.1338 41.6202 35.1488 41.5585C35.1647 41.4968 36.7458 41.8432 38.6813 42.3323C40.6168 42.8215 42.1733 43.2675 42.1583 43.3292Z" fill="#263238"/>
</g>
</g>
<g id="Group_200">
<g id="Group_201">
<path id="Vector_135" d="M32.8342 36.8556C32.8333 36.8556 32.8333 36.8459 32.8351 36.8283C32.8368 36.8106 32.8412 36.7833 32.8483 36.749C32.8642 36.6802 32.8924 36.5788 32.9567 36.4599C33.021 36.3426 33.1286 36.2087 33.2934 36.1091C33.3339 36.0835 33.3806 36.065 33.4265 36.0421C33.4758 36.0271 33.5243 36.006 33.5781 35.9954C33.6318 35.9857 33.6856 35.9698 33.7438 35.9681C33.8011 35.9637 33.861 35.9654 33.9209 35.9698C34.1615 35.9892 34.418 36.0474 34.6895 36.1197C34.9609 36.1919 35.2474 36.2827 35.547 36.3858C36.1437 36.5938 36.7924 36.8424 37.4552 37.15C37.538 37.1896 37.6191 37.2293 37.6993 37.2725C37.7804 37.3148 37.8544 37.3703 37.9241 37.425C38.0642 37.5369 38.1902 37.6612 38.2987 37.7969C38.5031 38.0772 38.6838 38.3522 38.8601 38.6148C39.21 39.1401 39.5114 39.6231 39.7555 40.0338C39.9988 40.4445 40.1857 40.783 40.3117 41.0192C40.3751 41.1364 40.4227 41.2289 40.4545 41.2915C40.4695 41.3215 40.4809 41.3444 40.4906 41.3629C40.4985 41.3788 40.5021 41.3876 40.5012 41.3876C40.5003 41.3876 40.495 41.3805 40.4862 41.3647C40.4756 41.347 40.4624 41.3241 40.4465 41.295C40.4104 41.2307 40.3602 41.1408 40.2958 41.0271C40.1654 40.7944 39.9741 40.4586 39.7273 40.0505C39.4806 39.6425 39.1765 39.1621 38.8248 38.6377C38.6486 38.3777 38.4643 38.0983 38.2634 37.8242C38.1568 37.692 38.0325 37.5695 37.895 37.4602C37.8254 37.4064 37.7549 37.3536 37.6764 37.3121C37.598 37.2698 37.5169 37.2302 37.4349 37.1914C36.7757 36.8856 36.127 36.6353 35.5329 36.4255C35.235 36.3224 34.9495 36.2307 34.6798 36.1567C34.4101 36.0835 34.1545 36.0236 33.9183 36.0024C33.8592 35.9971 33.8019 35.9954 33.7464 35.9989C33.6909 35.9998 33.6371 36.0148 33.5851 36.0236C33.5331 36.0333 33.4855 36.0536 33.437 36.0677C33.3921 36.0888 33.3463 36.1064 33.3066 36.1311C33.1444 36.2263 33.0378 36.355 32.9726 36.4687C32.9065 36.5841 32.8756 36.6837 32.8571 36.7507C32.8483 36.7842 32.843 36.8106 32.8395 36.8283C32.8368 36.8468 32.8351 36.8556 32.8342 36.8556Z" fill="#263238"/>
</g>
</g>
<g id="Group_202">
<g id="Group_203">
<path id="Vector_136" d="M33.1248 30.1765C33.1275 30.1783 33.1081 30.2127 33.0702 30.2735C33.0323 30.3343 32.9785 30.4224 32.9133 30.5326C32.7837 30.752 32.6163 31.0632 32.4611 31.4201C32.3069 31.778 32.195 32.1129 32.1245 32.3579C32.0883 32.4804 32.061 32.58 32.0434 32.6496C32.0249 32.7184 32.0134 32.7563 32.0099 32.7563C32.0064 32.7554 32.0125 32.7166 32.0258 32.6461C32.0381 32.5756 32.061 32.4742 32.0936 32.35C32.1571 32.1014 32.2646 31.763 32.4197 31.4025C32.5757 31.0429 32.7485 30.7327 32.886 30.5158C32.9547 30.4074 33.0129 30.3219 33.0552 30.2638C33.0975 30.2056 33.1222 30.1748 33.1248 30.1765Z" fill="#263238"/>
</g>
</g>
<g id="Group_204" opacity="0.3">
<g id="Group_205">
<path id="Vector_137" d="M32.4675 37.3553C32.3803 37.3844 31.9017 37.6823 31.699 37.796C31.4963 37.9097 31.3191 38.0886 31.2601 38.3133C31.2019 38.5372 31.2662 38.7734 31.3297 38.9955C31.5386 39.7226 31.781 41.0297 31.9898 41.7559C32.1529 40.4383 32.3309 38.1926 32.4675 37.3553Z" fill="white"/>
</g>
</g>
<g id="Group_206">
<g id="Group_207">
<g id="Group_208">
<path id="Vector_138" d="M39.031 47.8154C39.0293 47.8277 37.6667 47.6497 35.9868 47.417C34.3069 47.1844 32.947 46.986 32.9487 46.9737C32.9505 46.9614 34.3131 47.1394 35.993 47.3721C37.672 47.6048 39.0328 47.8031 39.031 47.8154Z" fill="#455A64"/>
</g>
</g>
<g id="Group_209">
<g id="Group_210">
<path id="Vector_139" d="M38.5975 48.1485C38.5975 48.1503 38.5772 48.1485 38.5402 48.145C38.4979 48.1406 38.4441 48.1344 38.3771 48.1274C38.23 48.1097 38.0264 48.085 37.7769 48.0551C37.2649 47.9943 36.5677 47.9105 35.7974 47.8189C35.0236 47.7272 34.3246 47.6391 33.8187 47.5694C33.5658 47.5342 33.3613 47.5051 33.2203 47.4822C33.1533 47.4716 33.0995 47.4628 33.0581 47.4558C33.0211 47.4496 33.0017 47.4452 33.0017 47.4434C33.0017 47.4416 33.022 47.4425 33.059 47.4469C33.1013 47.4513 33.1551 47.4575 33.222 47.4646C33.3692 47.4822 33.5728 47.5069 33.8223 47.5368C34.3343 47.5976 35.0315 47.6814 35.8018 47.773C36.5748 47.8647 37.2746 47.9528 37.7805 48.0225C38.0334 48.0577 38.2379 48.0868 38.3789 48.1097C38.4459 48.1203 38.4997 48.1291 38.5411 48.1362C38.5781 48.1423 38.5975 48.1467 38.5975 48.1485Z" fill="#455A64"/>
</g>
</g>
<g id="Group_211">
<g id="Group_212">
<path id="Vector_140" d="M37.6439 48.3979C37.6483 48.4093 37.4209 48.3908 37.0613 48.3547C36.7008 48.3185 36.2028 48.263 35.6546 48.1987C35.1055 48.1343 34.6085 48.0726 34.2497 48.0259C34.0761 48.0021 33.9324 47.9827 33.8249 47.9678C33.7244 47.9528 33.6698 47.9431 33.6698 47.9404C33.6698 47.9369 33.7262 47.9413 33.8267 47.9501C33.9351 47.9607 34.0788 47.9757 34.2533 47.9933C34.6199 48.0347 35.1144 48.0912 35.6599 48.1528C36.2055 48.2181 36.6982 48.278 37.0657 48.3221C37.2402 48.3441 37.383 48.3626 37.4914 48.3758C37.5901 48.3891 37.6483 48.3979 37.6439 48.3979Z" fill="#455A64"/>
</g>
</g>
<g id="Group_213">
<g id="Group_214">
<path id="Vector_141" d="M39.3492 47.4355C39.3474 47.4478 37.9135 47.2698 36.1463 47.0371C34.3783 46.8044 32.9478 46.6061 32.9487 46.5938C32.9505 46.5815 34.3845 46.7595 36.1516 46.9922C37.9196 47.2249 39.351 47.4232 39.3492 47.4355Z" fill="#455A64"/>
</g>
</g>
<g id="Group_215">
<g id="Group_216">
<path id="Vector_142" d="M39.5968 47.0837C39.595 47.0961 38.1108 46.911 36.2811 46.6713C34.4514 46.4307 32.9689 46.2253 32.9707 46.213C32.9725 46.2006 34.4567 46.3848 36.2873 46.6263C38.117 46.8661 39.5986 47.0714 39.5968 47.0837Z" fill="#455A64"/>
</g>
</g>
<g id="Group_217">
<g id="Group_218">
<path id="Vector_143" d="M39.8772 46.6678C39.8754 46.6801 38.3489 46.4897 36.468 46.243C34.5863 45.9953 33.0633 45.7847 33.0642 45.7723C33.066 45.76 34.5925 45.9504 36.4733 46.1971C38.355 46.4439 39.8789 46.6546 39.8772 46.6678Z" fill="#455A64"/>
</g>
</g>
<g id="Group_219">
<g id="Group_220">
<path id="Vector_144" d="M40.0912 46.243C40.0894 46.2554 38.5356 46.0615 36.6212 45.8103C34.706 45.5582 33.1557 45.344 33.1575 45.3317C33.1592 45.3193 34.7122 45.5132 36.6274 45.7653C38.5417 46.0156 40.0929 46.2298 40.0912 46.243Z" fill="#455A64"/>
</g>
</g>
<g id="Group_221">
<g id="Group_222">
<path id="Vector_145" d="M40.3083 45.8181C40.3065 45.8305 38.7404 45.6348 36.8111 45.381C34.8809 45.1271 33.3173 44.9112 33.3191 44.8989C33.3209 44.8865 34.8862 45.0822 36.8172 45.336C38.7465 45.5899 40.3101 45.8058 40.3083 45.8181Z" fill="#455A64"/>
</g>
</g>
</g>
<g id="Group_223">
<g id="Group_224">
<path id="Vector_146" d="M35.2526 44.8486C35.265 44.8513 35.1134 45.6145 34.9133 46.5532C34.7132 47.4918 34.5414 48.2507 34.529 48.248C34.5167 48.2454 34.6683 47.4821 34.8683 46.5435C35.0684 45.6057 35.2403 44.846 35.2526 44.8486Z" fill="#455A64"/>
</g>
</g>
<g id="Group_225">
<g id="Group_226">
<path id="Vector_147" d="M34.6763 44.7526C34.6887 44.7552 34.5371 45.5185 34.337 46.4571C34.1369 47.3958 33.9651 48.1547 33.9527 48.152C33.9404 48.1494 34.092 47.3861 34.2921 46.4475C34.4912 45.5088 34.664 44.7499 34.6763 44.7526Z" fill="#455A64"/>
</g>
</g>
<g id="Group_227">
<g id="Group_228">
<path id="Vector_148" d="M34.0989 44.6566C34.1112 44.6593 33.9685 45.3811 33.779 46.2695C33.5895 47.158 33.4264 47.8754 33.4141 47.8727C33.4017 47.8701 33.5445 47.1483 33.734 46.2598C33.9235 45.3714 34.0866 44.654 34.0989 44.6566Z" fill="#455A64"/>
</g>
</g>
<g id="Group_229">
<g id="Group_230">
<path id="Vector_149" d="M33.4731 44.7878C33.4766 44.7886 33.4722 44.823 33.4616 44.8847C33.4493 44.9561 33.4334 45.0434 33.4149 45.1465C33.3735 45.3783 33.3197 45.6779 33.2598 46.0093C33.2008 46.3469 33.1399 46.6518 33.0915 46.8713C33.0668 46.9806 33.0465 47.0696 33.0306 47.1304C33.0148 47.1912 33.0051 47.2247 33.0016 47.2238C32.998 47.223 33.0024 47.1886 33.013 47.1269C33.0262 47.0555 33.0412 46.9683 33.0597 46.8651C33.1012 46.6333 33.1549 46.3337 33.2149 46.0023C33.2739 45.6647 33.3338 45.3598 33.3832 45.1412C33.4079 45.0319 33.4281 44.9429 33.444 44.8821C33.4599 44.8204 33.4704 44.7869 33.4731 44.7878Z" fill="#455A64"/>
</g>
</g>
<g id="Group_231">
<g id="Group_232">
<path id="Vector_150" d="M35.9199 44.9676C35.9322 44.9703 35.7859 45.7071 35.5929 46.6132C35.3999 47.5192 35.2333 48.2516 35.2209 48.249C35.2086 48.2463 35.3549 47.5095 35.5479 46.6035C35.7409 45.6974 35.9075 44.965 35.9199 44.9676Z" fill="#455A64"/>
</g>
</g>
<g id="Group_233">
<g id="Group_234">
<path id="Vector_151" d="M36.5826 45.1024C36.595 45.1051 36.4487 45.8437 36.2548 46.7515C36.0617 47.6602 35.8943 48.3943 35.882 48.3917C35.8696 48.3891 36.0159 47.6505 36.2098 46.7418C36.4037 45.834 36.5703 45.0998 36.5826 45.1024Z" fill="#455A64"/>
</g>
</g>
<g id="Group_235">
<g id="Group_236">
<path id="Vector_152" d="M37.2675 45.1387C37.2798 45.1413 37.1344 45.8737 36.9431 46.7736C36.751 47.6744 36.5862 48.4015 36.5739 48.3988C36.5615 48.3962 36.7069 47.6647 36.8982 46.7639C37.0894 45.864 37.2551 45.136 37.2675 45.1387Z" fill="#455A64"/>
</g>
</g>
<g id="Group_237">
<g id="Group_238">
<path id="Vector_153" d="M37.941 45.2267C37.9533 45.2294 37.8088 45.9574 37.6184 46.8529C37.428 47.7483 37.2632 48.4719 37.2509 48.4693C37.2385 48.4666 37.3831 47.7386 37.5734 46.8432C37.7638 45.9477 37.9277 45.2241 37.941 45.2267Z" fill="#455A64"/>
</g>
</g>
<g id="Group_239">
<g id="Group_240">
<path id="Vector_154" d="M38.6045 45.3581C38.6168 45.3608 38.482 46.0421 38.3039 46.8794C38.1259 47.7167 37.9708 48.3935 37.9584 48.3909C37.9461 48.3883 38.0809 47.707 38.259 46.8697C38.437 46.0324 38.5921 45.3555 38.6045 45.3581Z" fill="#455A64"/>
</g>
</g>
<g id="Group_241">
<g id="Group_242">
<path id="Vector_155" d="M39.285 45.4145C39.2973 45.4172 39.1722 46.0535 39.0056 46.8362C38.839 47.6188 38.6936 48.2516 38.6813 48.249C38.6689 48.2463 38.7941 47.61 38.9607 46.8265C39.1272 46.0438 39.2727 45.4119 39.285 45.4145Z" fill="#455A64"/>
</g>
</g>
<g id="Group_243">
<g id="Group_244">
<path id="Vector_156" d="M39.953 45.523C39.9653 45.5256 39.8957 45.902 39.797 46.3647C39.6983 46.8265 39.6084 47.1993 39.596 47.1967C39.5837 47.194 39.6533 46.8177 39.752 46.355C39.8507 45.8932 39.9406 45.5203 39.953 45.523Z" fill="#455A64"/>
</g>
</g>
<g id="Group_245">
<g id="Group_246">
<path id="Vector_157" d="M61.9229 48.0498C61.9229 48.0621 57.5434 48.0727 52.1415 48.0727C46.7379 48.0727 42.3593 48.0621 42.3593 48.0498C42.3593 48.0375 46.7379 48.0269 52.1415 48.0269C57.5434 48.0269 61.9229 48.0375 61.9229 48.0498Z" fill="#263238"/>
</g>
</g>
<g id="Group_247">
<g id="Group_248">
<path id="Vector_158" d="M61.5384 47.6073C61.5384 47.6196 57.3467 47.6302 52.1783 47.6302C47.0074 47.6302 42.8174 47.6196 42.8174 47.6073C42.8174 47.595 47.0083 47.5844 52.1783 47.5844C57.3475 47.5835 61.5384 47.5941 61.5384 47.6073Z" fill="#263238"/>
</g>
</g>
<g id="Group_249">
<g id="Group_250">
<path id="Vector_159" d="M60.9559 47.1543C60.9559 47.1667 56.9915 47.1773 52.1026 47.1773C47.2119 47.1773 43.2484 47.1667 43.2484 47.1543C43.2484 47.142 47.2119 47.1314 52.1026 47.1314C56.9915 47.1314 60.9559 47.1411 60.9559 47.1543Z" fill="#263238"/>
</g>
</g>
<g id="Group_251">
<g id="Group_252">
<path id="Vector_160" d="M60.5682 46.7013C60.5682 46.7136 56.7924 46.7242 52.1353 46.7242C47.4764 46.7242 43.7015 46.7136 43.7015 46.7013C43.7015 46.6889 47.4764 46.6784 52.1353 46.6784C56.7924 46.6784 60.5682 46.6881 60.5682 46.7013Z" fill="#263238"/>
</g>
</g>
<g id="Group_253">
<g id="Group_254">
<path id="Vector_161" d="M59.9212 46.2695C59.9212 46.2818 56.4205 46.2924 52.1027 46.2924C47.784 46.2924 44.2832 46.2818 44.2832 46.2695C44.2832 46.2571 47.7831 46.2465 52.1027 46.2465C56.4205 46.2465 59.9212 46.2571 59.9212 46.2695Z" fill="#263238"/>
</g>
</g>
<g id="Group_255">
<g id="Group_256">
<path id="Vector_162" d="M59.1878 45.8384C59.1878 45.8508 56.0246 45.8613 52.1246 45.8613C48.2228 45.8613 45.0604 45.8508 45.0604 45.8384C45.0604 45.8261 48.2228 45.8155 52.1246 45.8155C56.0246 45.8155 59.1878 45.8252 59.1878 45.8384Z" fill="#263238"/>
</g>
</g>
<g id="Group_257" opacity="0.3">
<path id="Vector_163" d="M53.5956 32.1015L37.2128 32.076C37.2128 32.076 37.8914 32.8868 39.1394 32.8798C40.2782 32.8736 51.3595 32.8789 53.3047 32.8798C53.3047 32.8798 53.3523 32.8798 53.4404 32.8798C53.5418 32.8798 53.5956 32.8798 53.5956 32.8798C55.3909 32.8789 64.9273 32.8736 65.9126 32.8798C67.0011 32.8868 67.5352 32.1015 67.5352 32.1015H53.5956Z" fill="black"/>
</g>
<g id="Group_258">
<path id="Vector_164" d="M67.5928 31.7525L64.493 26.3788C64.4445 26.2951 64.3564 26.2413 64.2594 26.2369L53.5949 25.7795L52.5717 25.7354C52.4492 25.7301 52.3267 25.7301 52.2042 25.7354L51.1809 25.7795L40.5164 26.2369C40.4194 26.2413 40.3313 26.2942 40.2828 26.3788L37.1831 31.7525C37.0835 31.9252 37.1884 32.1447 37.3867 32.1746C37.4307 32.1808 37.4774 32.1878 37.5277 32.1931C37.7983 32.2231 48.617 32.2037 52.3875 32.1958C56.1588 32.2037 66.9776 32.2231 67.2473 32.1931C67.2966 32.1878 67.3442 32.1817 67.3883 32.1746C67.5875 32.1447 67.6932 31.9252 67.5928 31.7525ZM66.1667 31.5259L52.3892 31.6194L38.6118 31.5259C38.3941 31.5242 38.2592 31.2889 38.3685 31.1011C38.9625 30.0735 40.4547 27.5016 40.6935 27.2046C41.1272 26.6661 47.8343 26.5947 51.4021 26.5956C51.4233 26.6009 51.4453 26.6035 51.4682 26.6035C51.6771 26.6018 51.9926 26.6 52.3892 26.5982C52.7859 26.6 53.1014 26.6018 53.3103 26.6035C53.3332 26.6035 53.3552 26.6009 53.3764 26.5956C56.9441 26.5947 63.6522 26.6661 64.0849 27.2046C64.3238 27.5016 65.8159 30.0735 66.41 31.1011C66.5184 31.2897 66.3835 31.5251 66.1667 31.5259Z" fill="#263238"/>
</g>
<g id="Group_259">
<path id="Vector_165" d="M55.8871 31.229C55.8871 30.9223 56.0052 30.0559 56.289 29.825C56.5085 29.6469 57.0276 29.5932 57.2841 29.5782C57.292 29.5773 57.2999 29.5773 57.3088 29.5773C57.4445 29.5791 58.3523 29.6029 58.6237 29.8241C58.9075 30.055 59.0265 30.9214 59.0256 31.2281C59.0256 31.2307 59.0256 31.2343 59.0256 31.2369C59.0256 31.4273 58.8714 31.5815 58.6802 31.5815H57.5344H57.3775H56.2317C56.0413 31.5815 55.8862 31.4273 55.8862 31.2369C55.8871 31.2351 55.8871 31.2316 55.8871 31.229Z" fill="#263238"/>
</g>
<g id="Group_260" opacity="0.3">
<path id="Vector_166" d="M55.8871 31.229C55.8871 30.9223 56.0052 30.0559 56.289 29.825C56.5085 29.6469 57.0276 29.5932 57.2841 29.5782C57.292 29.5773 57.2999 29.5773 57.3088 29.5773C57.4445 29.5791 58.3523 29.6029 58.6237 29.8241C58.9075 30.055 59.0265 30.9214 59.0256 31.2281C59.0256 31.2307 59.0256 31.2343 59.0256 31.2369C59.0256 31.4273 58.8714 31.5815 58.6802 31.5815H57.5344H57.3775H56.2317C56.0413 31.5815 55.8862 31.4273 55.8862 31.2369C55.8871 31.2351 55.8871 31.2316 55.8871 31.229Z" fill="black"/>
</g>
<g id="Group_261">
<path id="Vector_167" d="M57.1235 31.0033C57.1235 30.5018 57.3174 29.0837 57.7819 28.7056C58.1415 28.4138 58.9911 28.3266 59.4107 28.3019C59.4239 28.301 59.4371 28.301 59.4503 28.301C59.6724 28.3037 61.1584 28.3433 61.6035 28.7056C62.0689 29.0837 62.2619 30.5027 62.2619 31.0033C62.2619 31.0086 62.2619 31.013 62.2619 31.0183C62.2619 31.3303 62.0089 31.5832 61.6969 31.5832H59.8214H59.5649H57.6894C57.3774 31.5832 57.1244 31.3303 57.1244 31.0183C57.1235 31.013 57.1235 31.0086 57.1235 31.0033Z" fill="#263238"/>
</g>
<g id="Group_262" opacity="0.3">
<path id="Vector_168" d="M62.0337 45.6675C62.0337 45.6675 61.9676 46.0686 62.9063 47.395C63.1927 47.8004 64.1032 48.6175 64.4434 48.918C64.5262 48.9912 64.6337 49.0291 64.7448 49.0247C65.6896 48.9832 70.2454 48.7726 71.0016 48.5505C71.3436 48.45 71.6009 48.3328 71.7931 48.22C72.1262 48.0234 72.321 47.6577 72.3069 47.2716C72.2831 46.6168 72.2426 45.4648 72.2426 45.1634C72.2426 44.7351 71.9447 44.3746 71.3894 44.4424C71.0228 44.4856 62.0328 45.6675 62.0337 45.6675ZM64.9713 45.5768L70.8756 45.0409L71.0465 47.4215L66.7005 48.1257L64.9713 45.5768Z" fill="black"/>
</g>
<g id="Group_263" opacity="0.3">
<path id="Vector_169" d="M72.1067 39.556C72.1067 39.556 72.5518 40.9081 69.7227 41.5373C66.8582 42.1746 62.6198 43.3292 62.6198 43.3292L64.8963 41.7066C64.8963 41.7066 71.4448 40.6146 71.6079 39.6125C71.7947 38.4667 71.6088 37.179 71.6088 37.179L72.1067 39.556Z" fill="black"/>
</g>
<g id="Group_264">
<g id="Group_265">
<path id="Vector_170" d="M61.0555 45.6269C61.0555 45.626 61.0652 45.6225 61.0855 45.6163C61.1075 45.6102 61.1366 45.6014 61.1736 45.5908C61.2547 45.5679 61.3693 45.5361 61.5156 45.4956C61.8135 45.4171 62.2445 45.3052 62.7813 45.1818C63.8539 44.9324 65.346 44.6336 67.003 44.3639C67.8323 44.23 68.6229 44.1066 69.3456 44.0149C69.7061 43.9673 70.049 43.9215 70.3698 43.8783C70.6897 43.8351 70.9903 43.7928 71.2679 43.8025C71.5438 43.8104 71.7994 43.8783 71.9765 44.0123C72.1563 44.1409 72.2788 44.2908 72.359 44.423C72.4401 44.5552 72.4789 44.6706 72.4965 44.75C72.515 44.8293 72.515 44.8725 72.515 44.8725C72.5062 44.876 72.508 44.6936 72.344 44.4327C72.263 44.304 72.1396 44.1577 71.9615 44.0334C71.7861 43.9038 71.5385 43.8404 71.2661 43.8351C70.9929 43.8281 70.6933 43.8712 70.3733 43.9162C70.0525 43.9603 69.7105 44.007 69.3501 44.0563C68.6291 44.1498 67.8385 44.274 67.0092 44.4089C65.3522 44.6786 63.86 44.9721 62.7865 45.2136C62.2489 45.3325 61.817 45.4401 61.5183 45.5123C61.3711 45.5494 61.2556 45.5784 61.1745 45.5987C61.1366 45.6075 61.1075 45.6146 61.0846 45.6199C61.0661 45.6252 61.0555 45.6278 61.0555 45.6269Z" fill="#263238"/>
</g>
</g>
<g id="Group_266">
<g id="Group_267">
<path id="Vector_171" d="M52.1915 36.7993C52.1915 36.7984 52.2048 36.7975 52.2294 36.7966C52.2568 36.7957 52.2929 36.7948 52.3405 36.794C52.4401 36.7931 52.5829 36.7913 52.7662 36.7896C53.1381 36.7878 53.6731 36.7843 54.3324 36.7807C55.6571 36.7772 57.4824 36.7728 59.4989 36.7684C60.5081 36.7675 61.4688 36.7675 62.344 36.7666C62.7811 36.7666 63.1962 36.7675 63.5849 36.7675C63.7797 36.7675 63.9665 36.7684 64.1472 36.7684C64.3288 36.757 64.5121 36.8107 64.6443 36.9165C64.8955 37.1306 65.1238 37.3254 65.3238 37.4964C65.4234 37.5819 65.516 37.6603 65.6015 37.7335C65.6887 37.8022 65.783 37.8446 65.8712 37.8675C65.9602 37.8904 66.0413 37.8939 66.1127 37.8895C66.1832 37.8877 66.2431 37.886 66.2925 37.8842C66.3392 37.8833 66.3762 37.8825 66.4035 37.8825C66.4282 37.8825 66.4414 37.8825 66.4414 37.8833C66.4414 37.8842 66.4291 37.8851 66.4035 37.8869C66.3762 37.8886 66.3401 37.8904 66.2934 37.8939C66.244 37.8966 66.1841 37.8992 66.1135 37.9036C66.043 37.9098 65.9584 37.908 65.8677 37.8851C65.7769 37.8631 65.679 37.8208 65.5883 37.7511C65.5019 37.6789 65.4076 37.6004 65.3071 37.5158C65.1062 37.3466 64.877 37.1544 64.6249 36.942C64.4963 36.8416 64.327 36.7922 64.1481 36.8037C63.9674 36.8045 63.7797 36.8045 63.5858 36.8054C63.1971 36.8063 62.782 36.8081 62.3448 36.809C61.4705 36.8107 60.509 36.8125 59.4998 36.8142C57.4832 36.8142 55.6579 36.8134 54.3332 36.8134C53.674 36.8107 53.139 36.809 52.7671 36.8081C52.5837 36.8063 52.441 36.8054 52.3414 36.8045C52.2946 36.8037 52.2576 36.8028 52.2303 36.8028C52.2047 36.801 52.1915 36.8001 52.1915 36.7993Z" fill="#263238"/>
</g>
</g>
<g id="Group_268">
<path id="Vector_172" d="M33.7182 49.3621C33.7658 49.2625 33.8662 49.1911 34.0646 49.2132C34.6154 49.2757 40.3901 49.4044 41.1851 49.2132C41.981 49.0219 44.6321 46.0129 45.7541 45.8084C46.6954 45.6366 51.2723 45.5449 52.723 45.5863C54.1746 45.544 58.7516 45.6366 59.692 45.8084C60.8139 46.0138 63.4254 49.3163 64.2213 49.5075C65.0172 49.6988 70.8315 49.2757 71.3824 49.2132C71.5816 49.1902 71.682 49.2616 71.7288 49.3621C71.8266 49.5692 71.6679 49.8081 71.4379 49.8151C70.2084 49.8495 65.4587 49.9041 64.5703 49.8883C63.6378 49.8715 54.1032 49.697 52.5053 49.6679C50.0966 49.6829 41.8664 49.7358 40.9947 49.7481C39.967 49.7622 35.2359 49.8495 34.0055 49.8151C33.779 49.8081 33.6203 49.5692 33.7182 49.3621Z" fill="#263238"/>
</g>
<g id="Group_269">
<path id="Vector_173" d="M54.343 26.1303C54.2954 26.1303 54.3342 26.9587 53.6652 26.9429C52.9962 26.927 51.7359 26.9429 51.7359 26.9429L51.1815 25.9073L54.343 26.1303Z" fill="#263238"/>
</g>
<g id="Group_270">
<path id="Vector_174" d="M54.0469 27.2311C54.1403 27.2311 54.2275 27.2752 54.2822 27.351C54.4417 27.5687 54.7608 28.0191 54.7696 28.1601C54.781 28.3478 54.6753 28.5012 54.4814 28.525C54.2972 28.547 50.7682 28.5276 50.4024 28.525C50.3795 28.525 50.3575 28.5223 50.3354 28.5162C50.2394 28.4924 49.9891 28.413 50.0076 28.2421C50.0252 28.0861 50.2967 27.6128 50.4394 27.373C50.4923 27.2849 50.5866 27.2311 50.6897 27.2311H54.0469Z" fill="#263238"/>
</g>
<g id="Group_271">
<g id="Group_272">
<path id="Vector_175" d="M63.2141 25.4102C63.2159 25.4049 63.304 25.4217 63.4433 25.4648C63.5817 25.5098 63.7729 25.5838 63.9536 25.7187C64.1334 25.8544 64.2586 26.0175 64.3405 26.1373C64.4216 26.259 64.4621 26.3392 64.4569 26.3418C64.4507 26.3453 64.4005 26.2713 64.3141 26.1558C64.2268 26.0421 64.1008 25.8861 63.9263 25.7548C63.7509 25.6244 63.5667 25.5468 63.4327 25.4948C63.2979 25.4455 63.2124 25.4173 63.2141 25.4102Z" fill="#263238"/>
</g>
</g>
<g id="Group_273">
<g id="Group_274">
<path id="Vector_176" d="M64.0882 49.0315C64.0882 49.0315 64.0688 49.0307 64.037 49.013C64.0053 48.9954 63.9604 48.9663 63.9048 48.924C63.792 48.8403 63.6343 48.7063 63.4351 48.5292C63.0376 48.174 62.477 47.6452 61.8045 46.9709C61.6362 46.8026 61.4617 46.6245 61.2819 46.4368C61.0995 46.2517 60.9267 46.0411 60.7108 45.8666C60.494 45.6929 60.241 45.5493 59.9625 45.4488C59.684 45.3474 59.3826 45.2884 59.0706 45.2655C58.9146 45.254 58.7559 45.254 58.5946 45.2531C58.4333 45.2514 58.2703 45.2505 58.1055 45.2487C57.7758 45.2461 57.44 45.2426 57.0972 45.2399C56.4124 45.2337 55.7037 45.2276 54.9775 45.2205C52.0725 45.1914 49.4434 45.165 47.5379 45.1456C46.5869 45.1341 45.8175 45.1245 45.2834 45.1174C45.019 45.113 44.8119 45.1095 44.6708 45.1077C44.6021 45.1059 44.5492 45.1051 44.5113 45.1042C44.4752 45.1033 44.4567 45.1015 44.4567 45.1015C44.4567 45.1015 44.4752 45.0998 44.5113 45.0998C44.5492 45.0998 44.6021 45.0989 44.6708 45.0989C44.8127 45.0989 45.019 45.0998 45.2834 45.0998C45.8175 45.1033 46.5869 45.1077 47.5379 45.113C49.4434 45.1289 52.0725 45.15 54.9775 45.1747C55.7037 45.1817 56.4124 45.1879 57.0972 45.195C57.4392 45.1985 57.7758 45.2011 58.1055 45.2047C58.2703 45.2064 58.4333 45.2082 58.5946 45.2091C58.755 45.2108 58.9154 45.2108 59.0732 45.2223C59.3887 45.247 59.6937 45.3069 59.9766 45.41C60.2586 45.5123 60.5151 45.6594 60.7346 45.8357C60.954 46.0146 61.1259 46.2262 61.3066 46.4112C61.4855 46.599 61.66 46.7779 61.8275 46.9471C62.4973 47.6231 63.0534 48.1563 63.4474 48.5142C63.644 48.6931 63.8 48.8288 63.911 48.9152C63.9657 48.9584 64.0097 48.9892 64.0406 49.0077C64.0697 49.028 64.0882 49.0298 64.0882 49.0315Z" fill="#263238"/>
</g>
</g>
<g id="Group_275">
<g id="Group_276">
<path id="Vector_177" d="M42.0208 48.6756C42.0208 48.6632 46.7449 48.6527 52.5707 48.6527C58.3983 48.6527 63.1215 48.6632 63.1215 48.6756C63.1215 48.6879 58.3983 48.6985 52.5707 48.6985C46.7449 48.6985 42.0208 48.6888 42.0208 48.6756Z" fill="#455A64"/>
</g>
</g>
<g id="Group_277">
<path id="Vector_178" d="M58.4704 49.4451H59.0891L59.1332 48.6757H58.4237L58.4704 49.4451Z" fill="#455A64"/>
</g>
<g id="Group_278">
<path id="Vector_179" d="M52.6827 49.4451H53.3014L53.3455 48.6757H52.636L52.6827 49.4451Z" fill="#455A64"/>
</g>
<g id="Group_279">
<path id="Vector_180" d="M46.8956 49.4451H47.5143L47.5575 48.6757H46.8489L46.8956 49.4451Z" fill="#455A64"/>
</g>
<g id="Group_280">
<path id="Vector_181" d="M42.3478 48.3979C43.4671 47.4337 44.9751 45.9503 45.7507 45.8084C46.692 45.6366 51.2689 45.5449 52.7197 45.5863C54.1713 45.544 58.7482 45.6366 59.6886 45.8084C60.4104 45.9407 61.7492 47.3552 62.8236 48.3979C55.9992 48.3979 49.1739 48.3979 42.3478 48.3979Z" fill="#455A64"/>
</g>
<g id="Group_281">
<g id="Group_282">
<path id="Vector_182" d="M62.619 43.3292C62.6032 43.2675 64.1596 42.8215 66.0951 42.3323C68.0306 41.8432 69.6126 41.4968 69.6276 41.5585C69.6435 41.6202 68.087 42.0662 66.1506 42.5553C64.2169 43.0436 62.6349 43.3908 62.619 43.3292Z" fill="#263238"/>
</g>
</g>
<g id="Group_283">
<g id="Group_284">
<path id="Vector_183" d="M42.8544 48.0498C42.8544 48.0375 47.2339 48.0269 52.6357 48.0269C58.0394 48.0269 62.418 48.0375 62.418 48.0498C62.418 48.0621 58.0394 48.0727 52.6357 48.0727C47.2339 48.0727 42.8544 48.0621 42.8544 48.0498Z" fill="#263238"/>
</g>
</g>
<g id="Group_285">
<g id="Group_286">
<path id="Vector_184" d="M43.2386 47.6073C43.2386 47.595 47.4304 47.5844 52.5987 47.5844C57.7697 47.5844 61.9597 47.595 61.9597 47.6073C61.9597 47.6197 57.7688 47.6302 52.5987 47.6302C47.4295 47.6302 43.2386 47.6197 43.2386 47.6073Z" fill="#263238"/>
</g>
</g>
<g id="Group_287">
<g id="Group_288">
<path id="Vector_185" d="M43.8213 47.1543C43.8213 47.142 47.7857 47.1314 52.6746 47.1314C57.5653 47.1314 61.5288 47.142 61.5288 47.1543C61.5288 47.1667 57.5653 47.1773 52.6746 47.1773C47.7857 47.1773 43.8213 47.1667 43.8213 47.1543Z" fill="#263238"/>
</g>
</g>
<g id="Group_289">
<g id="Group_290">
<path id="Vector_186" d="M44.2094 46.7013C44.2094 46.6889 47.9851 46.6784 52.6422 46.6784C57.3011 46.6784 61.076 46.6889 61.076 46.7013C61.076 46.7136 57.3011 46.7242 52.6422 46.7242C47.9851 46.7242 44.2094 46.7136 44.2094 46.7013Z" fill="#263238"/>
</g>
</g>
<g id="Group_291">
<g id="Group_292">
<path id="Vector_187" d="M44.8561 46.2695C44.8561 46.2571 48.3569 46.2465 52.6747 46.2465C56.9933 46.2465 60.4941 46.2571 60.4941 46.2695C60.4941 46.2818 56.9942 46.2924 52.6747 46.2924C48.3569 46.2924 44.8561 46.2827 44.8561 46.2695Z" fill="#263238"/>
</g>
</g>
<g id="Group_293">
<g id="Group_294">
<path id="Vector_188" d="M45.5894 45.8384C45.5894 45.8261 48.7526 45.8155 52.6526 45.8155C56.5544 45.8155 59.7167 45.8261 59.7167 45.8384C59.7167 45.8508 56.5544 45.8613 52.6526 45.8613C48.7526 45.8613 45.5894 45.8508 45.5894 45.8384Z" fill="#263238"/>
</g>
</g>
<g id="Group_295">
<path id="Vector_189" d="M52.5029 26.8732H52.2632V27.3042H52.5029V26.8732Z" fill="#263238"/>
</g>
<g id="Group_296" opacity="0.3">
<path id="Vector_190" d="M38.9976 34.9536C38.9976 34.9536 39.4294 34.8064 39.3448 34.483C39.3448 34.483 40.5972 35.2163 42.3018 35.1907C44.0055 35.1652 50.249 35.5468 50.249 35.5468L50.9647 36.5348C50.9647 36.5348 40.3928 36.2889 40.0006 36.5454L38.9976 34.9536Z" fill="white"/>
</g>
<g id="Group_297" opacity="0.3">
<path id="Vector_191" d="M35.0306 35.7398C34.9433 35.7389 37.7249 36.696 38.0854 36.9966L38.653 36.8723L36.6673 33.5795L36.439 33.5267C36.4399 33.5267 35.7577 35.7433 35.0306 35.7398Z" fill="white"/>
</g>
<g id="Group_298" opacity="0.3">
<path id="Vector_192" d="M41.7194 25.7318C41.7722 25.7318 52.6086 25.2682 52.591 25.1263C52.5734 24.9844 47.7593 25.002 45.645 25.1263C43.5314 25.2506 41.7194 25.7318 41.7194 25.7318Z" fill="white"/>
</g>
<g id="Group_299" opacity="0.2">
<path id="Vector_193" d="M37.1847 31.7525L45.9939 29.5782L47.6544 25.9408L40.5295 26.2369C40.4131 26.2413 40.3673 26.2766 40.3091 26.3771L37.1847 31.7525Z" fill="white"/>
</g>
</g>
</g>
</g>
</g>
</svg>
