<svg width="30" height="30" viewBox="0 0 30 30" fill="none" xmlns="http://www.w3.org/2000/svg">
<g id="Vector">
<path id="Vector_2" d="M15.4998 12.2727V18.0818H23.5725C23.218 19.95 22.1542 21.5319 20.5588 22.5955L25.4269 26.3728C28.2633 23.7547 29.8997 19.9092 29.8997 15.341C29.8997 14.2774 29.8042 13.2546 29.6269 12.2729L15.4998 12.2727Z" fill="#4285F4"/>
<path id="Vector_3" d="M7.09339 17.855L5.99544 18.6955L2.10901 21.7227C4.57718 26.6181 9.6359 30 15.4995 30C19.5494 30 22.9448 28.6636 25.4267 26.3728L20.5585 22.5955C19.2221 23.4955 17.5176 24.041 15.4995 24.041C11.5995 24.041 8.28597 21.4092 7.09952 17.8637L7.09339 17.855Z" fill="#34A853"/>
<path id="Vector_4" d="M2.10897 8.27728C1.0863 10.2954 0.5 12.5727 0.5 14.9999C0.5 17.4271 1.0863 19.7045 2.10897 21.7226C2.10897 21.7361 7.09997 17.8498 7.09997 17.8498C6.79997 16.9498 6.62265 15.9953 6.62265 14.9998C6.62265 14.0042 6.79997 13.0497 7.09997 12.1497L2.10897 8.27728Z" fill="#FBBC05"/>
<path id="Vector_5" d="M15.4998 5.97272C17.7089 5.97272 19.6725 6.73634 21.2407 8.20909L25.5361 3.91369C22.9316 1.48646 19.5499 0 15.4998 0C9.63621 0 4.57718 3.36818 2.10901 8.27728L7.09985 12.15C8.28614 8.60452 11.5998 5.97272 15.4998 5.97272Z" fill="#EA4335"/>
</g>
</svg>
