<svg width="64" height="64" viewBox="0 0 64 64" fill="none" xmlns="http://www.w3.org/2000/svg">
<g id="Group 1">
<circle id="Ellipse 2" cx="32" cy="32" r="32" fill="#FFFBF7"/>
<mask id="mask0_585_780" style="mask-type:alpha" maskUnits="userSpaceOnUse" x="0" y="0" width="64" height="64">
<circle id="Ellipse 1" cx="32" cy="32" r="32" fill="#FFFBF7"/>
</mask>
<g mask="url(#mask0_585_780)">
<g id="Group">
<g id="Group_2">
<path id="Vector" d="M47.7252 12.0968L16.7872 10.3071C16.0747 10.2722 15.4332 11.0498 15.4332 11.7027V51.5409C15.4332 52.4464 16.3581 52.6286 17.0706 52.5559L47.7252 49.4253C48.285 49.3682 48.7373 48.8558 48.7373 48.2807V13.1876C48.7373 12.6123 48.2852 12.1242 47.7252 12.0968Z" fill="url(#paint0_linear_585_780)"/>
<path id="Vector_2" d="M48.2341 11.7803L17.235 10.2554C16.5226 10.2202 15.9421 10.7251 15.9421 11.3833V51.5328C15.9421 52.1908 16.5226 52.6646 17.235 52.5912L48.2341 49.4006C48.7939 49.3429 49.2462 48.8264 49.2462 48.247V12.8794C49.2459 12.3 48.7939 11.8077 48.2341 11.7803Z" fill="#D8DEE8"/>
<path id="Vector_3" d="M17.2349 52.0467C16.8505 52.0854 16.537 51.8286 16.537 51.474V11.4099C16.537 11.0553 16.8505 10.7818 17.2349 10.8L48.234 12.2644C48.5365 12.2787 48.7824 12.5454 48.7824 12.8591V48.293C48.7824 48.6067 48.5368 48.8865 48.234 48.917L17.2349 52.0467Z" fill="url(#paint1_linear_585_780)"/>
<path id="Vector_4" d="M46.2361 47.9665L19.7225 50.521V13.5585L46.2361 14.557V47.9665Z" fill="white"/>
<path id="Vector_5" opacity="0.3" d="M35.6313 14.7378L25.035 14.8704L25.2727 12.4806C25.2906 12.17 25.5152 11.9152 25.8107 11.8698L27.6053 11.5942C27.8165 11.5617 27.9985 11.4222 28.0908 11.2216L28.2853 10.7991L32.9791 11.0888L35.6313 14.7378Z" fill="#97A6B7"/>
<path id="Vector_6" d="M41.29 13.1876C41.2399 12.9173 41.0231 12.7276 40.7503 12.7152L39.0572 12.6394C38.2888 12.605 37.7253 11.9807 37.7534 11.1898L37.8188 9.35716C37.8309 9.01825 37.5889 8.74669 37.2563 8.72682L36.7001 8.69363C36.2759 8.6682 35.9935 8.29441 36.0531 7.86199C36.157 7.10641 35.6393 6.45427 34.8888 6.40316C34.1325 6.35156 33.4266 6.92933 33.3142 7.69484C33.2975 7.80845 33.259 7.92086 33.1965 8.02115C33.0218 8.30143 32.7156 8.45574 32.4157 8.43782L31.8418 8.40366C31.4942 8.38283 31.1637 8.62701 31.0756 8.97028L30.5983 10.8305C30.3919 11.635 29.6136 12.2164 28.787 12.1794L26.9297 12.096C26.6254 12.0825 26.327 12.2598 26.1869 12.5377L25.0678 14.7586C24.9762 14.9405 25.0891 15.137 25.2887 15.1435L41.3959 15.6784C41.5723 15.6842 41.7217 15.5086 41.6893 15.3337L41.29 13.1876ZM34.6601 7.98893C34.4382 7.97512 34.2844 7.78229 34.3166 7.55821C34.3488 7.33413 34.555 7.16407 34.7769 7.1786C34.9983 7.19314 35.1514 7.38573 35.1192 7.60932C35.087 7.83268 34.8815 8.00274 34.6601 7.98893Z" fill="url(#paint2_linear_585_780)"/>
<path id="Vector_7" d="M41.3854 13.2373C41.335 12.9669 41.1184 12.7773 40.8456 12.7649L39.1525 12.6891C38.3841 12.6547 37.8207 12.0304 37.8488 11.2395L37.9142 9.40683C37.9263 9.06792 37.6843 8.79636 37.3517 8.7765L36.7955 8.74331C36.3713 8.71787 36.0888 8.34408 36.1484 7.91166C36.2523 7.15608 35.7346 6.50395 34.9841 6.45259C34.2278 6.40099 33.5219 6.97876 33.4095 7.74427C33.3928 7.85788 33.3543 7.97029 33.2918 8.07058C33.1171 8.35086 32.8109 8.50518 32.511 8.48725L31.9371 8.45309C31.5895 8.43226 31.2591 8.67645 31.1709 9.01972L30.6937 10.88C30.4873 11.6845 29.7089 12.2659 28.8824 12.2288L27.025 12.1455C26.7208 12.1319 26.4223 12.3092 26.2823 12.5871L25.1631 14.808C25.0715 14.99 25.1844 15.1864 25.384 15.193L41.4912 15.7279C41.6676 15.7337 41.817 15.558 41.7846 15.3831L41.3854 13.2373ZM34.7557 8.03884C34.5338 8.02504 34.38 7.8322 34.4122 7.60812C34.4444 7.38404 34.6506 7.21398 34.8725 7.22852C35.0939 7.24305 35.247 7.43564 35.2148 7.65924C35.1826 7.88235 34.9771 8.05241 34.7557 8.03884Z" fill="#97A6B7"/>
<g id="Group_3">
<path id="Vector_8" opacity="0.5" d="M38.6289 14.258C37.1921 13.3711 36.0897 14 35.1943 12.9995C34.2357 11.9285 34.8823 10.5188 33.8905 9.85336C33.2556 9.42748 32.6892 9.80321 31.9506 9.6879C31.6802 9.64575 31.3915 9.53819 31.0918 9.32865L30.6938 10.88C30.4874 11.6845 29.709 12.2657 28.8825 12.2289L27.0251 12.1455C26.7209 12.132 26.4224 12.3093 26.2824 12.5872L25.1632 14.8081C25.0716 14.99 25.1845 15.1865 25.3841 15.193L40.0221 15.6792C39.6531 15.0937 39.1951 14.6075 38.6289 14.258Z" fill="white"/>
</g>
<path id="Vector_9" d="M43.6505 25.4995L23.1162 25.6095V24.3902L43.6505 24.3248V25.4995Z" fill="#D8DEE8"/>
<g id="Group_4">
<path id="Vector_10" d="M40.1782 28.8863L22.8091 29.3046V28.035L40.1782 27.6958V28.8863Z" fill="#D8DEE8"/>
<path id="Vector_11" d="M40.1782 30.9703L22.8091 31.5275V30.2578L40.1782 29.7799V30.9703Z" fill="#D8DEE8"/>
<path id="Vector_12" d="M40.1782 33.0545L22.8091 33.7508V32.4809L40.1782 31.8641V33.0545Z" fill="#D8DEE8"/>
<path id="Vector_13" d="M40.1782 35.1386L22.8091 35.9739V34.704L40.1782 33.9482V35.1386Z" fill="#D8DEE8"/>
</g>
<g id="Group_5">
<path id="Vector_14" d="M43.6505 28.8026L41.3656 28.8576V27.6728L43.6505 27.6282V28.8026Z" fill="#D8DEE8"/>
<path id="Vector_15" d="M43.6505 30.859L41.3656 30.9321V29.7473L43.6505 29.6843V30.859Z" fill="#D8DEE8"/>
<path id="Vector_16" d="M43.6505 32.9151L41.3656 33.0067V31.8218L43.6505 31.7407V32.9151Z" fill="#D8DEE8"/>
<path id="Vector_17" d="M43.6505 34.9715L41.3656 35.0812V33.8964L43.6505 33.7968V34.9715Z" fill="#D8DEE8"/>
</g>
<g id="Group_6">
<path id="Vector_18" d="M40.1782 38.5206L22.8091 39.5814V38.3116L40.1782 37.3302V38.5206Z" fill="#D8DEE8"/>
<path id="Vector_19" d="M40.1782 40.6049L22.8091 41.8045V40.5349L40.1782 39.4145V40.6049Z" fill="#D8DEE8"/>
<path id="Vector_20" d="M40.1782 42.689L22.8091 44.0277V42.758L40.1782 41.4986V42.689Z" fill="#D8DEE8"/>
<path id="Vector_21" d="M40.1782 44.7731L22.8091 46.2506V44.9807L40.1782 43.5827V44.7731Z" fill="#D8DEE8"/>
</g>
<g id="Group_7">
<path id="Vector_22" d="M43.6505 38.3087L41.3656 38.4483V37.2632L43.6505 37.134V38.3087Z" fill="#D8DEE8"/>
<path id="Vector_23" d="M43.6505 40.3651L41.3656 40.523V39.3379L43.6505 39.1906V40.3651Z" fill="#D8DEE8"/>
<path id="Vector_24" d="M43.6505 42.4214L41.3656 42.5975V41.4124L43.6505 41.2467V42.4214Z" fill="#D8DEE8"/>
<path id="Vector_25" d="M43.6505 44.4776L41.3656 44.6721V43.487L43.6505 43.3031V44.4776Z" fill="#D8DEE8"/>
</g>
<g id="Group_8">
<path id="Vector_26" d="M23.1162 22.2556V23.4749L30.8173 23.463V22.2605L23.1162 22.2556Z" fill="#D8DEE8"/>
</g>
<g id="Group_9">
<path id="Vector_27" d="M23.1162 17.9862V19.2054L30.8173 19.2524V18.0499L23.1162 17.9862Z" fill="#D8DEE8"/>
</g>
<g id="Group_10">
<path id="Vector_28" d="M23.1162 20.1208V21.3401L30.8173 21.3575V20.155L23.1162 20.1208Z" fill="#D8DEE8"/>
</g>
</g>
<g id="Group_11">
<path id="Vector_29" d="M3.29753 48.6962H4.38475L5.73166 45.2736C5.73166 45.2736 3.26047 45.4466 3.29753 48.6962Z" fill="url(#paint3_linear_585_780)"/>
<path id="Vector_30" d="M28.6748 54.6152L21.5985 53.3037C21.5985 53.3037 20.9563 47.8412 24.1193 47.3223C27.2824 46.8036 28.9801 51.0348 28.6748 54.6152Z" fill="url(#paint4_linear_585_780)"/>
<g id="Group_12">
<path id="Vector_31" d="M28.3264 48.1898C28.3272 48.1898 28.3281 48.19 28.3288 48.19C28.5495 48.2123 28.7521 48.2985 28.9534 48.4223C29.1469 48.5204 29.3805 48.6362 29.3805 48.784V48.7874C30.1259 49.5626 30.6164 50.9953 30.6193 52.5994C30.6232 54.7358 29.754 56.4626 28.6074 56.662L28.6099 56.6632C28.5326 56.6743 27.5721 57.0222 24.5447 56.6794C24.4645 55.3793 24.417 48.018 24.417 48.018C24.417 48.018 26.8368 47.8928 28.3264 48.1898Z" fill="url(#paint5_linear_585_780)"/>
<g id="Group_13">
<path id="Vector_32" d="M22.2823 52.189C22.2823 54.6326 23.4137 56.6578 24.7846 56.7087C26.1293 56.7586 27.1986 54.8838 27.1962 52.5243C27.1937 50.1669 26.1223 48.1519 24.7799 48.0187C23.4115 47.8827 22.2823 49.7478 22.2823 52.189Z" fill="url(#paint6_linear_585_780)"/>
<path id="Vector_33" d="M23.3551 52.2449C23.3556 53.9789 24.1095 55.4203 25.0281 55.4627C25.9348 55.5046 26.6601 54.1642 26.6584 52.4706C26.6567 50.7783 25.93 49.3415 25.0244 49.2596C24.107 49.1765 23.3546 50.5121 23.3551 52.2449Z" fill="white"/>
</g>
</g>
<g id="Group_14">
<path id="Vector_34" d="M8.39385 45.5878C8.39458 45.5878 8.39506 45.5881 8.39579 45.5881C8.57481 45.6072 8.78702 45.6816 8.95054 45.7882C9.10752 45.8727 9.06537 45.9723 9.34493 46.0997V46.1026C9.81077 46.7703 10.2996 48.0045 10.3021 49.3863C10.3052 51.2265 9.57603 52.7139 8.64603 52.8856L8.63586 52.8868C8.57312 52.8965 7.78799 53.1959 5.33205 52.9009C5.26689 51.781 5.22546 45.4403 5.22546 45.4403C5.22546 45.4403 7.18551 45.332 8.39385 45.5878Z" fill="url(#paint7_linear_585_780)"/>
<g id="Group_15">
<path id="Vector_35" d="M3.49072 49.0328C3.49072 51.1377 4.40837 52.8819 5.52078 52.926C6.61163 52.9691 7.47913 51.3543 7.47719 49.3215C7.47525 47.291 6.60606 45.5553 5.51714 45.4405C4.40667 45.3234 3.49072 46.9301 3.49072 49.0328Z" fill="url(#paint8_linear_585_780)"/>
<path id="Vector_36" d="M4.36096 49.081C4.3612 50.5747 4.97289 51.8162 5.71829 51.8528C6.454 51.8889 7.04219 50.7343 7.04097 49.2755C7.03976 47.8176 6.44989 46.5802 5.71538 46.5097C4.97095 46.438 4.36072 47.5885 4.36096 49.081Z" fill="white"/>
</g>
</g>
<g id="Group_16">
<path id="Vector_37" d="M55.0828 46.4711C55.0838 46.4711 55.0848 46.4711 55.0857 46.4711C55.3599 46.4711 55.569 46.6094 55.8202 46.732C56.0627 46.8255 56.2187 47.0116 56.312 47.171V47.1748C57.3372 48.0065 57.9215 49.672 57.9215 51.5901C57.9215 54.1424 56.8338 56.2461 55.3963 56.5349L55.4101 56.5364C55.3139 56.5531 54.1344 57.002 50.5079 56.734C50.4147 55.2534 50.3657 46.7824 50.3657 46.7824C50.3657 46.7824 53.255 46.2846 55.0828 46.4711Z" fill="url(#paint9_linear_585_780)"/>
<g id="Group_17">
<path id="Vector_38" d="M50.7948 56.7574C52.3919 56.7574 53.6866 54.5282 53.6866 51.7784C53.6866 49.0286 52.3919 46.7995 50.7948 46.7995C49.1978 46.7995 47.9031 49.0286 47.9031 51.7784C47.9031 54.5282 49.1978 56.7574 50.7948 56.7574Z" fill="url(#paint10_linear_585_780)"/>
<path id="Vector_39" d="M51.0823 55.3193C52.1599 55.3193 53.0334 53.7253 53.0334 51.7591C53.0334 49.793 52.1599 48.199 51.0823 48.199C50.0048 48.199 49.1312 49.793 49.1312 51.7591C49.1312 53.7253 50.0048 55.3193 51.0823 55.3193Z" fill="url(#paint11_linear_585_780)"/>
</g>
</g>
<path id="Vector_40" d="M2.36143 46.779C2.26041 47.2371 2.38978 47.7156 2.70785 48.0603L3.29652 48.6979C3.45786 46.8168 4.43097 45.3701 5.60855 45.3701C6.89732 45.3701 7.94433 47.107 7.94433 49.249C7.94433 49.757 7.88595 50.241 7.7779 50.6856L8.03541 50.7919L21.9442 53.368C21.9064 53.0814 21.8369 52.7844 21.8369 52.4823C21.8369 52.2096 21.8328 51.9433 21.8328 51.6824C21.8328 51.6807 21.8328 51.6807 21.8328 51.679C22.2986 49.4617 23.4331 47.7727 24.9915 47.7727C26.7335 47.7727 28.1712 49.882 28.1712 52.4823C28.1712 53.1928 28.0775 53.8656 27.8888 54.4697L29.9682 54.8542C29.9699 54.8576 29.9767 54.8997 29.9816 54.9031C30.0467 54.9736 30.5494 55.4172 33.0073 55.4172H60.133C61.3602 55.4172 62.2764 54.3462 62.2764 53.1192V53.0179C62.2764 52.5477 62.0499 52.1187 61.6294 51.9075C61.6294 51.9075 62.3803 49.7553 61.7846 47.1809C61.546 46.1528 61.108 45.0578 60.3169 44.0058C59.8571 43.3948 59.2887 42.7991 58.5746 42.2398C58.5746 42.2398 55.4878 39.6792 49.824 39.0132C49.824 39.0132 45.1295 35.6006 40.8337 33.3385C38.7157 32.223 36.3949 31.6542 34.0005 31.6542H18.2983C15.573 31.6542 12.8988 32.4134 10.5803 33.8482L6.49034 36.3749C6.49034 36.3749 5.51359 36.9568 4.51819 38.3504C3.38542 39.9345 2.22868 42.5692 2.45688 46.5869L2.36143 46.779Z" fill="url(#paint12_linear_585_780)"/>
<path id="Vector_41" d="M29.9742 54.8542C29.9759 54.8576 29.9795 54.8997 29.9843 54.9031C30.1733 55.0216 30.4117 55.6035 36.7036 55.4172H60.1326C61.3598 55.4172 62.276 54.3462 62.276 53.1192V53.0179C62.276 52.9906 62.3138 52.9646 62.3121 52.9373C62.2847 52.4995 62.0452 52.1066 61.6488 51.9074L34.3698 52.165C34.3698 52.165 31.7968 51.6965 30.9146 52.1582C30.791 52.2233 30.7026 52.3057 30.658 52.4104C30.2876 53.265 29.8026 54.4542 29.9742 54.8542Z" fill="url(#paint13_linear_585_780)"/>
<g id="Group_18">
<path id="Vector_42" d="M55.4902 47.2355V47.5909C55.4902 47.8673 55.6036 48.1299 55.8027 48.322C56.0019 48.5124 56.2696 48.6137 56.546 48.6018L59.4636 48.4783C60.164 48.4492 60.828 48.1573 61.3241 47.6614L61.8047 47.1808C61.5661 46.1527 61.1182 45.0577 60.327 44.0056C60.3168 44.0073 60.3064 44.0073 60.2962 44.009L58.8958 45.1141C58.1543 45.6994 57.2756 46.0856 56.342 46.2348C55.8507 46.3138 55.4902 46.7377 55.4902 47.2355Z" fill="white"/>
</g>
<g id="Group_19">
<path id="Vector_43" opacity="0.3" d="M42.54 46.8287C42.7319 47.0593 43.0521 47.2473 43.2505 47.2475C46.8952 47.2471 50.5362 47.2466 54.1733 47.2463C54.3715 47.2461 54.6515 47.0579 54.7957 46.828C54.9386 46.5993 54.873 46.4154 54.6496 46.4154C50.6382 46.4154 46.6219 46.4154 42.6013 46.4154C42.3789 46.4159 42.3477 46.5995 42.54 46.8287Z" fill="url(#paint14_linear_585_780)"/>
<path id="Vector_44" opacity="0.3" d="M43.7708 48.3205C43.9735 48.562 44.2676 48.7604 44.4302 48.7602C47.3917 48.7592 50.351 48.7582 53.3077 48.7573C53.4693 48.7573 53.7236 48.5596 53.875 48.3178C54.0262 48.0777 53.994 47.8844 53.8079 47.8847C50.4583 47.8854 47.1054 47.8861 43.7492 47.8869C43.562 47.8869 43.57 48.0799 43.7708 48.3205C43.7705 48.3205 43.7705 48.3205 43.7708 48.3205Z" fill="url(#paint15_linear_585_780)"/>
</g>
<path id="Vector_45" d="M39.3675 48.6772C40.0322 48.66 40.5634 48.1779 40.5634 47.5892V47.2302C40.5634 46.6704 40.0816 46.2018 39.4522 46.1469L38.2659 46.0434L31.2056 44.1842L31.3601 45.0742C31.5941 46.4189 32.6215 47.5507 34.0544 48.0422L35.1029 48.402C35.7928 48.6386 36.5305 48.7508 37.2703 48.7317L39.3675 48.6772Z" fill="white"/>
<path id="Vector_46" opacity="0.4" d="M30.92 52.1866L33.8653 52.9942H62.352C62.3246 52.5284 62.0652 52.135 61.6688 51.9359L34.3801 52.1934C34.3801 52.1934 31.8023 51.7249 30.92 52.1866Z" fill="white"/>
<g id="Group_20">
<path id="Vector_47" opacity="0.3" d="M12.3686 50.1984C12.3705 50.1984 12.372 50.1984 12.3739 50.1984C12.4686 50.0121 12.543 50.0698 12.5403 49.9751C12.5384 49.9177 12.371 44.1841 12.5398 41.8599C12.6864 39.8466 13.0236 39.4813 13.0534 39.4539C13.1275 39.4125 13.1612 39.3156 13.1287 39.2344C13.0936 39.1465 12.9933 39.101 12.9056 39.1358C12.7816 39.1855 12.364 39.5239 12.1975 41.8127C12.0272 44.1543 12.1954 49.9281 12.197 49.9857C12.2 50.079 12.2763 50.1984 12.3686 50.1984Z" fill="url(#paint16_linear_585_780)"/>
</g>
<path id="Vector_48" opacity="0.3" d="M2.36067 46.7792L2.45611 46.5868C2.22791 42.5689 3.38369 39.9347 4.51645 38.3503C5.23036 38.3915 6.18628 38.7469 6.11433 40.3668C6.0012 42.9257 6.51235 44.2474 8.45713 45.4177C9.38035 45.972 10.393 46.4493 11.2115 47.1581C11.9426 47.793 12.284 48.7678 13.0286 49.3652C14.2883 50.3744 15.9976 49.9265 17.4652 49.8594C18.8022 49.7976 21.8322 49.7342 21.8322 51.6787C21.8322 51.6804 21.8322 51.6804 21.8322 51.6821C21.8322 51.943 21.8364 52.209 21.8364 52.482C21.8364 52.7841 21.9088 53.0808 21.9466 53.3677L8.03658 50.7916L7.77835 50.6852C7.88639 50.2407 7.94429 49.7567 7.94429 49.2487C7.94429 47.1067 6.89728 45.3698 5.60827 45.3698C4.43093 45.3698 3.45757 46.8165 3.29623 48.6976L2.70733 48.06C2.38949 47.7155 2.25989 47.237 2.36067 46.7792Z" fill="url(#paint17_linear_585_780)"/>
<g id="Group_21">
<g id="Group_22">
<path id="Vector_49" d="M21.1647 32.8654C21.1647 32.8654 22.9958 37.5515 23.4525 38.238C23.4954 38.3015 23.5504 38.3962 23.6155 38.4512C24.2488 38.9798 25.7987 39.1089 25.7987 39.1089H48.6252C43.5331 35.1949 39.1857 32.8652 39.1857 32.8652H21.1647V32.8654Z" fill="url(#paint18_linear_585_780)"/>
<g id="Group_23">
<path id="Vector_50" d="M7.13403 36.8041C7.13403 36.8041 9.56961 37.7995 12.8407 38.7365C12.9471 38.2319 13.1188 37.5986 13.3952 36.9017C13.9032 35.6127 14.7647 34.1042 16.2271 32.774C15.0961 32.8564 13.771 33.0761 12.3741 33.5635C10.6593 34.1609 8.83826 35.1616 7.13403 36.8041Z" fill="url(#paint19_linear_585_780)"/>
<path id="Vector_51" d="M13.6782 38.9701C15.3086 39.4112 17.1005 39.8196 18.8786 40.0805C19.8912 40.2281 20.8987 40.3276 21.8685 40.3569C22.1516 40.3654 22.4331 40.369 22.7095 40.3654C22.7095 40.3654 22.7095 40.3637 22.7079 40.362C22.665 40.1801 20.9297 33.0679 19.32 32.8566C18.9493 32.8087 18.3641 32.7467 17.6259 32.7348C15.8873 34.0202 14.8815 35.618 14.3049 36.9843C13.9803 37.7515 13.7899 38.4449 13.6782 38.9701Z" fill="url(#paint20_linear_585_780)"/>
</g>
</g>
<path id="Vector_52" opacity="0.3" d="M23.6156 38.4492C24.2488 38.9778 25.7988 39.1091 25.7988 39.1091H48.6253C43.5332 35.195 39.1857 32.8653 39.1857 32.8653H38.8631C38.3585 33.0516 37.864 33.5007 37.4265 34.1238C35.6605 36.6415 25.9034 34.7333 23.6156 38.4492Z" fill="url(#paint21_linear_585_780)"/>
<path id="Vector_53" opacity="0.3" d="M21.8684 40.3567C22.1516 40.3651 22.4331 40.3688 22.7095 40.3651C22.7095 40.3651 22.7095 40.3634 22.7078 40.3617C22.4794 40.36 22.1962 40.3584 21.8684 40.3567Z" fill="url(#paint22_linear_585_780)"/>
<path id="Vector_54" opacity="0.3" d="M14.305 36.9844C13.9807 37.7516 13.7903 38.4449 13.6786 38.9701C15.3089 39.4112 17.1009 39.8197 18.879 40.0806C18.6285 39.8318 18.3966 39.5176 18.1944 39.1246C17.3102 37.4168 15.7501 37.1234 14.305 36.9844Z" fill="url(#paint23_linear_585_780)"/>
<path id="Vector_55" opacity="0.3" d="M7.13403 36.8041C7.13403 36.8041 9.56961 37.7995 12.8407 38.7365C12.9471 38.2319 13.1188 37.5986 13.3952 36.9017C12.5234 36.8142 11.7697 36.6786 11.339 36.1602C10.5837 35.2471 11.5209 34.2241 12.3739 33.5635C10.6593 34.1609 8.83826 35.1616 7.13403 36.8041Z" fill="url(#paint24_linear_585_780)"/>
</g>
<g id="Group_24">
<path id="Vector_56" d="M22.7721 40.6995C22.7721 40.6995 22.0495 37.8475 21.0228 37.7334C19.9961 37.6193 17.0681 36.7828 16.8018 38.1898C16.5356 39.5968 17.0681 40.2988 18.5511 40.385C20.0342 40.4713 21.0228 40.385 21.0228 40.385L21.7074 41.1178C21.7074 41.1178 22.8101 41.8783 22.7721 40.6995Z" fill="url(#paint25_linear_585_780)"/>
<path id="Vector_57" d="M23.1144 40.6995C23.1144 40.6995 22.392 37.8475 21.3651 37.7334C20.3384 37.6193 17.4104 36.7828 17.1441 38.1898C16.8779 39.5968 17.4104 40.2988 18.8934 40.3851C20.3765 40.4713 21.3651 40.3851 21.3651 40.3851L22.0494 41.1179C22.0497 41.1179 23.1524 41.8783 23.1144 40.6995Z" fill="white"/>
</g>
</g>
</g>
</g>
</g>
<defs>
<linearGradient id="paint0_linear_585_780" x1="15.4332" y1="31.4382" x2="48.7372" y2="31.4382" gradientUnits="userSpaceOnUse">
<stop stop-color="#444B8C"/>
<stop offset="0.9964" stop-color="#26264F"/>
</linearGradient>
<linearGradient id="paint1_linear_585_780" x1="16.5372" y1="31.4247" x2="48.7825" y2="31.4247" gradientUnits="userSpaceOnUse">
<stop offset="0.00359712" stop-color="#E38DDD"/>
<stop offset="1" stop-color="#9571F6"/>
</linearGradient>
<linearGradient id="paint2_linear_585_780" x1="25.0351" y1="11.0391" x2="41.6933" y2="11.0391" gradientUnits="userSpaceOnUse">
<stop stop-color="#444B8C"/>
<stop offset="0.9964" stop-color="#26264F"/>
</linearGradient>
<linearGradient id="paint3_linear_585_780" x1="6.02128" y1="48.4704" x2="4.59149" y2="47.0607" gradientUnits="userSpaceOnUse">
<stop stop-color="#FF9085"/>
<stop offset="1" stop-color="#FB6FBB"/>
</linearGradient>
<linearGradient id="paint4_linear_585_780" x1="31.5554" y1="58.0106" x2="25.2575" y2="51.8015" gradientUnits="userSpaceOnUse">
<stop stop-color="#FF9085"/>
<stop offset="1" stop-color="#FB6FBB"/>
</linearGradient>
<linearGradient id="paint5_linear_585_780" x1="30.6195" y1="52.4107" x2="24.4171" y2="52.4107" gradientUnits="userSpaceOnUse">
<stop stop-color="#444B8C"/>
<stop offset="0.9964" stop-color="#3E4177"/>
</linearGradient>
<linearGradient id="paint6_linear_585_780" x1="20.8832" y1="44.8034" x2="27.1983" y2="57.1839" gradientUnits="userSpaceOnUse">
<stop stop-color="#EBEFF2"/>
<stop offset="0.9946" stop-color="#B7C0CE"/>
</linearGradient>
<linearGradient id="paint7_linear_585_780" x1="10.3022" y1="49.2238" x2="5.22559" y2="49.2238" gradientUnits="userSpaceOnUse">
<stop stop-color="#444B8C"/>
<stop offset="0.9964" stop-color="#3E4177"/>
</linearGradient>
<linearGradient id="paint8_linear_585_780" x1="2.17857" y1="42.7026" x2="7.59186" y2="53.3151" gradientUnits="userSpaceOnUse">
<stop stop-color="#EBEFF2"/>
<stop offset="0.9946" stop-color="#B7C0CE"/>
</linearGradient>
<linearGradient id="paint9_linear_585_780" x1="57.9216" y1="51.6241" x2="50.3658" y2="51.6241" gradientUnits="userSpaceOnUse">
<stop stop-color="#444B8C"/>
<stop offset="0.9964" stop-color="#3E4177"/>
</linearGradient>
<linearGradient id="paint10_linear_585_780" x1="46.4177" y1="43.1973" x2="53.5883" y2="57.2548" gradientUnits="userSpaceOnUse">
<stop stop-color="#444B8C"/>
<stop offset="0.9964" stop-color="#3E4177"/>
</linearGradient>
<linearGradient id="paint11_linear_585_780" x1="53.0336" y1="51.7591" x2="49.1312" y2="51.7591" gradientUnits="userSpaceOnUse">
<stop stop-color="#444B8C"/>
<stop offset="0.9964" stop-color="#3E4177"/>
</linearGradient>
<linearGradient id="paint12_linear_585_780" x1="48.8789" y1="67.9271" x2="103.219" y2="136.432" gradientUnits="userSpaceOnUse">
<stop stop-color="#FF6051"/>
<stop offset="1" stop-color="#FB6FBB"/>
</linearGradient>
<linearGradient id="paint13_linear_585_780" x1="44.7268" y1="45.9773" x2="48.1873" y2="65.3279" gradientUnits="userSpaceOnUse">
<stop stop-color="#EBEFF2"/>
<stop offset="0.9946" stop-color="#B7C0CE"/>
</linearGradient>
<linearGradient id="paint14_linear_585_780" x1="54.8712" y1="46.8314" x2="42.4132" y2="46.8314" gradientUnits="userSpaceOnUse">
<stop stop-color="#FF9085"/>
<stop offset="1" stop-color="#FB6FBB"/>
</linearGradient>
<linearGradient id="paint15_linear_585_780" x1="53.9704" y1="48.3223" x2="43.6143" y2="48.3223" gradientUnits="userSpaceOnUse">
<stop stop-color="#FF9085"/>
<stop offset="1" stop-color="#FB6FBB"/>
</linearGradient>
<linearGradient id="paint16_linear_585_780" x1="20.3477" y1="48.1615" x2="11.8158" y2="44.2698" gradientUnits="userSpaceOnUse">
<stop stop-color="#FF9085"/>
<stop offset="1" stop-color="#FB6FBB"/>
</linearGradient>
<linearGradient id="paint17_linear_585_780" x1="19.0691" y1="56.2865" x2="2.72255" y2="40.1701" gradientUnits="userSpaceOnUse">
<stop stop-color="#FF9085"/>
<stop offset="1" stop-color="#FB6FBB"/>
</linearGradient>
<linearGradient id="paint18_linear_585_780" x1="48.6252" y1="35.9873" x2="21.1647" y2="35.9873" gradientUnits="userSpaceOnUse">
<stop stop-color="#444B8C"/>
<stop offset="0.9964" stop-color="#3E4177"/>
</linearGradient>
<linearGradient id="paint19_linear_585_780" x1="16.227" y1="35.7554" x2="7.13411" y2="35.7554" gradientUnits="userSpaceOnUse">
<stop stop-color="#444B8C"/>
<stop offset="0.9964" stop-color="#3E4177"/>
</linearGradient>
<linearGradient id="paint20_linear_585_780" x1="22.7094" y1="36.5507" x2="13.6783" y2="36.5507" gradientUnits="userSpaceOnUse">
<stop stop-color="#444B8C"/>
<stop offset="0.9964" stop-color="#3E4177"/>
</linearGradient>
<linearGradient id="paint21_linear_585_780" x1="42.6265" y1="45.1935" x2="29.5571" y2="32.3081" gradientUnits="userSpaceOnUse">
<stop stop-color="#444B8C"/>
<stop offset="0.9964" stop-color="#3E4177"/>
</linearGradient>
<linearGradient id="paint22_linear_585_780" x1="22.5047" y1="40.5729" x2="22.074" y2="40.1481" gradientUnits="userSpaceOnUse">
<stop stop-color="#444B8C"/>
<stop offset="0.9964" stop-color="#3E4177"/>
</linearGradient>
<linearGradient id="paint23_linear_585_780" x1="18.0128" y1="40.9588" x2="14.1456" y2="37.146" gradientUnits="userSpaceOnUse">
<stop stop-color="#444B8C"/>
<stop offset="0.9964" stop-color="#3E4177"/>
</linearGradient>
<linearGradient id="paint24_linear_585_780" x1="13.0954" y1="38.4782" x2="9.23549" y2="34.6726" gradientUnits="userSpaceOnUse">
<stop stop-color="#444B8C"/>
<stop offset="0.9964" stop-color="#3E4177"/>
</linearGradient>
<linearGradient id="paint25_linear_585_780" x1="20.9983" y1="40.6031" x2="15.5985" y2="35.2794" gradientUnits="userSpaceOnUse">
<stop stop-color="#FF9085"/>
<stop offset="1" stop-color="#FB6FBB"/>
</linearGradient>
</defs>
</svg>
