<svg width="65" height="65" viewBox="0 0 65 65" fill="none" xmlns="http://www.w3.org/2000/svg">
<g id="Group 1">
<circle id="Ellipse 2" cx="32.75" cy="32.25" r="32" fill="#FFFBF7"/>
<mask id="mask0_585_1324" style="mask-type:alpha" maskUnits="userSpaceOnUse" x="0" y="0" width="65" height="65">
<circle id="Ellipse 1" cx="32.75" cy="32.25" r="32" fill="#FFFBF7"/>
</mask>
<g mask="url(#mask0_585_1324)">
<g id="_x32_1_00000049921373621762376150000005876157897181569946_">
<g id="Group">
<g id="Group_2">
<path id="Vector" d="M35.1279 44.0302C41.1821 43.7553 45.6438 38.3555 44.7009 32.4665C44.3364 30.19 42.8907 27.5714 40.6332 27.1206C39.8885 26.9219 39.1226 26.6454 38.6118 26.0283C37.8233 25.0435 37.481 23.2235 37.2928 21.9501C37.1736 21.2021 37.2493 20.0724 37.2431 20.1698C37.2573 19.9499 37.2928 19.7443 37.321 19.5387C37.3519 19.044 37.5441 18.346 37.6684 17.9571C35.5666 18.3955 33.0575 18.5439 30.6257 18.2622C31.4681 21.2088 30.8586 25.4881 28.2781 27.2624C27.5046 27.7943 26.4623 27.6863 25.6468 28.2438C24.2964 29.1667 23.8205 30.9474 23.7892 32.5828C23.6629 39.2028 29.0316 44.307 35.1279 44.0302Z" fill="#FEC3A5"/>
</g>
</g>
<g id="Group_3">
<g id="Group_4">
<path id="Vector_2" d="M37.1611 30.3353C38.1165 29.3669 38.8117 28.1724 39.4009 26.9462C39.8438 27.6772 39.8547 28.6059 39.6237 29.4288C39.3927 30.2516 38.9433 30.9934 38.499 31.7237C37.7257 32.9949 36.925 34.297 35.7414 35.1986C34.3349 36.27 32.3932 36.6645 30.7282 36.0695C29.0633 35.4745 27.7772 33.8421 27.7433 32.0744C27.725 31.125 28.0402 30.2046 28.3516 29.3076C28.5689 28.6815 28.7412 27.9863 29.0301 27.398C29.096 28.26 29.1709 29.1844 29.5595 30.0375C30.7102 32.5636 34.3614 33.1729 37.1611 30.3353Z" fill="#FCAA86"/>
</g>
</g>
<g id="Group_5">
<g id="Group_6">
<path id="Vector_3" d="M37.4255 18.8702C37.3412 19.2236 37.2549 20.0064 37.2433 20.1662C35.7796 22.5794 33.1353 23.7371 30.4301 24.5229C30.7996 23.4807 31.0603 21.5102 30.9297 19.9426C33.21 20.659 35.5966 20.2082 37.4255 18.8702Z" fill="#FCAA86"/>
</g>
</g>
<g id="Group_7">
<g id="Group_8">
<path id="Vector_4" d="M33.5828 27.3219C33.3749 27.1967 33.3407 26.9316 33.3349 26.6886C33.3038 25.3914 33.3334 24.0749 33.423 22.7748C33.4291 22.6922 33.5535 22.7004 33.5477 22.7836C33.4581 24.0798 33.4284 25.3924 33.4596 26.6858C33.465 26.8947 33.4913 27.1208 33.6471 27.2147C33.804 27.3096 34.0232 27.2123 34.1293 27.0617C34.2477 26.8941 34.274 26.671 34.2974 26.4738C34.3078 26.393 34.4306 26.4061 34.4211 26.4884C34.3962 26.7003 34.3679 26.9404 34.2306 27.1337C34.0899 27.3335 33.8033 27.4537 33.5828 27.3219Z" fill="#FF9B78"/>
</g>
</g>
<g id="Group_9">
<g id="Group_10">
<path id="Vector_5" d="M27.1447 11.9825C27.124 12.9421 27.1654 13.8893 27.2441 14.8434C27.4573 17.4259 29.0427 20.6357 31.4929 21.6056C34.1784 22.6687 37.6111 21.1255 38.9836 17.3875C39.6568 15.5541 39.6779 13.5212 39.6786 11.5861C39.7077 11.1498 39.7785 10.7071 39.8133 10.2706L39.8319 9.98979C40.0145 5.60619 37.7206 4.53581 33.3049 4.85475C32.4555 4.91518 31.5992 5.0832 30.7626 5.22102C29.9381 5.35288 29.1945 6.13542 28.6501 6.7669C27.9398 7.58502 27.3934 8.59884 27.2092 9.68171C27.0888 10.4235 27.1538 11.3132 27.1447 11.9825Z" fill="#FEC3A5"/>
</g>
</g>
<g id="Group_11">
<g id="Group_12">
<path id="Vector_6" d="M40.5551 12.0291C40.9129 12.0215 41.4627 12.3419 41.8586 12.5431C42.0038 12.6168 42.0823 12.7516 42.0666 12.9023C41.9535 13.9994 41.7455 15.081 41.5538 16.1759C41.4668 16.6721 41.2091 16.9096 40.7941 17.2232C40.588 17.379 40.3072 17.438 40.0634 17.3774C39.406 17.2144 38.7909 17.0754 38.8094 16.381C38.8323 15.5191 38.954 14.5997 39.0572 13.7321C39.0895 13.4614 39.0241 13.02 39.2283 12.7768C39.4182 12.5515 40.2308 12.0359 40.5551 12.0291Z" fill="#FEC3A5"/>
</g>
</g>
<g id="Group_13">
<g id="Group_14">
<path id="Vector_7" d="M39.5708 15.5251C39.5574 15.793 39.6801 16.0437 39.8603 16.2473C40.4681 16.9345 41.1972 15.726 40.9311 15.1813C40.6169 14.5376 39.6052 14.8352 39.5708 15.5251Z" fill="#FCAA86"/>
</g>
</g>
<g id="Group_15">
<g id="Group_16">
<path id="Vector_8" d="M40.2927 16.0627C40.1747 16.0627 39.9111 16.0136 39.9708 15.905C39.9883 15.8748 40.0263 15.8641 40.0555 15.8806C40.1656 15.9419 40.318 15.9551 40.4564 15.9142C40.8874 15.7879 40.9608 15.1405 41.0288 14.8388C41.0629 14.6888 41.1418 14.3371 40.9713 13.6026C40.9304 13.4239 40.8822 13.2816 40.7814 13.1695C40.5686 12.9332 40.1977 12.9576 40.0665 13.186C40.0474 13.2192 40.0285 13.2694 40.0461 13.3195C40.0727 13.396 39.9565 13.4396 39.9282 13.3605C39.8548 13.1514 40.0749 12.9314 40.2989 12.8885C40.5064 12.8515 40.7314 12.9271 40.8742 13.0857C40.9998 13.2261 41.0539 13.4033 41.0934 13.5743C41.2702 14.3366 41.1864 14.7078 41.1508 14.8666C41.147 14.8831 41.1435 14.8977 41.1416 14.9095C41.0788 15.2616 40.9663 15.8949 40.4918 16.0342C40.4262 16.0529 40.3591 16.0627 40.2927 16.0627Z" fill="#FF9B78"/>
</g>
</g>
<g id="Group_17">
<g id="Group_18">
<path id="Vector_9" d="M32.0775 15.3351C31.5587 15.1179 31.5346 14.8116 31.7668 14.3623C32.3458 13.2428 32.9446 12.2284 32.8471 10.9653C32.8413 10.8823 32.9644 10.873 32.9718 10.9556C33.1201 12.884 31.6018 14.4274 31.7644 14.9146C31.8049 15.0368 31.9193 15.1339 32.1253 15.22C32.591 15.4134 33.1175 15.4635 33.6119 15.3651C33.6877 15.3456 33.7204 15.4701 33.6363 15.4869C33.1101 15.594 32.5579 15.5351 32.0775 15.3351Z" fill="#26252F"/>
</g>
</g>
<g id="Group_19">
<g id="Group_20">
<path id="Vector_10" d="M37.2911 12.4092C36.3685 11.6854 35.3135 11.5367 34.3199 11.9893C34.2467 12.0242 34.1924 11.9108 34.2683 11.8764C35.2659 11.4205 36.3209 11.5457 37.2541 12.2246C37.1883 11.8691 36.8848 11.5028 36.5224 11.3648C36.4477 11.3354 36.486 11.2212 36.5672 11.248C37.2469 11.5073 37.4987 12.345 37.3568 12.416C37.3365 12.4261 37.3103 12.4242 37.2911 12.4092Z" fill="#26252F"/>
</g>
</g>
<g id="Group_21">
<g id="Group_22">
<path id="Vector_11" d="M36.1955 12.2475C36.1833 12.623 35.9909 12.9332 35.7359 12.9408C35.4826 12.9483 35.2772 12.6534 35.2756 12.2822C35.2741 11.9109 35.4768 11.6029 35.7301 11.5891C36.0904 11.5693 36.2078 11.8711 36.1955 12.2475Z" fill="#273454"/>
</g>
</g>
<g id="Group_23">
<g id="Group_24">
<path id="Vector_12" d="M37.9771 10.696C37.3812 10.1669 36.5683 9.42302 35.6912 9.65534C35.2927 9.76086 34.6473 9.79643 34.3058 10.049C34.1132 10.1914 34.19 10.6326 34.4552 10.6637C34.5981 10.6806 34.8206 10.5779 34.956 10.5421C36.1657 10.2213 36.055 10.1724 36.5577 10.3304C36.9194 10.444 37.2687 10.5973 37.5964 10.7879C37.6925 10.8439 37.8775 11.0645 38.0002 11.0265C38.1655 10.9755 38.0966 10.8021 37.9771 10.696Z" fill="#273454"/>
</g>
</g>
<g id="Group_25">
<g id="Group_26">
<path id="Vector_13" d="M28.9936 11.6829C29.0525 11.2459 29.4831 10.7988 29.9537 10.6863C30.0296 10.6637 30.0657 10.788 29.9828 10.8072C29.6063 10.8978 29.2585 11.2221 29.1474 11.5665C30.1605 11.0122 31.2224 11.0234 32.1538 11.6025C32.2242 11.6471 32.1566 11.7521 32.0876 11.7086C31.1607 11.1323 30.0949 11.1445 29.0876 11.7446C29.0418 11.7708 28.9872 11.7352 28.9936 11.6829Z" fill="#26252F"/>
</g>
</g>
<g id="Group_27">
<g id="Group_28">
<path id="Vector_14" d="M30.1946 11.7245C30.1588 12.0983 30.31 12.4307 30.5618 12.4709C30.812 12.5108 31.0535 12.2445 31.1025 11.8764C31.1514 11.5084 30.9897 11.1771 30.7404 11.131C30.3856 11.0653 30.2305 11.3496 30.1946 11.7245Z" fill="#273454"/>
</g>
</g>
<g id="Group_29">
<g id="Group_30">
<path id="Vector_15" d="M28.626 9.95825C29.2847 9.50983 30.186 8.87596 31.0262 9.21842C31.4081 9.37409 32.0436 9.49182 32.3499 9.78605C32.5227 9.952 32.3902 10.3796 32.1231 10.3766C31.9791 10.3751 31.7717 10.2449 31.6419 10.1921C30.4831 9.71923 30.5992 9.68485 30.0804 9.77727C29.7073 9.84365 29.3411 9.9511 28.9917 10.0983C28.8893 10.1415 28.6775 10.3367 28.5607 10.2833C28.4034 10.2113 28.494 10.0481 28.626 9.95825Z" fill="#273454"/>
</g>
</g>
<g id="Group_31">
<g id="Group_32">
<path id="Vector_16" d="M33.3723 18.031C33.2931 18.031 33.2879 17.913 33.3673 17.9063C33.7034 17.8791 34.1901 17.3067 34.3382 16.9784C33.9792 17.218 33.6056 17.4552 33.1736 17.559C32.6183 17.6929 32.0641 17.5487 31.7595 17.1927C31.7058 17.1308 31.8006 17.0482 31.8541 17.1119C32.1283 17.4314 32.6333 17.5596 33.1444 17.4383C33.6079 17.3268 34.013 17.0468 34.4103 16.7807C34.4514 16.7513 34.5095 16.7842 34.5072 16.8354C34.4926 17.1399 33.856 17.9918 33.3772 18.0312C33.3757 18.031 33.3737 18.031 33.3723 18.031Z" fill="#26252F"/>
</g>
</g>
<g id="Group_33">
<g id="Group_34">
<path id="Vector_17" d="M28.7019 4.04141C28.4812 4.36362 28.4666 4.78406 28.2441 5.08514C28.1222 5.25005 27.9168 5.32461 27.7351 5.41956C27.1374 5.7321 26.7629 6.32013 26.5596 6.94684C26.3288 7.65884 26.5175 8.13658 26.6016 8.84292C26.8153 10.639 26.991 12.4404 27.1855 14.2386C26.9907 12.4379 27.6381 10.3675 29.0116 8.87938C29.3695 8.49154 30.1671 8.11559 30.1044 7.51254C30.0748 7.22679 29.8857 6.95414 29.9488 6.67389C30.0224 6.34677 30.3932 6.19213 30.7196 6.11534C32.945 5.59191 35.3752 6.27384 37.4843 6.97319C37.7598 7.06457 38.0407 7.15937 38.2714 7.33543C39.2582 8.08791 37.9034 9.00187 38.1326 9.91077C38.3284 10.6871 39.0498 11.1456 39.1333 11.9537C39.2346 12.935 39.2805 13.9509 39.1745 14.9382C39.2653 14.0927 40.2537 11.7778 41.3727 12.252C41.7762 11.3133 41.7936 10.2605 41.8048 9.23881C41.8217 7.69233 41.8411 7.40122 41.754 7.01084C41.6056 6.34513 41.1172 5.76485 40.4866 5.50499C40.6037 4.66068 40.1985 3.76563 39.4868 3.29637C37.0449 1.68664 35.0677 1.36695 32.5412 1.87342C30.9867 2.18492 29.5935 2.7399 28.7019 4.04141Z" fill="#64677A"/>
</g>
</g>
<g id="Group_35">
<g id="Group_36">
<path id="Vector_18" d="M26.5099 10.9609C26.1521 10.9533 25.6025 11.2737 25.2065 11.475C25.0612 11.5488 24.9828 11.6835 24.9984 11.8341C25.1115 12.9313 25.3196 14.0128 25.5113 15.1077C25.5982 15.6039 25.856 15.8415 26.2709 16.155C26.477 16.3109 26.7579 16.3698 27.0017 16.3092C27.659 16.1463 28.2741 16.0072 28.2557 15.3128C28.2328 14.4509 28.111 13.5315 28.0079 12.664C27.9756 12.3932 28.0409 11.9518 27.8367 11.7086C27.6467 11.4833 26.8341 10.9678 26.5099 10.9609Z" fill="#FEC3A5"/>
</g>
</g>
<g id="Group_37">
<g id="Group_38">
<path id="Vector_19" d="M27.4941 14.4569C27.5075 14.7247 27.3848 14.9755 27.2046 15.1791C26.5968 15.8663 25.8677 14.6578 26.1338 14.1131C26.448 13.4695 27.4595 13.7672 27.4941 14.4569Z" fill="#FCAA86"/>
</g>
</g>
<g id="Group_39">
<g id="Group_40">
<path id="Vector_20" d="M26.5728 14.9659C26.0983 14.8262 25.9858 14.1924 25.9249 13.8519C25.9211 13.8295 25.9176 13.8149 25.9138 13.7983C25.8782 13.6395 25.7944 13.2684 25.9712 12.5061C26.0107 12.3351 26.0647 12.1574 26.1909 12.0175C26.4519 11.7289 26.9254 11.7423 27.1062 12.0554C27.1514 12.1343 27.1621 12.2185 27.1364 12.2922C27.1077 12.3723 26.992 12.3273 27.0185 12.2513C27.0361 12.2011 27.017 12.151 26.9981 12.1178C26.8643 11.885 26.4918 11.87 26.2836 12.1013C26.1823 12.2133 26.134 12.3555 26.0931 12.5343C25.9313 13.2315 25.9912 13.5235 26.0459 13.8187C26.1038 14.1441 26.2077 14.7287 26.6081 14.846C26.7459 14.8864 26.8993 14.8732 27.009 14.8123C27.0775 14.7717 27.1434 14.8796 27.0694 14.9214C26.9368 14.9951 26.7552 15.0189 26.5728 14.9659Z" fill="#FF9B78"/>
</g>
</g>
<g id="Group_41">
<g id="Group_42">
<path id="Vector_21" d="M29.0333 32.9831C31.9466 34.1723 35.3213 34.1846 38.2432 33.0166C37.5923 35.8741 36.7733 38.9278 36.1223 41.7853C36.0057 42.297 35.8844 42.8201 35.6017 43.2623C35.3189 43.7045 34.838 44.057 34.3136 44.0399C33.597 44.0164 33.0851 43.3581 32.708 42.7484C30.8393 39.7264 29.5254 36.5022 29.0333 32.9831Z" fill="#7F5C62"/>
</g>
</g>
<g id="Group_43">
<g id="Group_44">
<path id="Vector_22" d="M52.3922 55.114C51.634 56.2213 50.2176 56.1814 49.0304 56.2064C49.0654 56.2064 49.3497 58.5955 49.3696 58.7601C49.4644 59.668 49.2998 60.6256 48.6514 61.309C48.1675 61.8177 47.529 62.1519 46.8956 62.4462C42.0203 64.6962 36.6054 65.2921 31.1891 65.379C28.1657 65.4224 25.1909 65.3154 22.5852 65.0996C21.2585 64.9949 20.0864 64.6858 18.8094 64.3714C17.9265 64.157 16.7745 64.1769 16.5401 63.0596C16.4353 62.5709 17.2982 58.7152 17.3629 58.7152C15.9962 58.7701 14.2405 59.0145 12.9836 58.2962C12.4549 57.9969 12.1207 57.4333 11.9561 56.8498C11.6918 55.8821 11.8863 54.9195 11.8464 53.9369C11.5695 47.3092 12.5294 38.8272 15.7419 32.9581C16.4601 31.6563 17.4677 29.7111 18.7545 28.8932C20.1661 27.9904 22.1461 27.7261 23.7623 27.4367C25.5138 27.1284 27.6154 26.4278 29.4832 26.09C29.3935 26.2497 28.4657 29.352 30.8199 34.3598C32.0056 36.8765 33.2117 39.4023 34.5458 41.8414C34.4162 41.5971 34.8252 40.5246 34.895 40.2403C35.5128 37.684 35.0511 35.5094 37.2692 31.3371C37.5486 30.8134 37.9226 30.3545 38.2121 29.8558C38.5612 29.2423 38.7358 28.4492 38.98 27.7859C39.1847 27.2223 38.9401 26.4841 38.5212 25.8057C39.5444 26.1299 41.0645 26.7826 42.1722 27.1425C46.0582 28.386 47.6549 28.7728 48.9108 29.7711C52.7086 32.8095 51.2816 39.7651 52.6166 45.288C52.9309 46.5849 52.8361 47.7868 52.9608 49.0638C53.11 50.6244 53.3125 53.7992 52.3922 55.114Z" fill="#FF90B0"/>
</g>
</g>
<g id="Group_45">
<g id="Group_46">
<path id="Vector_23" d="M31.6778 36.1703C31.1441 36.2501 30.5855 36.0705 30.2463 35.5668C29.3784 34.2601 28.5454 32.8485 28.0566 31.3521C27.5231 29.7362 27.4381 27.8956 28.1763 26.3694C28.6301 26.2597 29.0691 26.1649 29.4832 26.09C29.3934 26.2497 28.4656 29.352 30.8198 34.3598C31.1042 34.9633 31.3886 35.5668 31.6778 36.1703Z" fill="#F16997"/>
</g>
</g>
<g id="Group_47">
<g id="Group_48">
<path id="Vector_24" d="M40.137 27.8933C39.748 29.674 39.0098 31.3747 37.9822 32.8811C37.3738 33.7739 36.6605 34.6118 36.2116 35.6044C36.0694 35.9134 35.8137 37.3104 35.5081 37.3347C35.358 37.3466 35.2213 37.2295 35.163 37.0906C35.1045 36.9517 35.1076 36.7955 35.1149 36.645C35.1922 35.0502 35.6449 33.4764 36.4155 32.0786C37.1549 30.7377 38.2671 29.6541 38.8783 28.225C39.243 27.3725 38.8697 26.4836 38.3909 25.7088C38.8947 25.8683 39.6131 26.1875 40.2066 26.4169C40.3116 26.8806 40.2467 27.4143 40.137 27.8933Z" fill="#F16997"/>
</g>
</g>
<g id="Group_49">
<g id="Group_50">
<path id="Vector_25" d="M46.2703 44.5258C45.8461 44.4716 45.0011 44.3604 44.6163 44.3126C44.6553 41.8195 45.252 39.337 46.353 37.1C46.1207 46.8639 46.2237 41.6845 46.2703 44.5258Z" fill="#F16997"/>
</g>
</g>
<g id="Group_51">
<g id="Group_52">
<path id="Vector_26" d="M20.6414 48.0372C20.1447 47.9554 20.5543 47.9891 18.8267 47.8893C18.8909 47.3132 19.5069 46.0195 19.7408 45.3192C20.3336 43.5484 20.8457 41.7502 21.2741 39.9327C21.757 42.6294 21.536 45.4488 20.6414 48.0372Z" fill="#F16997"/>
</g>
</g>
<g id="Group_53">
<g id="Group_54">
<path id="Vector_27" d="M42.2817 64.1857C36.9776 65.5682 30.4174 65.6598 24.9375 65.3626C25.1274 63.6628 25.291 61.9329 25.6666 60.2896C26.1417 58.2113 27.0082 56.2311 27.5756 54.1761C28.556 50.6198 29.2949 46.9964 29.7854 43.3409C29.799 43.2328 34.3603 43.3459 34.7358 43.3409C35.4503 43.3302 36.4336 43.0382 37.009 43.5638C37.784 44.2715 37.7606 46.0199 37.8375 46.9722C38.2145 51.5942 39.2788 56.1655 40.9908 60.5059C41.1103 60.8102 42.6539 64.0864 42.2817 64.1857Z" fill="#7F5C62"/>
</g>
</g>
<g id="Group_55">
<g id="Group_56">
<path id="Vector_28" d="M42.2817 64.1859C36.9776 65.5683 30.4174 65.66 24.9375 65.3628C25.1274 63.663 25.291 61.9331 25.6666 60.2898C26.1417 58.2114 27.0082 56.2313 27.5756 54.1763C28.556 50.62 29.2949 46.9966 29.7854 43.3411C29.7874 43.3254 29.8905 43.3138 30.0648 43.307C30.1679 44.5638 29.8185 46.0367 29.6502 47.1748C29.2141 50.1333 28.7749 53.0917 28.3369 56.0503C28.0741 57.8279 27.8522 59.7983 28.8636 61.283C30.1486 63.1686 32.7839 63.414 35.0659 63.4743C37.4665 63.5395 39.8683 63.6038 42.2689 63.6681C42.3508 63.964 42.3692 64.1625 42.2817 64.1859Z" fill="#674E63"/>
</g>
</g>
<g id="Group_57">
<g id="Group_58">
<path id="Vector_29" d="M18.1557 58.7533C17.2331 55.6417 18.2892 50.3919 20.3281 47.9506C20.3811 47.8869 20.4766 47.9681 20.4235 48.0305C18.4064 50.4455 17.3627 55.6393 18.2755 58.7182C18.2988 58.7969 18.1796 58.8323 18.1557 58.7533Z" fill="#F16997"/>
</g>
</g>
<g id="Group_59">
<g id="Group_60">
<path id="Vector_30" d="M45.9333 55.519C46.5767 52.3496 46.6528 47.5336 45.5514 44.4616C45.5237 44.3856 45.6416 44.3395 45.6682 44.4198C46.7773 47.5134 46.7023 52.3575 46.0551 55.5434C46.0387 55.6263 45.9161 55.5982 45.9333 55.519Z" fill="#F16997"/>
</g>
</g>
<g id="Group_61">
<g id="Group_62">
<path id="Vector_31" d="M21.8265 34.2876L22.9357 33.1784C22.9357 33.1784 33.0647 33.536 34.1739 36.1888C34.1739 36.1888 38.2837 33.9111 44.5188 35.3692L46.2517 37.3102L38.2435 37.9073L31.9846 38.1116L27.1099 37.7029" fill="white"/>
</g>
</g>
<g id="Group_63">
<g id="Group_64">
<path id="Vector_32" d="M46.5164 36.7239C46.5068 36.7768 45.1244 44.4782 45.1348 44.42C43.051 44.1492 48.5459 44.8588 40.1072 43.7766C41.5211 46.615 41.9798 50.2371 41.2145 53.2983C41.1945 53.378 41.1746 53.4529 41.1596 53.5276L34.88 53.9416C34.8302 55.2583 31.7328 55.1486 31.7776 53.8269L31.7476 53.8169L25.1937 51.8168C25.6757 50.5241 26.2818 49.4872 26.7997 48.8341C24.66 48.2606 22.5152 48.4301 20.3755 48.0311C22.173 28.906 21.553 35.5022 21.6873 34.0752L32.6006 35.5516C32.5955 35.5665 32.5955 35.5864 32.5955 35.6065C32.6106 36.4145 35.4734 36.7836 35.5882 35.9557L46.5164 36.7239Z" fill="#98A0FF"/>
</g>
</g>
<g id="Group_65">
<g id="Group_66">
<path id="Vector_33" d="M21.6807 34.1237C21.6129 34.1151 21.6347 34.0134 21.6933 34.0273C31.8285 35.422 31.309 35.281 31.2968 35.3755C31.2858 35.4557 31.8707 35.502 21.6807 34.1237Z" fill="#6F7FF0"/>
</g>
</g>
<g id="Group_67">
<g id="Group_68">
<path id="Vector_34" d="M45.5338 42.1957L45.4691 42.5548L45.4541 42.6248C44.242 42.9489 43.0598 43.3978 41.9377 43.9665C41.3242 43.8916 40.7156 43.8118 40.1072 43.7321C40.2717 44.0613 40.4214 44.3954 40.551 44.7346C40.546 44.7396 40.5411 44.7396 40.536 44.7446C39.6982 45.2509 39.3169 45.631 38.7953 45.5924C38.4862 45.5725 38.2217 45.3929 37.9674 45.2183C37.4786 44.884 36.8102 44.5698 36.4011 44.1509C36.1217 43.8666 36.1817 43.737 36.5557 43.5722C37.4038 43.2104 38.3444 43.8081 39.6831 43.2182C40.3713 42.9189 40.9399 42.4102 41.6083 42.0759C42.8305 41.4675 44.3517 41.5273 45.5338 42.1957Z" fill="#6F7FF0"/>
</g>
</g>
<g id="Group_69">
<g id="Group_70">
<path id="Vector_35" d="M32.3959 45.8965C29.2217 45.5728 26.0792 45.2588 23.1435 43.9363C22.7396 43.7518 21.4427 43.0535 20.899 42.4349L20.9839 41.5671C21.0936 41.5173 21.2333 41.4774 21.4077 41.4475C25.6308 40.693 29.9011 42.4449 32.3959 45.8965Z" fill="#6F7FF0"/>
</g>
</g>
<g id="Group_71">
<g id="Group_72">
<path id="Vector_36" d="M35.5869 35.9541L34.8791 53.9397C34.8313 55.2607 31.7317 55.1488 31.7795 53.8278L31.7484 53.8182C31.7687 53.7978 31.7795 53.786 31.7795 53.786L32.5952 35.6046C32.6439 35.3812 35.5107 35.6932 35.5869 35.9541Z" fill="#6F7FF0"/>
</g>
</g>
<g id="Group_73">
<g id="Group_74">
<path id="Vector_37" d="M24.9392 57.3885C24.5053 58.6903 24.1312 58.4858 24.1312 58.4858C23.8993 54.8953 25.1728 50.8411 26.7995 48.7895C27.8171 48.7099 25.3682 56.0868 24.9392 57.3885Z" fill="#444B68"/>
</g>
</g>
<g id="Group_75">
<g id="Group_76">
<path id="Vector_38" d="M45.3046 43.2631C44.9356 43.5294 43.917 43.7826 43.2695 44.1409C42.2021 44.0062 41.1397 43.8717 40.0774 43.732C40.3532 44.3404 40.7793 45.229 41.025 46.2108C41.03 46.2159 41.03 46.2159 41.03 46.2208C41.6051 48.2312 41.7388 50.6425 41.2345 53.0241C41.2246 53.079 41.2097 53.1388 41.1946 53.1937C41.1946 53.2137 41.1896 53.2387 41.1847 53.2586C39.6602 53.414 38.2121 52.6862 36.6607 52.6102C35.2443 52.5404 33.8626 53.0291 32.5258 53.5081C32.2664 53.6029 32.007 53.6926 31.7477 53.7874C29.5232 54.5854 24.4407 56.411 24.1215 56.5257C24.2993 54.0907 25.0625 51.3066 26.4408 49.2435C34.8583 46.995 33.3899 47.3908 34.6657 47.0489C36.9966 46.4316 38.6227 44.1384 40.8007 43.0936C42.0726 42.4851 43.4842 41.9564 44.8707 42.2358C45.5534 42.3688 45.8366 42.8908 45.3046 43.2631Z" fill="#FEC3A5"/>
</g>
</g>
<g id="Group_77">
<g id="Group_78">
<path id="Vector_39" d="M40.2266 53.2535C39.8327 53.2136 39.4436 53.1388 39.0546 53.049C37.1244 50.8158 35.4735 49.7432 33.7725 48.2259C33.5182 48.0015 33.2189 47.7671 32.9944 47.4926C34.9042 46.9984 35.5004 46.8963 36.7504 46.0213C37.9275 47.0338 38.8602 48.3407 39.4139 49.792C39.8377 50.9041 40.0421 52.0764 40.2266 53.2535Z" fill="#FCAA86"/>
</g>
</g>
<g id="Group_79">
<g id="Group_80">
<path id="Vector_40" d="M26.4103 49.3382C26.2907 49.6225 26.1411 49.9118 26.0463 50.1912C25.4007 52.0298 25.0499 54.1277 25.1036 56.1815C24.7844 56.2963 24.4702 56.411 24.1508 56.5256C24.3282 54.0966 25.0942 51.326 26.4103 49.3382Z" fill="#FCAA86"/>
</g>
</g>
<g id="Group_81">
<g id="Group_82">
<path id="Vector_41" d="M40.7289 54.8799C39.1042 54.7592 39.4693 46.492 39.4974 45.0308C39.5265 43.5705 40.1049 43.7332 40.1049 43.7332L40.1059 43.7342C41.8254 47.1732 42.0483 51.311 40.7289 54.8799Z" fill="#444B68"/>
</g>
</g>
<g id="Group_83">
<g id="Group_84">
<path id="Vector_42" d="M41.2215 53.2193C37.4263 50.0775 33.4207 47.2357 29.2103 44.7019C27.8357 43.8755 26.0989 43.8258 24.5307 43.487C23.286 43.2184 22.0268 42.6411 20.8688 42.1101C20.3604 41.8769 19.1363 41.5323 19.0785 40.8916C19.0223 40.268 19.6677 39.8087 20.2397 40.0729C19.9039 39.9312 19.5554 39.7803 19.3189 39.503C18.9778 39.1028 18.9888 38.3465 19.6165 38.3057C19.8497 38.2905 20.0809 38.3481 20.3075 38.4051C19.994 38.2666 19.6772 38.1087 19.4507 37.8513C18.9446 37.2766 19.1749 36.5104 19.9932 36.3973C20.3047 36.3543 20.6199 36.418 20.928 36.4814C20.5814 36.2842 19.8889 35.5055 20.183 35.0746C20.4778 34.6429 21.4307 34.9603 21.7924 35.0827C22.6636 35.3777 23.5349 35.6735 24.407 35.9696C25.3621 36.2937 26.3122 36.3229 27.312 36.1915C26.6316 35.469 25.7797 34.9093 24.8461 34.5706C24.6075 34.4829 24.3526 34.4031 24.1792 34.2172C24.0059 34.0314 23.9631 33.6963 24.1646 33.5407C24.3445 33.4008 24.4549 33.4462 26.7075 33.563C27.2974 33.5941 27.6051 34.0011 28.007 34.4342C28.3526 34.8081 28.746 35.0739 29.1149 35.4049C29.5053 35.7554 29.8159 36.2898 30.1002 36.7269C30.7105 37.6635 31.2051 38.6759 31.5663 39.7342C34.284 41.9553 37.3414 43.6832 40.6579 44.993C41.6479 47.5992 41.8445 50.5031 41.2215 53.2193Z" fill="#FEC3A5"/>
</g>
</g>
<g id="Group_85">
<g id="Group_86">
<path id="Vector_43" d="M33.5806 22.6604C33.3975 22.5081 33.6065 21.5597 33.6523 21.3558C33.7543 20.9027 33.9829 20.5302 34.154 20.1062C34.3341 19.6602 32.525 20.0019 32.3348 20.1699C31.6037 20.8157 33.0738 22.2386 33.5806 22.6604Z" fill="#64677A"/>
</g>
</g>
<g id="Group_87">
<g id="Group_88">
<path id="Vector_44" d="M48.9305 56.4485C45.8087 55.8764 42.647 55.2952 40.647 54.9273C40.6585 54.8539 42.6572 50.2895 40.5617 44.925C40.29 44.211 40.0241 43.7075 39.9991 43.6551C40.6931 43.7462 46.4601 44.4849 46.529 44.4993C46.6086 44.5155 46.5862 44.6374 46.5037 44.621C46.4381 44.6084 40.4364 43.8382 40.2149 43.809C41.8082 47.0731 42.1417 51.113 40.8146 54.8314C43.7809 55.3791 46.0303 55.7881 48.9417 56.3248C49.0162 56.3385 49.0061 56.4485 48.9305 56.4485Z" fill="#F16997"/>
</g>
</g>
<g id="Group_89">
<g id="Group_90">
<path id="Vector_45" d="M41.2215 53.2191C40.9276 52.9758 40.6316 52.7334 40.3347 52.4939C40.469 49.9657 40.6345 47.4979 40.4271 44.9706C40.4251 44.9472 40.4241 44.9228 40.4232 44.8996C40.501 44.9307 40.579 44.962 40.6578 44.9931C41.6479 47.5991 41.8445 50.503 41.2215 53.2191Z" fill="#FCAA86"/>
</g>
</g>
<g id="Group_91">
<g id="Group_92">
<path id="Vector_46" d="M40.0721 52.3689L34.8193 48.4366C33.1643 47.1982 31.2828 46.1282 29.5554 45.005C29.4877 44.9614 29.5521 44.8564 29.6235 44.9009C31.3529 46.0253 33.232 47.0931 34.8943 48.3373C40.3675 52.4704 40.2332 52.2586 40.1593 52.3567C40.1471 52.3728 40.098 52.3892 40.0721 52.3689Z" fill="#FF9B78"/>
</g>
</g>
<g id="Group_93">
<g id="Group_94">
<path id="Vector_47" d="M29.8918 45.1863C28.6754 44.4445 27.244 43.9512 25.6375 43.8269C24.6969 43.7567 24.7487 43.707 23.7467 43.3612C22.2737 42.8506 22.7022 42.9573 20.0843 41.8795C19.6713 41.7057 19.2553 41.5021 19.1004 41.0981C18.9435 40.6862 19.3303 39.956 19.7954 39.8453C19.583 39.7264 19.3706 39.5774 19.227 39.3665C19.0142 39.0543 19.0024 38.5657 19.325 38.3359C19.4891 38.219 19.685 38.2137 19.8764 38.2491C18.6982 37.3994 19.2294 36.1125 20.6811 36.4395C20.5257 36.328 20.3766 36.2003 20.2608 36.043C20.0367 35.74 19.9871 35.366 20.1332 35.0902C20.5611 34.2824 21.9403 34.9694 22.7153 35.3216C24.1152 35.9592 25.6368 36.2413 27.1234 36.1439C26.5862 35.7806 26.0742 35.2813 25.5414 34.9461C25.1014 34.6698 24.4819 34.5726 24.1079 34.1566C23.9447 33.9753 23.8965 33.8156 23.9632 33.6821C24.0933 33.423 24.6192 33.3826 24.858 33.4059C25.6057 33.4733 26.6607 33.3829 27.3275 33.7615C28.0146 34.1516 28.5124 34.8135 29.136 35.2754C29.7888 35.7579 30.1808 36.5897 30.5627 37.2631C31.8959 39.6323 31.1433 39.4271 32.6143 40.4653C35.0956 42.2207 37.7736 43.7055 40.5743 44.8784C40.6521 44.9102 40.6 45.0272 40.5265 44.9933C37.7169 43.8169 35.0307 42.3279 32.5421 40.5671C31.0196 39.4926 31.8007 39.7146 30.4535 37.3246C30.0749 36.6473 29.6825 35.8347 29.0619 35.3757C28.4385 34.9147 27.9331 34.249 27.266 33.8695C26.6293 33.5085 25.579 33.5979 24.8462 33.5296C24.5875 33.5101 24.1608 33.5661 24.0747 33.7375C24.0329 33.8209 24.0751 33.9338 24.2003 34.0727C24.55 34.4611 25.1645 34.5617 25.6075 34.8408C26.2038 35.2151 26.7491 35.7699 27.3444 36.1384C27.3953 36.1698 27.3773 36.2484 27.3172 36.2539C25.7488 36.3898 24.1399 36.1078 22.6636 35.4346C21.9662 35.1212 20.6233 34.4327 20.2432 35.1487C20.0928 35.4327 20.2126 35.7678 20.3611 35.9689C20.5437 36.2164 20.8116 36.3838 21.0713 36.5461C21.1317 36.5842 21.0911 36.6779 21.0207 36.659C20.7484 36.5801 20.4372 36.4876 20.1405 36.509C19.8898 36.5246 19.5707 36.638 19.4284 36.9108C19.2803 37.1967 19.3898 37.5572 19.5643 37.7876C19.7621 38.0477 20.0509 38.2235 20.3304 38.3941C20.3929 38.432 20.3492 38.5305 20.2754 38.5055C20.0084 38.4037 19.6427 38.2634 19.3971 38.4369C19.1385 38.6215 19.1541 39.038 19.3305 39.2961C19.5233 39.5796 19.8536 39.7413 20.1453 39.884C20.1457 39.8844 20.1463 39.885 20.1468 39.885C20.2211 39.921 20.1663 40.0342 20.0922 39.9971C19.6104 39.7599 19.0572 40.6365 19.2174 41.053C19.3543 41.4111 19.7444 41.6006 20.1331 41.7641L22.5754 42.7933C23.2216 43.0655 23.8864 43.2657 24.5389 43.5098C25.0648 43.7067 25.5908 43.6766 26.1575 43.75C27.5 43.9225 28.8137 44.3822 29.9573 45.0798C30.0274 45.1235 29.9616 45.2295 29.8918 45.1863Z" fill="#FF9B78"/>
</g>
</g>
<g id="Group_95">
<g id="Group_96">
<path id="Vector_48" d="M17.1936 58.8453C17.1112 58.8261 17.1465 58.7028 17.2228 58.7245C19.2613 59.2219 21.5628 59.1254 24.066 58.439C23.8808 55.3745 24.8259 51.2929 26.6928 48.8259C24.6704 48.31 22.6277 48.4404 20.4293 48.0636C20.2667 48.0496 20.646 48.05 19.1746 47.9729C18.8549 47.9514 18.0659 47.9152 17.8608 47.8624C17.7791 47.8408 17.8152 47.7202 17.8919 47.7415C18.0045 47.7707 18.4288 47.8024 18.8287 47.8292L19.1814 47.8482C20.6532 47.9267 20.2914 47.9268 20.4497 47.9408C22.8188 48.3273 24.7614 48.1844 26.816 48.7288L26.9081 48.7533C26.8782 48.8077 24.5827 51.4695 24.2136 56.5302C24.1259 57.6081 24.1904 58.3091 24.1965 58.5326C23.5811 58.6465 20.5551 59.6658 17.1936 58.8453Z" fill="#F16997"/>
</g>
</g>
<g id="Group_97">
<g id="Group_98">
<path id="Vector_49" d="M38.5018 7.3798C39.3917 7.08364 40.1209 6.38325 40.4521 5.5065C40.4828 5.42881 40.5978 5.4742 40.5689 5.5504C40.2241 6.46228 39.4661 7.1899 38.5407 7.49783C38.4664 7.52625 38.4213 7.4063 38.5018 7.3798Z" fill="#4A4B67"/>
</g>
</g>
<g id="Group_99">
<g id="Group_100">
<path id="Vector_50" d="M27.9961 4.93101C27.9714 4.85227 28.0907 4.81537 28.1151 4.89395C28.3961 5.79362 29.3157 6.4443 30.2592 6.41126C30.2603 6.41126 30.2607 6.41126 30.2616 6.41126C30.3423 6.41126 30.3454 6.5324 30.264 6.53597C29.277 6.57393 28.2951 5.88916 27.9961 4.93101Z" fill="#4A4B67"/>
</g>
</g>
<g id="Group_101">
<g id="Group_102">
<path id="Vector_51" d="M33.48 5.99017C34.1253 4.55174 33.816 2.75106 32.7274 1.61074C32.6708 1.55076 32.7609 1.46563 32.818 1.52501C33.9403 2.70091 34.2593 4.5577 33.594 6.04078C33.5592 6.11668 33.4464 6.06444 33.48 5.99017Z" fill="#4A4B67"/>
</g>
</g>
<g id="Group_103">
<g id="Group_104">
<path id="Vector_52" d="M35.8052 6.69317C37.0635 5.57442 37.4419 3.7532 36.7253 2.22027C36.6906 2.14645 36.8022 2.09213 36.8382 2.16773C37.576 3.74561 37.1905 5.62815 35.888 6.78678C35.8262 6.84081 35.7431 6.74823 35.8052 6.69317Z" fill="#4A4B67"/>
</g>
</g>
<g id="Group_105">
<g id="Group_106">
<path id="Vector_53" d="M26.6611 11.9371C25.8262 9.68576 25.29 7.39305 27.0041 5.87619C27.5349 5.40619 28.2174 5.11582 28.9247 5.05793C29.014 5.06031 29.011 5.1761 28.9344 5.18265C28.2539 5.23816 27.5977 5.51781 27.0868 5.9698C25.4293 7.43696 25.9587 9.68442 26.778 11.8942C26.807 11.9706 26.6897 12.0151 26.6611 11.9371Z" fill="#64677A"/>
</g>
</g>
<g id="Group_107">
<g id="Group_108">
<path id="Vector_54" d="M41.7034 10.6216C42.3547 9.12912 42.04 7.2509 40.9381 6.05313C40.8827 5.99315 40.9722 5.90728 41.0296 5.96845C42.164 7.20179 42.488 9.13552 41.8172 10.6713C41.7838 10.7481 41.6702 10.696 41.7034 10.6216Z" fill="#64677A"/>
</g>
</g>
<g id="Group_109">
<g id="Group_110">
<path id="Vector_55" d="M27.9355 13.5114C27.9048 13.5114 27.8781 13.4889 27.8736 13.4578C27.6504 11.879 28.3652 10.0298 30.048 9.00873C30.3913 8.79933 30.747 8.58308 30.8624 8.22202C30.982 7.84876 30.8021 7.43576 30.6792 7.05401C30.5969 6.79684 30.4488 6.16268 30.8487 5.82796C30.9121 5.77498 30.9919 5.87068 30.9286 5.92336C30.5872 6.20971 30.7235 6.78255 30.7981 7.01591C30.9243 7.41552 31.1158 7.84087 30.9813 8.25997C30.8334 8.72208 30.3638 8.95694 29.9468 9.21754C28.5707 10.0904 27.769 11.8268 27.9974 13.4401C28.0023 13.4742 27.9784 13.5059 27.9443 13.5108C27.9413 13.5114 27.9385 13.5114 27.9355 13.5114Z" fill="#64677A"/>
</g>
</g>
<g id="Group_111">
<g id="Group_112">
<path id="Vector_56" d="M26.9274 4.83925C27.8601 3.27089 29.7691 2.37405 31.5728 2.66337C31.6539 2.67617 31.6351 2.79806 31.5533 2.78615C29.7983 2.50993 27.942 3.377 27.0345 4.9025C26.9927 4.97379 26.8851 4.90949 26.9274 4.83925Z" fill="#64677A"/>
</g>
</g>
<g id="Group_113">
<g id="Group_114">
<path id="Vector_57" d="M38.4256 10.2289C38.344 10.2289 38.3427 10.1065 38.4236 10.1041C39.7851 10.0632 41.0671 9.19762 41.6145 7.95073C41.6495 7.8723 41.7614 7.92781 41.7285 8.00044C41.1625 9.29123 39.8357 10.1864 38.4275 10.2289C38.4269 10.2289 38.426 10.2289 38.4256 10.2289Z" fill="#4A4B67"/>
</g>
</g>
<g id="Group_115">
<g id="Group_116">
<path id="Vector_58" d="M46.5162 36.7729C46.263 36.7551 35.8373 36.0222 35.5825 36.0029C35.5206 35.9972 35.5243 35.9054 35.5864 35.9054C35.638 35.909 45.8438 36.6292 46.5196 36.6754C46.582 36.6799 46.5786 36.7729 46.5162 36.7729Z" fill="#6F7FF0"/>
</g>
</g>
</g>
</g>
</g>
</svg>
